<?xml version="1.0" encoding="utf-8"?>
<!-- Generator: Adobe Illustrator 20.1.0, SVG Export Plug-In . SVG Version: 6.00 Build 0)  -->
<svg version="1.1" id="Layer_1" xmlns="http://www.w3.org/2000/svg" xmlns:xlink="http://www.w3.org/1999/xlink" x="0px" y="0px"
	 viewBox="0 0 258 314.6" style="enable-background:new 0 0 258 314.6;" xml:space="preserve">
<style type="text/css">
	.st0{fill:#63B8B0;}
	.st1{fill:#FD7161;}
	.st2{fill:#FFFFFF;}
	.st3{fill:#9BBD2F;}
	.st4{fill:#52B3AE;}
	.st5{fill:#F3F0E9;}
	.st6{fill:#F2B02B;}
	.st7{opacity:0.5;}
	.st8{clip-path:url(#SVGID_2_);fill:#E6E7E8;}
	.st9{clip-path:url(#SVGID_2_);fill:#E7E8E9;}
	.st10{clip-path:url(#SVGID_2_);fill:#E8E9EA;}
	.st11{clip-path:url(#SVGID_2_);fill:#E9EAEB;}
	.st12{clip-path:url(#SVGID_2_);fill:#EAEBEC;}
	.st13{clip-path:url(#SVGID_2_);fill:#EBECED;}
	.st14{clip-path:url(#SVGID_2_);fill:#EDEDED;}
	.st15{clip-path:url(#SVGID_2_);fill:#EEEEEE;}
	.st16{clip-path:url(#SVGID_2_);fill:#EFEFEF;}
	.st17{clip-path:url(#SVGID_2_);fill:#F0F0F0;}
	.st18{clip-path:url(#SVGID_2_);fill:#F1F1F1;}
	.st19{clip-path:url(#SVGID_2_);fill:#F2F2F2;}
	.st20{clip-path:url(#SVGID_2_);fill:#F5F5F5;}
	.st21{clip-path:url(#SVGID_2_);fill:#F8F8F8;}
	.st22{clip-path:url(#SVGID_2_);fill:#FAFAFA;}
	.st23{clip-path:url(#SVGID_2_);fill:#FCFCFC;}
	.st24{clip-path:url(#SVGID_2_);fill:#FDFDFD;}
	.st25{clip-path:url(#SVGID_2_);fill:#FEFEFE;}
	.st26{clip-path:url(#SVGID_2_);fill:#FFFFFF;}
	.st27{fill:#FBD9A5;}
	.st28{fill:#231F20;}
	.st29{fill:#E1354A;}
	.st30{fill:#A97C50;}
	.st31{fill:#5B4739;}
	.st32{fill:#E8CCA7;}
	.st33{fill:#B76963;}
	.st34{fill:#745944;}
	.st35{fill:#8B5E3C;}
	.st36{fill-rule:evenodd;clip-rule:evenodd;fill:#231F20;}
	.st37{fill:#3C2415;}
	.st38{opacity:0.4;}
	.st39{fill:#649373;}
	.st40{fill:#AD7B59;}
	.st41{fill:#A7A9AC;}
	.st42{fill:#E55C3D;}
	.st43{fill:#04AEC5;}
	.st44{opacity:0.3;}
	.st45{fill:#A04E1F;}
	.st46{fill:#634B3B;}
	.st47{fill:#C49A6C;}
	.st48{opacity:0.2;}
	.st49{fill:#F4CBD0;}
	.st50{fill:#30828C;}
	.st51{fill-rule:evenodd;clip-rule:evenodd;fill:#E8C79C;}
	.st52{fill:#A6B22E;}
	.st53{opacity:0.7;}
	.st54{fill:#829254;}
	.st55{fill:#E6E7E8;}
	.st56{opacity:0.12;}
	.st57{fill:#E8C79C;}
	.st58{fill:#2E7075;}
</style>
<g>
	<g>
		<path class="st0" d="M226.2,116.8c0.4-0.1,0.8-0.1,1.3-0.1c0.8,0,1.4,0.1,1.8,0.5c0.4,0.3,0.6,0.9,0.6,1.4c0,0.7-0.2,1.2-0.6,1.6
			c-0.4,0.4-1.1,0.6-1.6,0.6c-0.1,0-0.2,0-0.3,0v2.4h-1.3V116.8z M227.4,119.8c0.1,0,0.1,0,0.2,0c0.6,0,0.9-0.5,0.9-1.1
			c0-0.6-0.2-1-0.8-1c-0.1,0-0.2,0-0.3,0V119.8z"/>
	</g>
	<g>
		<path class="st0" d="M231.9,116.7v2.6h1.3v-2.6h1.3v6.5h-1.3v-2.7h-1.3v2.7h-1.3v-6.5H231.9z"/>
	</g>
	<g>
		<path class="st0" d="M235.6,116.8c0.4-0.1,0.8-0.1,1.3-0.1c0.8,0,1.4,0.1,1.8,0.5c0.4,0.3,0.6,0.9,0.6,1.4c0,0.7-0.2,1.2-0.6,1.6
			c-0.4,0.4-1.1,0.6-1.6,0.6c-0.1,0-0.2,0-0.3,0v2.4h-1.3V116.8z M236.9,119.8c0.1,0,0.1,0,0.2,0c0.6,0,0.9-0.5,0.9-1.1
			c0-0.6-0.2-1-0.8-1c-0.1,0-0.2,0-0.3,0V119.8z"/>
	</g>
</g>
<g>
	<g>
		<ellipse class="st1" cx="232.3" cy="153.4" rx="12.6" ry="12.6"/>
	</g>
	<g>
		<g>
			<path class="st2" d="M221.7,153.5l5.7-2.8v1.2l-4.2,2v0l4.2,1.9v1.2l-5.7-2.8V153.5z"/>
		</g>
		<g>
			<path class="st2" d="M228.7,153.9c0-0.6,0.4-1,0.9-1c0.5,0,0.9,0.4,0.9,1c0,0.6-0.4,1-0.9,1C229.1,154.9,228.7,154.5,228.7,153.9
				z"/>
		</g>
		<g>
			<path class="st2" d="M231.5,153.9c0-0.6,0.4-1,0.9-1c0.5,0,0.9,0.4,0.9,1c0,0.6-0.4,1-0.9,1C231.9,154.9,231.5,154.5,231.5,153.9
				z"/>
		</g>
		<g>
			<path class="st2" d="M234.3,153.9c0-0.6,0.4-1,0.9-1c0.5,0,0.9,0.4,0.9,1c0,0.6-0.4,1-0.9,1C234.7,154.9,234.3,154.5,234.3,153.9
				z"/>
		</g>
		<g>
			<path class="st2" d="M242.9,154.4l-5.7,2.6v-1.2l4.6-2v0l-4.6-2v-1.2l5.7,2.6V154.4z"/>
		</g>
	</g>
</g>
<g>
	<g>
		<path class="st0" d="M33.1,175.4l3.9-1.9v0.8l-2.9,1.3v0l2.9,1.3v0.8l-3.9-1.9V175.4z"/>
	</g>
	<g>
		<path class="st0" d="M37.9,175.6c0-0.4,0.3-0.7,0.6-0.7c0.3,0,0.6,0.3,0.6,0.7c0,0.4-0.3,0.7-0.6,0.7
			C38.2,176.4,37.9,176.1,37.9,175.6z"/>
	</g>
	<g>
		<path class="st0" d="M39.8,175.6c0-0.4,0.3-0.7,0.6-0.7c0.3,0,0.6,0.3,0.6,0.7c0,0.4-0.3,0.7-0.6,0.7
			C40.1,176.4,39.8,176.1,39.8,175.6z"/>
	</g>
	<g>
		<path class="st0" d="M41.8,175.6c0-0.4,0.3-0.7,0.6-0.7c0.3,0,0.6,0.3,0.6,0.7c0,0.4-0.3,0.7-0.6,0.7
			C42,176.4,41.8,176.1,41.8,175.6z"/>
	</g>
	<g>
		<path class="st0" d="M47.7,176l-3.9,1.8V177l3.1-1.4v0l-3.1-1.4v-0.8l3.9,1.8V176z"/>
	</g>
</g>
<g>
	<g>
		<ellipse class="st3" cx="214.4" cy="200.6" rx="8.2" ry="8.2"/>
	</g>
	<g>
		<polygon class="st2" points="218.3,198.5 216.3,196.1 214.4,193.8 212.4,196.1 210.5,198.5 212.2,198.5 212.2,205.8 216.6,205.8 
			216.6,198.5 		"/>
	</g>
</g>
<g>
	<g>
		<g>
			<path class="st2" d="M221,38.6c-0.1,0-0.1,0-0.2,0c-0.1,0-0.2,0-0.2-0.1c-0.1-0.1-0.1-0.1-0.1-0.2l0-0.1c0,0-0.1,0-0.1,0l0,0.1
				c0,0.1-0.2,0.3-0.4,0.2c-0.2,0-0.3-0.1-0.4-0.1c-0.1,0-0.1-0.1-0.2-0.2c0-0.1,0-0.1,0-0.2l0-0.1c0,0-0.1,0-0.1,0l-0.1,0.1
				c-0.1,0.1-0.3,0.2-0.4,0.1c-0.1-0.1-0.2-0.2-0.4-0.3c-0.1-0.1-0.1-0.1-0.1-0.2c0-0.1,0-0.2,0.1-0.2l0.1-0.1c0,0,0,0-0.1-0.1
				l-0.1,0.1c-0.1,0.1-0.3,0.1-0.4-0.1c-0.1-0.1-0.2-0.2-0.2-0.4c0-0.1-0.1-0.2,0-0.2c0-0.1,0.1-0.1,0.1-0.2l0.1,0c0,0,0-0.1,0-0.1
				l-0.1,0c-0.1,0.1-0.3,0-0.4-0.2c0-0.2-0.1-0.3-0.1-0.4c0-0.1,0-0.2,0-0.2c0-0.1,0.1-0.1,0.2-0.1l0.1,0c0,0,0-0.1,0-0.1l-0.1,0
				l0,0c-0.2,0-0.3-0.1-0.3-0.3c0-0.1,0-0.3,0-0.4c0-0.1,0.1-0.3,0.3-0.3l0,0l0.1,0c0,0,0-0.1,0-0.1l-0.1,0c-0.1,0-0.1-0.1-0.2-0.1
				c0-0.1,0-0.2,0-0.2c0-0.1,0.1-0.3,0.2-0.4c0.1-0.1,0.3-0.2,0.4-0.1l0.1,0.1c0,0,0,0,0-0.1l-0.1-0.1c-0.1,0-0.1-0.1-0.1-0.2
				c0-0.1,0-0.2,0.1-0.2c0.1-0.1,0.2-0.2,0.3-0.3c0.1-0.1,0.3-0.1,0.4,0l0.1,0.1c0,0,0,0,0.1-0.1l-0.1-0.1c0-0.1-0.1-0.1,0-0.2
				c0-0.1,0.1-0.2,0.1-0.2c0.1-0.1,0.2-0.1,0.4-0.2c0.1-0.1,0.3,0,0.4,0.1l0,0.1c0,0,0.1,0,0.1,0l0-0.1c0-0.1,0-0.2,0-0.2
				c0-0.1,0.1-0.1,0.2-0.1c0.1,0,0.3-0.1,0.4-0.1l0,0c0.2,0,0.3,0.1,0.3,0.3l0,0.1c0,0,0.1,0,0.1,0l0-0.1c0-0.2,0.1-0.3,0.3-0.3
				c0.2,0,0.3,0,0.5,0.1c0.1,0,0.2,0.1,0.2,0.1c0,0.1,0.1,0.1,0,0.2l0,0.1c0,0,0.1,0,0.1,0l0-0.1c0.1-0.1,0.2-0.2,0.4-0.2
				c0.1,0.1,0.3,0.1,0.4,0.2c0.1,0,0.1,0.1,0.1,0.2c0,0.1,0,0.2,0,0.2l-0.1,0.1c0,0,0,0,0.1,0.1l0.1-0.1c0.1-0.1,0.3-0.1,0.4,0
				c0.1,0.1,0.2,0.2,0.3,0.3c0.1,0.1,0.1,0.1,0.1,0.2c0,0.1,0,0.1-0.1,0.2l-0.1,0.1c0,0,0,0,0,0.1l0.1-0.1c0.1-0.1,0.3,0,0.4,0.1
				c0.1,0.1,0.1,0.3,0.2,0.4c0,0.1,0,0.2,0,0.2c0,0.1-0.1,0.1-0.2,0.1l-0.1,0c0,0,0,0.1,0,0.1l0.2,0c0.1,0,0.3,0.1,0.3,0.2
				c0,0.2,0,0.3,0,0.4c0,0.1,0,0.2-0.1,0.2c0,0.1-0.1,0.1-0.2,0.1h-0.1c0,0,0,0.1,0,0.1l0.1,0c0.1,0,0.1,0,0.2,0.1
				c0,0.1,0.1,0.1,0.1,0.2c0,0.2-0.1,0.3-0.1,0.4c0,0.2-0.2,0.2-0.4,0.2l-0.1,0c0,0,0,0.1,0,0.1l0.1,0c0.1,0,0.1,0.1,0.1,0.2
				c0,0.1,0,0.2,0,0.2c-0.1,0.1-0.1,0.3-0.2,0.4c-0.1,0.1-0.3,0.2-0.4,0.1l-0.1-0.1c0,0,0,0-0.1,0.1l0.1,0.1c0.1,0,0.1,0.1,0.1,0.2
				c0,0.1,0,0.2-0.1,0.2c-0.1,0.1-0.2,0.2-0.3,0.3c-0.1,0.1-0.3,0.1-0.4-0.1l-0.1-0.1c0,0,0,0-0.1,0l0,0.1c0,0.1,0,0.1,0,0.2
				c0,0.1-0.1,0.1-0.2,0.2c-0.1,0.1-0.3,0.1-0.4,0.2c-0.2,0-0.3,0-0.4-0.2l0-0.1c0,0-0.1,0-0.1,0l0,0.1c0,0.1,0,0.1-0.1,0.2
				c-0.1,0.1-0.1,0.1-0.2,0.1C221.1,38.6,221.1,38.6,221,38.6z M220.2,37.8l0.1,0c0.1,0,0.2,0,0.3,0l0.1,0l0,0.4c0.2,0,0.3,0,0.4,0
				l0-0.4l0.1,0c0.1,0,0.2,0,0.3-0.1l0.1,0l0.1,0.4c0.2,0,0.3-0.1,0.4-0.1l-0.2-0.4l0.1-0.1c0.1,0,0.2-0.1,0.3-0.2l0.1-0.1l0.2,0.3
				c0.1-0.1,0.2-0.2,0.3-0.3l-0.3-0.3l0.1-0.1c0.1-0.1,0.2-0.2,0.2-0.3l0.1-0.1l0.3,0.2c0.1-0.1,0.2-0.2,0.2-0.4l-0.3-0.2l0.1-0.1
				c0-0.1,0.1-0.2,0.1-0.3c-0.4,1.1-1.5,1.9-2.8,1.9c-1.6,0-2.9-1.3-2.9-2.9c0-1.6,1.3-2.9,2.9-2.9c1.6,0,2.9,1.3,2.9,2.9
				c0,0.1,0,0.2,0,0.3c0-0.1,0-0.2,0-0.3l0-0.1h0.4c0-0.1,0-0.3,0-0.4l-0.4,0.1l0-0.1c0-0.1,0-0.2-0.1-0.3l0-0.1l0.4-0.1
				c0-0.1-0.1-0.3-0.2-0.4l-0.3,0.2l-0.1-0.1c-0.1-0.1-0.1-0.2-0.2-0.3l-0.1-0.1l0.3-0.2c-0.1-0.1-0.2-0.2-0.3-0.3l-0.3,0.3
				l-0.1-0.1c-0.1-0.1-0.2-0.1-0.3-0.2l-0.1-0.1l0.2-0.3c-0.1-0.1-0.3-0.1-0.4-0.2l-0.2,0.4l-0.1,0c-0.1,0-0.2-0.1-0.3-0.1l-0.1,0
				l0.1-0.4c-0.1,0-0.3-0.1-0.4-0.1l0,0.4l-0.1,0c-0.1,0-0.1,0-0.1,0c-0.1,0-0.2,0-0.2,0l-0.1,0l0-0.4c-0.2,0-0.3,0-0.4,0.1l0.1,0.4
				l-0.1,0c-0.1,0-0.2,0.1-0.3,0.1l-0.1,0.1l-0.2-0.4c-0.1,0.1-0.3,0.1-0.4,0.2l0.2,0.3l-0.1,0.1c-0.1,0.1-0.2,0.1-0.3,0.2l-0.1,0.1
				l-0.3-0.3c-0.1,0.1-0.2,0.2-0.3,0.3l0.3,0.2l-0.1,0.1c-0.1,0.1-0.1,0.2-0.2,0.3l-0.1,0.1l-0.3-0.2c-0.1,0.1-0.1,0.3-0.2,0.4
				l0.4,0.1l0,0.1c0,0.1-0.1,0.2-0.1,0.3l0,0.1l-0.4-0.1c0,0.2,0,0.3,0,0.4l0.2,0l0.1,0l0,0.1c0,0.1,0,0.2,0,0.3l0,0.1l-0.4,0.1
				c0,0.1,0.1,0.3,0.1,0.4l0.4-0.1l0.1,0.1c0,0.1,0.1,0.2,0.1,0.3l0.1,0.1l-0.3,0.2c0.1,0.1,0.1,0.2,0.2,0.3l0.3-0.2l0.1,0.1
				c0.1,0.1,0.2,0.2,0.2,0.2l0.1,0.1l-0.3,0.3c0.1,0.1,0.2,0.2,0.3,0.3l0.2-0.3l0.1,0.1c0.1,0.1,0.2,0.1,0.3,0.2l0.1,0.1l-0.2,0.3
				c0.1,0.1,0.3,0.1,0.4,0.1L220.2,37.8z M221,32.3c-1.5,0-2.7,1.2-2.7,2.7c0,1.5,1.2,2.7,2.7,2.7c1.5,0,2.7-1.2,2.7-2.7
				C223.6,33.5,222.4,32.3,221,32.3z M223.8,35.8l0.4,0.1c0-0.1,0.1-0.3,0.1-0.4l-0.4-0.1l0-0.1C223.9,35.6,223.8,35.7,223.8,35.8
				L223.8,35.8z"/>
		</g>
	</g>
	<g>
		<g>
			<path class="st2" d="M223.6,39.3c0,0-0.1,0-0.1,0c-0.1,0-0.1,0-0.2-0.1c0,0,0-0.1-0.1-0.1c0,0.1-0.1,0.1-0.2,0.1l-0.1,0
				c-0.1,0-0.2-0.1-0.3-0.1c-0.1,0-0.1-0.1-0.1-0.1c0,0,0-0.1,0-0.1c-0.1,0.1-0.2,0.1-0.3,0c-0.1-0.1-0.2-0.1-0.2-0.2
				c-0.1,0-0.1-0.1-0.1-0.2c0,0,0-0.1,0-0.1c-0.1,0-0.2,0-0.3-0.1c-0.1-0.1-0.1-0.2-0.2-0.3c0-0.1,0-0.1,0-0.2c0,0,0-0.1,0.1-0.1h0
				c-0.1,0-0.2-0.1-0.2-0.2c0-0.1-0.1-0.2-0.1-0.3c0-0.1,0-0.1,0-0.2c0,0,0.1-0.1,0.1-0.1c-0.1,0-0.2-0.1-0.2-0.2c0-0.1,0-0.2,0-0.3
				c0-0.1,0.1-0.2,0.2-0.2c0,0-0.1-0.1-0.1-0.1c0-0.1,0-0.1,0-0.2c0-0.1,0.1-0.2,0.1-0.3c0-0.1,0.2-0.2,0.3-0.1c0,0,0-0.1,0-0.1
				c0-0.1,0-0.1,0.1-0.2c0.1-0.1,0.1-0.2,0.2-0.2c0.1-0.1,0.2-0.1,0.3,0c0,0,0-0.1,0-0.1c0-0.1,0.1-0.1,0.1-0.2
				c0.1-0.1,0.2-0.1,0.3-0.2c0.1,0,0.2,0,0.3,0.1c0,0,0-0.1,0-0.1c0-0.1,0.1-0.1,0.2-0.1c0.1,0,0.2,0,0.3-0.1c0.1,0,0.2,0.1,0.3,0.1
				c0-0.1,0.1-0.2,0.2-0.2c0.1,0,0.2,0,0.3,0c0.1,0,0.1,0.1,0.2,0.1c0,0,0,0.1,0,0.1c0.1-0.1,0.2-0.1,0.3-0.1c0.1,0,0.2,0.1,0.3,0.1
				c0.1,0,0.1,0.1,0.1,0.2c0,0,0,0.1,0,0.1c0.1,0,0.2,0,0.3,0c0.1,0.1,0.1,0.1,0.2,0.2c0,0.1,0.1,0.1,0.1,0.2c0,0,0,0.1,0,0.1
				c0.1,0,0.2,0,0.3,0.1c0.1,0.1,0.1,0.2,0.1,0.3c0,0.1,0,0.1,0,0.2c0,0,0,0.1-0.1,0.1c0.1,0,0.2,0.1,0.2,0.2c0,0.1,0,0.2,0,0.3
				c0,0.1,0,0.1-0.1,0.2c0,0-0.1,0-0.1,0.1c0,0,0.1,0,0.1,0.1c0,0.1,0.1,0.1,0,0.2c0,0.1,0,0.2-0.1,0.3c0,0.1-0.1,0.2-0.2,0.2
				c0,0,0,0.1,0.1,0.1c0,0.1,0,0.1,0,0.2c0,0.1-0.1,0.2-0.2,0.3c-0.1,0.1-0.2,0.1-0.3,0.1c0,0,0,0.1,0,0.1c0,0.1,0,0.1-0.1,0.2
				c-0.1,0.1-0.2,0.1-0.2,0.2c-0.1,0.1-0.2,0.1-0.3,0c0,0,0,0.1,0,0.1c0,0.1-0.1,0.1-0.1,0.2c-0.1,0-0.2,0.1-0.3,0.1l-0.1,0
				c-0.1,0-0.2,0-0.2-0.1c0,0,0,0.1,0,0.1c0,0.1-0.1,0.1-0.2,0.1C223.7,39.3,223.7,39.3,223.6,39.3z M223.5,39c0.1,0,0.1,0,0.2,0
				l0-0.2c-0.1,0-0.1,0-0.2,0L223.5,39z M222.8,38.9c0.1,0,0.1,0,0.2,0.1l0-0.2c-0.1,0-0.1,0-0.2-0.1L222.8,38.9z M224.2,38.7l0,0.2
				c0.1,0,0.1,0,0.2-0.1l-0.1-0.2C224.3,38.7,224.3,38.7,224.2,38.7z M222.2,38.5c0.1,0,0.1,0.1,0.2,0.1l0.1-0.2
				c-0.1,0-0.1-0.1-0.1-0.1L222.2,38.5z M224.8,38.4l0.1,0.2c0,0,0.1-0.1,0.2-0.1l-0.1-0.1C224.9,38.3,224.9,38.4,224.8,38.4z
				 M223.6,35c-1,0-1.8,0.8-1.8,1.8c0,1,0.8,1.8,1.8,1.8c1,0,1.8-0.8,1.8-1.8C225.4,35.8,224.6,35,223.6,35z M221.7,37.9
				c0,0.1,0.1,0.1,0.1,0.2L222,38c0,0-0.1-0.1-0.1-0.2L221.7,37.9z M225.3,37.9l0.2,0.1c0-0.1,0.1-0.1,0.1-0.2l-0.2-0.1
				C225.4,37.8,225.3,37.9,225.3,37.9z M221.4,37.2c0,0.1,0,0.1,0.1,0.2l0.2-0.1c0-0.1,0-0.1,0-0.2L221.4,37.2z M225.6,37.3l0.2,0.1
				c0-0.1,0-0.1,0.1-0.2l-0.2,0C225.6,37.2,225.6,37.3,225.6,37.3z M221.4,36.5c0,0.1,0,0.1,0,0.2l0.2,0c0-0.1,0-0.1,0-0.2
				L221.4,36.5z M225.7,36.7h0.2c0-0.1,0-0.1,0-0.2l-0.2,0C225.7,36.5,225.7,36.6,225.7,36.7z M221.5,36l0.2,0.1
				c0-0.1,0-0.1,0.1-0.2l-0.2-0.1C221.5,35.8,221.5,35.9,221.5,36z M225.4,35.8c0,0.1,0.1,0.1,0.1,0.2l0.2-0.1
				c0-0.1-0.1-0.1-0.1-0.2L225.4,35.8z M221.9,35.3l0.2,0.1c0,0,0.1-0.1,0.1-0.1l-0.1-0.2C222,35.2,221.9,35.3,221.9,35.3z
				 M225,35.3c0,0,0.1,0.1,0.1,0.1l0.2-0.1c-0.1-0.1-0.1-0.1-0.2-0.2L225,35.3z M222.4,34.8l0.1,0.2c0.1,0,0.1-0.1,0.2-0.1l-0.1-0.2
				C222.5,34.8,222.5,34.8,222.4,34.8z M224.5,34.9c0.1,0,0.1,0.1,0.2,0.1l0.1-0.2c-0.1,0-0.1-0.1-0.2-0.1L224.5,34.9z M223.1,34.6
				l0.1,0.2c0.1,0,0.1,0,0.2,0l0-0.2C223.2,34.5,223.2,34.5,223.1,34.6z M223.8,34.7c0.1,0,0.1,0,0.2,0l0.1-0.2c-0.1,0-0.1,0-0.2,0
				L223.8,34.7z"/>
		</g>
	</g>
</g>
<g>
	<g>
		<path class="st4" d="M146.2,22.4c-3.4-8.7-12.4-10.6-17.3-10.6c-4.9,0-13.9,1.9-17.3,10.6c-3.1,7.9-0.7,12.2,3.5,17.9
			c5.1,6.9,6,15.1,6.3,15.5c0.3,0.4,14.8,0.2,14.9,0c0.1-0.2,1.2-8.6,6.3-15.5C147,34.6,149.3,30.2,146.2,22.4z"/>
	</g>
	<g>
		<g>
			<g>
				<g>
					<path class="st4" d="M128.7,71.3c-1.6,0-2.7-0.2-2.7-0.2l-0.2,0l-5.1-13.6l0.5,0c0.1,0,5.5,0.1,7.3,0.1c1.9,0,7.7-0.1,7.8-0.1
						l0.5,0L131.9,71l-0.2,0C131.7,71.1,130.6,71.3,128.7,71.3z M126.3,70.4c0.4,0.1,1.3,0.2,2.4,0.2c1.4,0,2.3-0.1,2.7-0.2
						l4.4-12.4c-1.4,0-5.7,0.1-7.3,0.1c-1.5,0-5.4-0.1-6.8-0.1L126.3,70.4z"/>
				</g>
			</g>
		</g>
		<g>
			<g>
				<path class="st4" d="M121.9,61.9L121.9,61.9c-1.1,0-2-0.6-2-1.4c0-0.3,0.1-0.6,0.3-0.9c0.4-0.4,1-0.7,1.7-0.7l13.5-0.8
					c1.2-0.1,2.2,0.5,2.2,1.4c0,0.8-0.8,1.5-2,1.6l-13.5,0.8C122,61.9,121.9,61.9,121.9,61.9z M135.6,58.7c0,0-0.1,0-0.2,0
					l-13.5,0.8c-0.5,0-1,0.2-1.3,0.5c-0.1,0.1-0.2,0.3-0.2,0.4c0,0.4,0.7,0.8,1.4,0.8l0,0c0,0,0.1,0,0.2,0l13.5-0.8
					c0.8-0.1,1.5-0.5,1.5-1C137,59.1,136.4,58.7,135.6,58.7z"/>
			</g>
		</g>
		<g>
			<g>
				<path class="st4" d="M123.1,65c-0.9,0-1.7-0.6-1.7-1.4c0-0.3,0.1-0.7,0.4-1c0.3-0.4,0.8-0.6,1.3-0.6l11.1-0.7
					c1-0.1,1.8,0.5,1.9,1.4c0,0.8-0.7,1.5-1.7,1.6L123.3,65C123.2,65,123.2,65,123.1,65z M134.4,62l-0.1,0l-11.1,0.7
					c-0.4,0-0.7,0.2-0.9,0.4c-0.1,0.1-0.2,0.3-0.2,0.5c0,0.5,0.5,0.8,1.1,0.8l0.1,0l11.1-0.7c0.7,0,1.2-0.5,1.2-1
					C135.5,62.3,135,62,134.4,62z"/>
			</g>
		</g>
		<g>
			<g>
				<path class="st4" d="M124.3,68.4c-0.8,0-1.5-0.6-1.5-1.4c0-0.8,0.6-1.5,1.4-1.6l9-0.6c0.8,0,1.5,0.6,1.5,1.4
					c0,0.4-0.1,0.8-0.4,1.1c-0.3,0.3-0.6,0.5-1,0.5L124.3,68.4z M133.2,65.4l-9,0.5c-0.5,0-0.9,0.5-0.8,0.9c0,0.5,0.4,0.8,0.9,0.8
					v0.3l0.1-0.3l8.9-0.5c0.2,0,0.5-0.1,0.6-0.3c0.2-0.2,0.2-0.4,0.2-0.6C134.1,65.8,133.7,65.4,133.2,65.4z"/>
			</g>
		</g>
		<g>
			<g>
				<path class="st4" d="M125.5,70.7c-0.6,0-1.1-0.5-1.2-1.1c0-0.6,0.4-1.1,1.1-1.2l6.6-0.3l0,0c0.7,0,1.2,0.5,1.3,1.1
					c0,0.3-0.1,0.6-0.3,0.8c-0.2,0.2-0.5,0.3-0.8,0.3L125.5,70.7z M132,68.6l-6.6,0.4c-0.3,0-0.6,0.3-0.5,0.6c0,0.3,0.3,0.6,0.6,0.6
					v0.3l0-0.3l6.6-0.3c0.1,0,0.3-0.1,0.4-0.2c0.1-0.1,0.2-0.3,0.2-0.5C132.6,68.9,132.3,68.6,132,68.6z"/>
			</g>
		</g>
	</g>
	<g>
		<g>
			<path class="st2" d="M116.7,25.1c0,0.2,0,0.5-0.1,0.7c-0.1,0.2-0.2,0.4-0.4,0.6c-0.2,0.2-0.4,0.3-0.7,0.4c-0.3,0.1-0.6,0.1-1,0.1
				h-0.6v2.1h-0.8v-5.7h1.4c0.3,0,0.6,0,0.9,0.1c0.2,0.1,0.4,0.1,0.6,0.3c0.2,0.1,0.4,0.3,0.5,0.6C116.7,24.5,116.7,24.8,116.7,25.1
				z M115.9,25.1c0-0.2,0-0.4-0.1-0.5c-0.1-0.1-0.2-0.3-0.3-0.4c-0.1-0.1-0.3-0.1-0.4-0.2c-0.2,0-0.4,0-0.6,0h-0.6v2.3h0.5
				c0.3,0,0.6,0,0.7-0.1c0.2,0,0.3-0.1,0.5-0.3c0.1-0.1,0.2-0.2,0.2-0.4C115.9,25.5,115.9,25.3,115.9,25.1z"/>
		</g>
		<g>
			<path class="st2" d="M117.4,29.1v-5.7h3.6v0.7h-2.8v1.6h2.6v0.7h-2.6v2.1h2.8v0.7H117.4z"/>
		</g>
		<g>
			<path class="st2" d="M126.3,29.1h-1l-1.8-2.3h-0.9v2.3h-0.8v-5.7h1.5c0.3,0,0.6,0,0.8,0.1c0.2,0,0.4,0.1,0.6,0.2
				c0.2,0.1,0.4,0.3,0.5,0.5c0.1,0.2,0.2,0.5,0.2,0.8c0,0.4-0.1,0.8-0.3,1c-0.2,0.3-0.5,0.5-0.9,0.6L126.3,29.1z M124.6,25
				c0-0.2,0-0.3-0.1-0.4c-0.1-0.1-0.2-0.2-0.3-0.3c-0.1-0.1-0.2-0.1-0.4-0.2c-0.1,0-0.3,0-0.5,0h-0.8v2.2h0.7c0.2,0,0.4,0,0.6-0.1
				c0.2,0,0.3-0.1,0.4-0.2c0.1-0.1,0.2-0.2,0.2-0.4C124.6,25.4,124.6,25.2,124.6,25z"/>
		</g>
		<g>
			<path class="st2" d="M130.1,24.1h-2.7v1.6h2.5v0.7h-2.5v2.8h-0.8v-5.7h3.4V24.1z"/>
		</g>
		<g>
			<path class="st2" d="M130.8,29.1v-5.7h3.6v0.7h-2.8v1.6h2.6v0.7h-2.6v2.1h2.8v0.7H130.8z"/>
		</g>
		<g>
			<path class="st2" d="M137.5,29.2c-0.4,0-0.7-0.1-1-0.2c-0.3-0.1-0.6-0.3-0.8-0.6c-0.2-0.2-0.4-0.6-0.5-0.9
				c-0.1-0.4-0.2-0.8-0.2-1.3c0-0.5,0.1-0.9,0.2-1.3c0.1-0.4,0.3-0.7,0.5-0.9c0.2-0.3,0.5-0.5,0.8-0.6c0.3-0.1,0.7-0.2,1-0.2
				c0.2,0,0.4,0,0.5,0c0.2,0,0.3,0.1,0.5,0.1c0.1,0,0.2,0.1,0.4,0.1c0.1,0.1,0.3,0.1,0.4,0.2v0.9h-0.1c-0.1-0.1-0.2-0.1-0.3-0.2
				c-0.1-0.1-0.2-0.2-0.4-0.3c-0.1-0.1-0.3-0.1-0.5-0.2c-0.2-0.1-0.4-0.1-0.6-0.1c-0.2,0-0.5,0-0.7,0.1c-0.2,0.1-0.4,0.2-0.6,0.4
				c-0.2,0.2-0.3,0.4-0.4,0.7c-0.1,0.3-0.1,0.6-0.1,1c0,0.4,0,0.7,0.1,1c0.1,0.3,0.2,0.5,0.4,0.7c0.2,0.2,0.3,0.3,0.6,0.4
				c0.2,0.1,0.4,0.1,0.7,0.1c0.2,0,0.4,0,0.6-0.1c0.2-0.1,0.4-0.1,0.5-0.2c0.1-0.1,0.3-0.2,0.4-0.2c0.1-0.1,0.2-0.2,0.2-0.2h0.1v0.9
				c-0.1,0.1-0.2,0.1-0.4,0.2c-0.1,0.1-0.2,0.1-0.4,0.2c-0.2,0.1-0.3,0.1-0.5,0.1C137.9,29.2,137.7,29.2,137.5,29.2z"/>
		</g>
		<g>
			<path class="st2" d="M141.3,29.1v-5h-1.9v-0.7h4.6v0.7h-1.9v5H141.3z"/>
		</g>
		<g>
			<path class="st2" d="M122.3,37.1c-0.4,0-0.7-0.1-1-0.2c-0.3-0.1-0.6-0.3-0.8-0.6c-0.2-0.2-0.4-0.6-0.5-0.9
				c-0.1-0.4-0.2-0.8-0.2-1.3c0-0.5,0.1-0.9,0.2-1.3c0.1-0.4,0.3-0.7,0.5-0.9c0.2-0.3,0.5-0.5,0.8-0.6c0.3-0.1,0.7-0.2,1-0.2
				c0.2,0,0.4,0,0.5,0c0.2,0,0.3,0.1,0.5,0.1c0.1,0,0.2,0.1,0.4,0.1c0.1,0.1,0.3,0.1,0.4,0.2v0.9H124c-0.1-0.1-0.2-0.1-0.3-0.2
				c-0.1-0.1-0.2-0.2-0.4-0.3c-0.1-0.1-0.3-0.1-0.5-0.2c-0.2-0.1-0.4-0.1-0.6-0.1c-0.2,0-0.5,0-0.7,0.1c-0.2,0.1-0.4,0.2-0.6,0.4
				c-0.2,0.2-0.3,0.4-0.4,0.7c-0.1,0.3-0.1,0.6-0.1,1c0,0.4,0,0.7,0.1,1c0.1,0.3,0.2,0.5,0.4,0.7c0.2,0.2,0.3,0.3,0.6,0.4
				c0.2,0.1,0.4,0.1,0.7,0.1c0.2,0,0.4,0,0.6-0.1c0.2-0.1,0.4-0.1,0.5-0.2c0.1-0.1,0.3-0.2,0.4-0.2c0.1-0.1,0.2-0.2,0.2-0.2h0.1v0.9
				c-0.1,0.1-0.2,0.1-0.4,0.2c-0.1,0.1-0.2,0.1-0.4,0.2c-0.2,0.1-0.3,0.1-0.5,0.1C122.7,37,122.5,37.1,122.3,37.1z"/>
		</g>
		<g>
			<path class="st2" d="M128.8,31.9c0.2,0.2,0.4,0.6,0.5,0.9c0.1,0.4,0.2,0.8,0.2,1.3c0,0.5-0.1,0.9-0.2,1.3
				c-0.1,0.4-0.3,0.7-0.5,0.9c-0.2,0.3-0.5,0.5-0.8,0.6c-0.3,0.1-0.7,0.2-1,0.2c-0.4,0-0.7-0.1-1-0.2c-0.3-0.1-0.6-0.3-0.8-0.6
				c-0.2-0.3-0.4-0.6-0.5-0.9c-0.1-0.4-0.2-0.8-0.2-1.3c0-0.5,0.1-0.9,0.2-1.3c0.1-0.4,0.3-0.7,0.5-0.9c0.2-0.3,0.5-0.4,0.8-0.6
				c0.3-0.1,0.7-0.2,1-0.2c0.4,0,0.7,0.1,1.1,0.2C128.3,31.5,128.6,31.7,128.8,31.9z M128.7,34.1c0-0.4,0-0.7-0.1-1
				c-0.1-0.3-0.2-0.5-0.3-0.7c-0.1-0.2-0.3-0.3-0.5-0.4c-0.2-0.1-0.5-0.1-0.7-0.1c-0.3,0-0.5,0-0.7,0.1c-0.2,0.1-0.4,0.2-0.5,0.4
				c-0.2,0.2-0.3,0.4-0.3,0.7c-0.1,0.3-0.1,0.6-0.1,1c0,0.8,0.2,1.3,0.5,1.7c0.3,0.4,0.7,0.6,1.3,0.6c0.5,0,1-0.2,1.3-0.6
				C128.5,35.4,128.7,34.9,128.7,34.1z"/>
		</g>
		<g>
			<path class="st2" d="M134.8,34.1c0,0.5-0.1,1-0.3,1.4c-0.2,0.4-0.5,0.7-0.8,1c-0.3,0.2-0.6,0.3-0.9,0.4c-0.3,0.1-0.7,0.1-1.1,0.1
				h-1.3v-5.7h1.3c0.5,0,1,0,1.3,0.1c0.3,0.1,0.6,0.2,0.8,0.3c0.4,0.2,0.7,0.6,0.9,1C134.7,33.1,134.8,33.5,134.8,34.1z M134,34.1
				c0-0.4-0.1-0.8-0.2-1.1c-0.1-0.3-0.4-0.6-0.6-0.7c-0.2-0.1-0.4-0.2-0.6-0.3c-0.2-0.1-0.5-0.1-0.9-0.1h-0.6v4.4h0.6
				c0.3,0,0.6,0,0.9-0.1c0.3-0.1,0.5-0.2,0.7-0.3c0.3-0.2,0.5-0.4,0.6-0.7C134,34.9,134,34.5,134,34.1z"/>
		</g>
		<g>
			<path class="st2" d="M135.7,37v-5.7h3.6v0.7h-2.8v1.6h2.6v0.7h-2.6v2.1h2.8V37H135.7z"/>
		</g>
	</g>
</g>
<g>
	<g>
		<circle class="st0" cx="21.8" cy="187.2" r="7.1"/>
	</g>
	<g>
		<path class="st2" d="M26.2,187.1c0.1,0,0.1,0,0.1-0.1c0,0,0.1-0.1,0.1-0.2c0-0.2,0-0.4-0.1-0.5c0-0.1-0.1-0.2-0.2-0.2l-0.3,0.1
			c0-0.1-0.1-0.3-0.1-0.4l0.3-0.1c0.1,0,0.1-0.1,0.1-0.1c0-0.1,0-0.1,0-0.2c-0.1-0.2-0.1-0.3-0.2-0.5c-0.1-0.1-0.2-0.1-0.3-0.1
			l-0.3,0.2c-0.1-0.1-0.1-0.2-0.2-0.3l0.2-0.2c0,0,0.1-0.1,0.1-0.1c0-0.1,0-0.1,0-0.2c-0.1-0.1-0.2-0.3-0.4-0.4
			c-0.1-0.1-0.2-0.1-0.3,0l-0.2,0.2c-0.1-0.1-0.2-0.2-0.3-0.2l0.2-0.3c0,0,0-0.1,0-0.2c0-0.1,0-0.1-0.1-0.1
			c-0.2-0.1-0.3-0.2-0.5-0.2c-0.1-0.1-0.2,0-0.3,0.1l-0.1,0.3c-0.1-0.1-0.3-0.1-0.4-0.1l0.1-0.3c0,0,0-0.1,0-0.1
			c0-0.1-0.1-0.1-0.1-0.1c-0.2,0-0.4-0.1-0.5-0.1c-0.1,0-0.2,0.1-0.2,0.2l0,0.3h0c-0.1,0-0.3,0-0.4,0l0-0.3c0-0.1-0.1-0.2-0.2-0.2
			c0,0,0,0,0,0c-0.2,0-0.4,0.1-0.5,0.1c-0.1,0-0.1,0-0.1,0.1c0,0,0,0.1,0,0.2l0.1,0.3c-0.1,0-0.3,0.1-0.4,0.1l-0.1-0.3
			c0-0.1-0.2-0.1-0.3-0.1c-0.2,0.1-0.3,0.2-0.5,0.3c-0.1,0-0.1,0.1-0.1,0.1c0,0.1,0,0.1,0,0.1l0.2,0.2c-0.1,0.1-0.2,0.2-0.3,0.3
			l-0.2-0.2c-0.1-0.1-0.2-0.1-0.3,0c-0.1,0.1-0.2,0.2-0.4,0.4c0,0-0.1,0.1,0,0.2c0,0.1,0,0.1,0.1,0.1l0.2,0.2
			c-0.1,0.1-0.2,0.2-0.2,0.3l-0.3-0.1c-0.1,0-0.2,0-0.3,0.1c-0.1,0.2-0.1,0.3-0.2,0.5c0,0.1,0,0.1,0,0.2c0,0,0.1,0.1,0.1,0.1
			l0.3,0.1c0,0.1-0.1,0.3-0.1,0.4l-0.3,0c-0.1,0-0.2,0.1-0.2,0.2c0,0.2,0,0.4,0,0.5c0,0.1,0.1,0.2,0.2,0.2l0,0l0.3,0
			c0,0.1,0,0.3,0,0.4l-0.3,0c0,0-0.1,0-0.1,0.1c0,0,0,0.1,0,0.2c0,0.2,0.1,0.3,0.1,0.5c0,0.1,0.2,0.2,0.3,0.1l0.3-0.1
			c0.1,0.1,0.1,0.3,0.2,0.4l-0.3,0.1c0,0-0.1,0.1-0.1,0.1c0,0.1,0,0.1,0,0.2c0.1,0.2,0.2,0.3,0.3,0.4c0.1,0.1,0.2,0.1,0.3,0l0.2-0.2
			c0.1,0.1,0.2,0.2,0.3,0.3l-0.2,0.2c0,0-0.1,0.1,0,0.1c0,0.1,0,0.1,0.1,0.2c0.1,0.1,0.3,0.2,0.4,0.3c0.1,0.1,0.2,0,0.3-0.1l0.1-0.2
			c0.1,0.1,0.2,0.1,0.4,0.2l-0.1,0.3c0,0,0,0.1,0,0.2c0,0.1,0.1,0.1,0.1,0.1c0.2,0.1,0.3,0.1,0.5,0.2c0.1,0,0.2,0,0.3-0.1l0.1-0.3
			c0.1,0,0.3,0,0.4,0.1l0,0.3c0,0.1,0,0.1,0.1,0.1c0,0,0.1,0.1,0.2,0.1c0.1,0,0.1,0,0.2,0c0.1,0,0.2,0,0.3,0c0.1,0,0.1,0,0.2-0.1
			c0,0,0-0.1,0-0.1l0-0.3c0.1,0,0.3,0,0.4-0.1l0.1,0.3c0,0.1,0.1,0.2,0.3,0.1c0.2-0.1,0.3-0.1,0.5-0.2c0.1,0,0.1-0.1,0.1-0.1
			c0,0,0-0.1,0-0.2l-0.1-0.3c0.1-0.1,0.2-0.1,0.4-0.2l0.2,0.2c0.1,0.1,0.2,0.1,0.3,0c0.1-0.1,0.3-0.2,0.4-0.3c0,0,0.1-0.1,0.1-0.2
			c0-0.1,0-0.1-0.1-0.1l-0.2-0.2c0.1-0.1,0.2-0.2,0.3-0.3l0.2,0.2c0.1,0.1,0.2,0,0.3-0.1c0.1-0.1,0.2-0.3,0.3-0.5c0-0.1,0-0.1,0-0.2
			c0-0.1-0.1-0.1-0.1-0.1l-0.3-0.1c0.1-0.1,0.1-0.3,0.2-0.4l0.3,0.1c0.1,0,0.2,0,0.3-0.1c0.1-0.2,0.1-0.3,0.1-0.5c0-0.1,0-0.1,0-0.2
			c0,0-0.1-0.1-0.1-0.1l-0.3,0c0-0.1,0-0.3,0-0.4H26.2z M25.5,187.1c0,1.9-1.6,3.5-3.5,3.5c-1.9,0-3.5-1.6-3.5-3.5s1.6-3.5,3.5-3.5
			C24,183.6,25.5,185.1,25.5,187.1z"/>
	</g>
</g>
<g>
	<g>
		<g>
			<g>
				<path class="st0" d="M36.8,48.2c14.9-15.9,34.9-25,56.2-25.7l0,0.3C49,24.2,14,61.4,13.6,107.4l-0.3,0
					C13.5,85.1,21.9,64.1,36.8,48.2z"/>
			</g>
			<g>
				<path class="st0" d="M13.6,107.5l-0.5,0v-0.1c0.2-22.3,8.6-43.3,23.5-59.2c14.9-15.9,34.9-25,56.3-25.7l0.1,0l0,0.5l-0.1,0
					C49,24.3,14.1,61.4,13.6,107.5L13.6,107.5z M13.3,107.3l0.1,0c0.5-46,35.4-83.1,79.5-84.6l0-0.1c-21.3,0.7-41.2,9.8-56.1,25.7
					C21.9,64.2,13.6,85.1,13.3,107.3z"/>
			</g>
		</g>
		<g>
			<g>
				<polygon class="st0" points="14.9,107 13.4,109.5 12,107 				"/>
			</g>
			<g>
				<path class="st0" d="M13.4,109.7l-1.6-2.8l3.2,0L13.4,109.7z M12.1,107l1.3,2.3l1.4-2.3L12.1,107z"/>
			</g>
		</g>
		<g>
			<g>
				<polygon class="st0" points="94.6,22.7 92.9,24.5 92.7,21 				"/>
			</g>
			<g>
				<path class="st0" d="M92.8,24.7l-0.2-4l2.1,1.9L92.8,24.7z M92.8,21.1l0.1,3.2l1.5-1.6L92.8,21.1z"/>
			</g>
		</g>
	</g>
	<g>
		<g>
			<g>
				<path class="st0" d="M53.9,60.6c7.9-8.4,18.5-13.3,29.9-13.6l0,0.2C60.3,47.9,41.8,67.6,41.5,92h-0.2
					C41.5,80.2,45.9,69,53.9,60.6z"/>
			</g>
			<g>
				<path class="st0" d="M41.7,92.2l-0.5,0l0-0.2c0.1-11.9,4.6-23.1,12.5-31.5c8-8.5,18.6-13.3,30-13.7l0.2,0l0,0.5l-0.2,0
					C60.4,48,42,67.7,41.7,92L41.7,92.2z"/>
			</g>
		</g>
		<g>
			<g>
				<polygon class="st0" points="42.3,91.8 41.5,93.2 40.7,91.8 				"/>
			</g>
			<g>
				<path class="st0" d="M41.5,93.5l-1-1.9l2.1,0L41.5,93.5z M41,92l0.5,0.9L42,92L41,92z"/>
			</g>
		</g>
		<g>
			<g>
				<polygon class="st0" points="84.6,47 83.6,48 83.6,46.1 				"/>
			</g>
			<g>
				<path class="st0" d="M83.5,48.4l-0.1-2.7l1.4,1.3L83.5,48.4z M83.8,46.5l0,1.1l0.5-0.6L83.8,46.5z"/>
			</g>
		</g>
	</g>
	<g>
		<g>
			<g>
				<path class="st0" d="M64.8,73.3c3.3-3.5,7.7-5.5,12.4-5.7l0,0.1c-9.7,0.3-17.4,8.5-17.5,18.6h-0.1
					C59.7,81.4,61.5,76.8,64.8,73.3z"/>
			</g>
			<g>
				<path class="st0" d="M59.9,86.5l-0.4,0l0-0.2c0.1-4.9,1.9-9.6,5.2-13.2c3.3-3.5,7.8-5.6,12.5-5.7l0.2,0l0,0.4l-0.2,0
					c-9.6,0.3-17.2,8.4-17.4,18.5L59.9,86.5z"/>
			</g>
		</g>
		<g>
			<g>
				<polygon class="st0" points="60,86.2 59.7,86.8 59.3,86.2 				"/>
			</g>
			<g>
				<polygon class="st0" points="59.7,87.1 59.1,86 60.3,86.1 				"/>
			</g>
		</g>
		<g>
			<g>
				<polygon class="st0" points="77.5,67.6 77.2,68 77.1,67.3 				"/>
			</g>
			<g>
				<polygon class="st0" points="77,68.5 77,66.9 77.8,67.6 				"/>
			</g>
		</g>
	</g>
</g>
<g>
	<g>
		<g>
			<g>
				<path class="st0" d="M219.3,48.2c-14.9-15.9-34.9-25-56.2-25.7l0,0.3c44.1,1.4,79,38.5,79.5,84.6l0.3,0
					C242.6,85.1,234.2,64.1,219.3,48.2z"/>
			</g>
			<g>
				<path class="st0" d="M242.4,107.4c-0.5-46-35.4-83.1-79.4-84.5l-0.1,0l0-0.5l0.1,0c21.4,0.7,41.4,9.8,56.3,25.7
					c14.9,15.9,23.3,36.9,23.5,59.2v0.1L242.4,107.4L242.4,107.4z M219.2,48.3c-14.9-15.9-34.8-25-56.1-25.7l0,0.1
					c44,1.4,78.9,38.6,79.5,84.6l0.1,0C242.5,85.1,234.1,64.2,219.2,48.3z"/>
			</g>
		</g>
		<g>
			<g>
				<polygon class="st0" points="241.2,107 242.7,109.5 244.1,107 				"/>
			</g>
			<g>
				<path class="st0" d="M241,106.9l3.2,0l-1.6,2.8L241,106.9z M241.3,107.1l1.4,2.3l1.3-2.3L241.3,107.1z"/>
			</g>
		</g>
		<g>
			<g>
				<polygon class="st0" points="161.5,22.7 163.2,24.5 163.4,21 				"/>
			</g>
			<g>
				<path class="st0" d="M161.4,22.7l2.1-1.9l-0.2,4L161.4,22.7z M161.6,22.7l1.5,1.6l0.1-3.2L161.6,22.7z"/>
			</g>
		</g>
	</g>
	<g>
		<g>
			<g>
				<path class="st0" d="M202.2,60.6c-7.9-8.4-18.5-13.3-29.9-13.6l0,0.2c23.4,0.7,41.9,20.5,42.2,44.9h0.2
					C214.6,80.2,210.1,69,202.2,60.6z"/>
			</g>
			<g>
				<path class="st0" d="M214.4,92.2l0.5,0l0-0.2c-0.1-11.9-4.6-23.1-12.5-31.5c-8-8.5-18.6-13.3-30-13.7l-0.2,0l0,0.5l0.2,0
					c23.3,0.7,41.8,20.4,42,44.7L214.4,92.2z"/>
			</g>
		</g>
		<g>
			<g>
				<polygon class="st0" points="213.8,91.8 214.6,93.2 215.4,91.8 				"/>
			</g>
			<g>
				<path class="st0" d="M213.5,91.6l2.1,0l-1,1.9L213.5,91.6z M214.1,92l0.5,0.8l0.5-0.9L214.1,92z"/>
			</g>
		</g>
		<g>
			<g>
				<polygon class="st0" points="171.5,47 172.4,48 172.5,46.1 				"/>
			</g>
			<g>
				<path class="st0" d="M171.3,47l1.4-1.3l-0.1,2.7L171.3,47z M171.8,47l0.5,0.6l0-1.1L171.8,47z"/>
			</g>
		</g>
	</g>
	<g>
		<g>
			<g>
				<path class="st0" d="M191.3,73.3c-3.3-3.5-7.7-5.5-12.4-5.7l0,0.1c9.7,0.3,17.4,8.5,17.5,18.6h0.1
					C196.4,81.4,194.6,76.8,191.3,73.3z"/>
			</g>
			<g>
				<path class="st0" d="M196.2,86.5l0.4,0l0-0.2c-0.1-4.9-1.9-9.6-5.2-13.2c-3.3-3.5-7.8-5.6-12.5-5.7l-0.2,0l0,0.4l0.2,0
					c9.6,0.3,17.2,8.4,17.4,18.5L196.2,86.5z"/>
			</g>
		</g>
		<g>
			<g>
				<polygon class="st0" points="196.1,86.2 196.4,86.8 196.7,86.2 				"/>
			</g>
			<g>
				<polygon class="st0" points="196.4,87.1 197,86 195.8,86.1 				"/>
			</g>
		</g>
		<g>
			<g>
				<polygon class="st0" points="178.5,67.6 178.9,68 178.9,67.3 				"/>
			</g>
			<g>
				<polygon class="st0" points="179.1,68.5 179.1,66.9 178.3,67.6 				"/>
			</g>
		</g>
	</g>
</g>
<g>
	<g>
		<ellipse class="st3" cx="33.1" cy="113.6" rx="11.3" ry="11.2"/>
	</g>
	<g>
		<g>
			<path class="st5" d="M37.3,105.9c-1.5-0.9-3.2-1.1-4.8-0.6c-1.6,0.4-3,1.5-3.9,2.9c-1.6,2.7-0.9,6.2,1.5,8.1l-2.6,4.5
				c-0.3,0.4-0.1,1,0.4,1.3c0.2,0.1,0.5,0.2,0.7,0.1c0.2-0.1,0.5-0.2,0.6-0.4l2.6-4.5c1.3,0.5,2.6,0.6,3.9,0.2
				c1.6-0.4,3-1.5,3.9-2.9C41.3,111.5,40.3,107.6,37.3,105.9z M37.9,113.5c-0.6,1-1.6,1.8-2.7,2.1c-1.1,0.3-2.3,0.1-3.3-0.5
				c-2.1-1.2-2.8-3.9-1.6-6c0.6-1,1.5-1.7,2.7-2c1.1-0.3,2.3-0.1,3.4,0.4C38.4,108.7,39.1,111.4,37.9,113.5z"/>
		</g>
		<g>
			<path class="st5" d="M32.9,107.9c-1.1,0.3-2,1-2.4,1.8c-0.1,0.1,0,0.3,0.1,0.3c0.1,0,0.1,0,0.2,0c0.1,0,0.1-0.1,0.2-0.1
				c0.4-0.7,1.1-1.3,2.1-1.6c1-0.3,2.1-0.2,3,0.2c0.1,0.1,0.3,0,0.3-0.1c0.1-0.1,0-0.3-0.1-0.3C35.3,107.6,34.1,107.5,32.9,107.9z"
				/>
		</g>
	</g>
</g>
<g>
	<g>
		<circle class="st1" cx="44.1" cy="201.4" r="9.2"/>
	</g>
	<g>
		<g>
			<path class="st2" d="M47,195.6L47,195.6L47,195.6h-7.4v12h9.1v-10.7L47,195.6z M48.3,207.2H40V196h7l-0.2,1.3l1.5-0.2V207.2z"/>
		</g>
		<g>
			<g>
				<rect x="40.9" y="198.6" class="st2" width="6.3" height="0.4"/>
			</g>
			<g>
				<rect x="40.9" y="200.3" class="st2" width="6.3" height="0.4"/>
			</g>
			<g>
				<rect x="40.9" y="202" class="st2" width="6.3" height="0.4"/>
			</g>
			<g>
				<rect x="40.9" y="203.6" class="st2" width="6.3" height="0.4"/>
			</g>
		</g>
	</g>
</g>
<g>
	<g>
		<circle class="st0" cx="30.9" cy="59" r="13.2"/>
	</g>
	<g>
		<g>
			<path class="st2" d="M22.1,56.5v2.4h1.2v-2.4h1.2v6h-1.2V60h-1.2v2.5h-1.2v-6H22.1z"/>
		</g>
		<g>
			<path class="st2" d="M26.2,57.6h-1.1v-1.1h3.3v1.1h-1.1v4.9h-1.2V57.6z"/>
		</g>
		<g>
			<path class="st2" d="M32.7,60.4c0-0.6-0.1-1.3-0.1-2h0c-0.1,0.6-0.3,1.4-0.4,1.8l-0.5,2.2h-0.8l-0.5-2.1
				c-0.1-0.5-0.3-1.2-0.4-1.9h0c0,0.7-0.1,1.4-0.1,2l-0.1,2.1h-1l0.4-6h1.2l0.5,2.2c0.2,0.8,0.3,1.4,0.4,2.1h0
				c0.1-0.7,0.2-1.3,0.4-2.1l0.5-2.2h1.2l0.4,6h-1L32.7,60.4z"/>
		</g>
		<g>
			<path class="st2" d="M34.7,56.5h1.2v5h1.5v1h-2.7V56.5z"/>
		</g>
		<g>
			<path class="st2" d="M40.9,57.7h-1.5l-0.1,1c0.1,0,0.1,0,0.2,0c0.3,0,0.8,0.1,1.1,0.4c0.3,0.3,0.5,0.8,0.5,1.3c0,1.1-0.8,2-2,2
				c-0.4,0-0.9-0.1-1.1-0.2l0.2-0.9c0.2,0.1,0.5,0.2,0.8,0.2c0.6,0,0.9-0.4,0.9-1c0-0.8-0.6-1-1.3-1c-0.2,0-0.3,0-0.4,0l0.3-2.9h2.4
				V57.7z"/>
		</g>
	</g>
</g>
<g>
	<g>
		<ellipse class="st3" cx="96.9" cy="62" rx="12.8" ry="12.8"/>
	</g>
	<g>
		<g>
			<path class="st2" d="M89.1,58c0.4-0.1,1-0.2,1.6-0.2c0.9,0,1.7,0.1,2.2,0.6c0.5,0.4,0.7,1.1,0.7,1.8c0,0.9-0.3,1.5-0.7,1.9
				c-0.5,0.5-1.3,0.8-2,0.8c-0.1,0-0.2,0-0.3,0v3h-1.6V58z M90.7,61.6c0.1,0,0.2,0,0.3,0c0.8,0,1.1-0.6,1.1-1.3c0-0.7-0.3-1.3-1-1.3
				c-0.1,0-0.3,0-0.4,0.1V61.6z"/>
		</g>
		<g>
			<path class="st2" d="M96.1,57.8v3.2h1.6v-3.2h1.6v8h-1.6v-3.4h-1.6v3.4h-1.6v-8H96.1z"/>
		</g>
		<g>
			<path class="st2" d="M100.7,58c0.4-0.1,1-0.2,1.6-0.2c0.9,0,1.7,0.1,2.2,0.6c0.5,0.4,0.7,1.1,0.7,1.8c0,0.9-0.3,1.5-0.7,1.9
				c-0.5,0.5-1.3,0.8-2,0.8c-0.1,0-0.2,0-0.3,0v3h-1.6V58z M102.3,61.6c0.1,0,0.2,0,0.3,0c0.8,0,1.1-0.6,1.1-1.3
				c0-0.7-0.3-1.3-1-1.3c-0.1,0-0.3,0-0.4,0.1V61.6z"/>
		</g>
	</g>
</g>
<g>
	<g>
		<path class="st0" d="M42.2,100.8c0-0.4,0.3-0.7,0.6-0.7c0.3,0,0.6,0.3,0.6,0.7c0,0.4-0.3,0.7-0.6,0.7
			C42.5,101.5,42.2,101.2,42.2,100.8z"/>
	</g>
	<g>
		<path class="st0" d="M46.3,101.4c-0.1,0-0.4,0.1-0.7,0.1c-1,0-1.7-0.7-1.7-2c0-1.2,0.7-2.1,1.8-2.1c0.3,0,0.5,0.1,0.6,0.1
			l-0.1,0.8c-0.1,0-0.2-0.1-0.4-0.1c-0.5,0-0.8,0.5-0.8,1.2c0,0.7,0.3,1.2,0.8,1.2c0.2,0,0.3,0,0.4-0.1L46.3,101.4z"/>
	</g>
	<g>
		<path class="st0" d="M49.7,99.4c0,1.7-0.9,2.1-1.5,2.1c-1,0-1.5-0.8-1.5-2.1c0-1.4,0.8-2.1,1.5-2.1C49.1,97.4,49.7,98.2,49.7,99.4
			z M47.7,99.4c0,0.7,0.1,1.3,0.5,1.3c0.4,0,0.4-0.7,0.4-1.3c0-0.5-0.1-1.2-0.5-1.2C47.8,98.2,47.7,98.9,47.7,99.4z"/>
	</g>
	<g>
		<path class="st0" d="M50.3,98.7c0-0.4,0-0.8,0-1.2h0.9l0.1,0.5h0c0.2-0.3,0.5-0.5,1-0.5c0.4,0,0.7,0.2,0.9,0.5h0
			c0.1-0.2,0.3-0.3,0.4-0.4c0.2-0.1,0.4-0.1,0.6-0.1c0.7,0,1,0.6,1,1.5v2.5H54v-2.4c0-0.5,0-0.8-0.4-0.8c-0.2,0-0.3,0.1-0.4,0.4
			c0,0.1,0,0.2,0,0.3v2.5h-1.1v-2.5c0-0.3,0-0.7-0.4-0.7c-0.2,0-0.3,0.1-0.4,0.4c0,0.1,0,0.2,0,0.3v2.5h-1.1V98.7z"/>
	</g>
</g>
<g>
	<g>
		<circle class="st6" cx="69.1" cy="29.8" r="13.1"/>
	</g>
	<g>
		<g>
			<path class="st2" d="M64,33.1c-0.2,0.1-0.7,0.2-1.2,0.2c-2.1,0-3.1-1.7-3.1-4.1c0-3.1,1.7-4.3,3.3-4.3c0.6,0,1,0.1,1.1,0.2
				l-0.3,1.4c-0.2-0.1-0.4-0.2-0.8-0.2c-0.9,0-1.7,0.8-1.7,2.8c0,2,0.8,2.8,1.7,2.8c0.3,0,0.6-0.1,0.8-0.1L64,33.1z"/>
		</g>
		<g>
			<path class="st2" d="M68.4,26.7v2.8H71v1h-2.7v2.8h-1v-2.8h-2.7v-1h2.7v-2.8H68.4z"/>
		</g>
		<g>
			<path class="st2" d="M75.7,26.7v2.8h2.7v1h-2.7v2.8h-1v-2.8H72v-1h2.7v-2.8H75.7z"/>
		</g>
	</g>
</g>
<g>
	<g>
		<path class="st0" d="M16.2,132.7c-0.2,0.1-0.5,0.1-0.8,0.1c-1.4,0-2.1-1.2-2.1-2.7c0-2.1,1.2-2.9,2.2-2.9c0.4,0,0.6,0.1,0.7,0.1
			l-0.2,0.9c-0.1-0.1-0.3-0.1-0.5-0.1c-0.6,0-1.2,0.5-1.2,1.9c0,1.3,0.5,1.8,1.2,1.8c0.2,0,0.4,0,0.5-0.1L16.2,132.7z"/>
	</g>
	<g>
		<path class="st0" d="M19.1,128.5v1.8h1.8v0.7h-1.8v1.9h-0.7V131h-1.8v-0.7h1.8v-1.8H19.1z"/>
	</g>
	<g>
		<path class="st0" d="M23.9,128.5v1.8h1.8v0.7h-1.8v1.9h-0.7V131h-1.8v-0.7h1.8v-1.8H23.9z"/>
	</g>
</g>
<g>
	<g>
		<circle class="st6" cx="31.3" cy="152" r="10.6"/>
	</g>
	<g>
		<g>
			<path class="st2" d="M24.1,149h1.1v2.1h0c0.1-0.1,0.2-0.2,0.3-0.3c0.2-0.1,0.3-0.1,0.5-0.1c0.7,0,1,0.6,1,1.6v2.4h-1.1v-2.4
				c0-0.4-0.1-0.7-0.4-0.7c-0.2,0-0.3,0.1-0.4,0.4c0,0.1,0,0.2,0,0.3v2.5h-1.1V149z"/>
		</g>
		<g>
			<path class="st2" d="M29.2,149.6v1h0.8v0.8h-0.8v1.8c0,0.5,0.2,0.6,0.4,0.6c0.1,0,0.2,0,0.3,0l0,0.8c-0.1,0-0.4,0.1-0.7,0.1
				c-0.3,0-0.6-0.1-0.8-0.3c-0.2-0.2-0.3-0.5-0.3-1.1v-1.9h-0.5v-0.8h0.5V150L29.2,149.6z"/>
		</g>
		<g>
			<path class="st2" d="M31.7,149.6v1h0.8v0.8h-0.8v1.8c0,0.5,0.2,0.6,0.4,0.6c0.1,0,0.2,0,0.3,0l0,0.8c-0.1,0-0.4,0.1-0.7,0.1
				c-0.3,0-0.6-0.1-0.8-0.3c-0.2-0.2-0.3-0.5-0.3-1.1v-1.9h-0.5v-0.8h0.5V150L31.7,149.6z"/>
		</g>
		<g>
			<path class="st2" d="M33,151.9c0-0.5,0-0.9,0-1.3h0.9l0.1,0.5h0c0.2-0.3,0.5-0.5,0.8-0.5c0.9,0,1.2,1,1.2,2.1
				c0,1.4-0.6,2.1-1.3,2.1c-0.3,0-0.5-0.2-0.7-0.4h0v1.9H33V151.9z M34.1,153.2c0,0.1,0,0.3,0.1,0.3c0.1,0.2,0.2,0.3,0.3,0.3
				c0.4,0,0.5-0.6,0.5-1.2c0-0.8-0.2-1.2-0.5-1.2c-0.2,0-0.3,0.2-0.4,0.3c0,0.1,0,0.2,0,0.3V153.2z"/>
		</g>
		<g>
			<path class="st2" d="M36.7,151.4c0-0.4,0.3-0.7,0.6-0.7c0.3,0,0.6,0.3,0.6,0.7c0,0.4-0.2,0.7-0.6,0.7
				C37,152,36.7,151.8,36.7,151.4z M36.7,154c0-0.4,0.3-0.7,0.6-0.7c0.3,0,0.6,0.3,0.6,0.7c0,0.4-0.2,0.7-0.6,0.7
				C37,154.7,36.7,154.5,36.7,154z"/>
		</g>
	</g>
</g>
<g>
	<g>
		<path class="st0" d="M18.3,24.5h1.1v2.1h0c0.1-0.1,0.2-0.2,0.3-0.3c0.2-0.1,0.3-0.1,0.5-0.1c0.7,0,1,0.6,1,1.6v2.4h-1.1v-2.4
			c0-0.4-0.1-0.7-0.4-0.7c-0.2,0-0.3,0.1-0.4,0.4c0,0.1,0,0.2,0,0.3v2.5h-1.1V24.5z"/>
	</g>
	<g>
		<path class="st0" d="M23.3,25.1v1h0.8v0.8h-0.8v1.8c0,0.5,0.2,0.6,0.4,0.6c0.1,0,0.2,0,0.3,0l0,0.8c-0.1,0-0.4,0.1-0.7,0.1
			c-0.3,0-0.6-0.1-0.8-0.3c-0.2-0.2-0.3-0.5-0.3-1.1v-1.9h-0.5v-0.8h0.5v-0.7L23.3,25.1z"/>
	</g>
	<g>
		<path class="st0" d="M25.8,25.1v1h0.8v0.8h-0.8v1.8c0,0.5,0.2,0.6,0.4,0.6c0.1,0,0.2,0,0.3,0l0,0.8c-0.1,0-0.4,0.1-0.7,0.1
			c-0.3,0-0.6-0.1-0.8-0.3c-0.2-0.2-0.3-0.5-0.3-1.1v-1.9h-0.5v-0.8h0.5v-0.7L25.8,25.1z"/>
	</g>
	<g>
		<path class="st0" d="M27.1,27.4c0-0.5,0-0.9,0-1.3H28l0.1,0.5h0c0.2-0.3,0.5-0.5,0.8-0.5c0.9,0,1.2,1,1.2,2.1
			c0,1.4-0.6,2.1-1.3,2.1c-0.3,0-0.5-0.2-0.7-0.4h0v1.9h-1.1V27.4z M28.2,28.7c0,0.1,0,0.3,0.1,0.3c0.1,0.2,0.2,0.3,0.3,0.3
			c0.4,0,0.5-0.6,0.5-1.2c0-0.8-0.2-1.2-0.5-1.2c-0.2,0-0.3,0.2-0.4,0.3c0,0.1,0,0.2,0,0.3V28.7z"/>
	</g>
	<g>
		<path class="st0" d="M30.8,26.9c0-0.4,0.3-0.7,0.6-0.7c0.3,0,0.6,0.3,0.6,0.7c0,0.4-0.2,0.7-0.6,0.7
			C31.1,27.5,30.8,27.3,30.8,26.9z M30.8,29.5c0-0.4,0.3-0.7,0.6-0.7c0.3,0,0.6,0.3,0.6,0.7c0,0.4-0.2,0.7-0.6,0.7
			C31.1,30.2,30.8,29.9,30.8,29.5z"/>
	</g>
</g>
<g>
	<g>
		<ellipse class="st1" cx="67.8" cy="70.7" rx="8.7" ry="8.7"/>
	</g>
	<g>
		<g>
			<path class="st2" d="M71.3,70.9c-0.5,0-0.6,0.3-0.6,0.5c0,0.2,0,0.5,0.1,0.7c0,0.2,0.1,0.5,0.1,0.7c0,1-0.6,1.3-1.4,1.3h-0.2
				v-0.7h0.1c0.4,0,0.5-0.3,0.5-0.6c0-0.2,0-0.4,0-0.6c0-0.2,0-0.4,0-0.6c0-0.6,0.2-1,0.7-1.1v0c-0.5-0.1-0.7-0.5-0.7-1.1
				c0-0.2,0-0.3,0-0.5c0-0.2,0-0.4,0-0.6c0-0.3-0.1-0.6-0.5-0.6h-0.1V67h0.2c0.9,0,1.4,0.4,1.4,1.3c0,0.3,0,0.5-0.1,0.7
				c0,0.2-0.1,0.5-0.1,0.7c0,0.2,0.1,0.5,0.6,0.5V70.9z"/>
		</g>
	</g>
	<g>
		<g>
			<path class="st2" d="M63.7,70.2c0.5,0,0.6-0.3,0.6-0.5c0-0.2,0-0.5-0.1-0.7c0-0.2-0.1-0.5-0.1-0.7c0-0.9,0.5-1.3,1.4-1.3h0.2v0.7
				h-0.1c-0.3,0-0.5,0.3-0.5,0.6c0,0.2,0,0.4,0,0.6c0,0.2,0,0.4,0,0.5c0,0.6-0.2,1-0.7,1.1v0c0.5,0.1,0.7,0.5,0.7,1.1
				c0,0.2,0,0.4,0,0.6c0,0.2,0,0.4,0,0.6c0,0.3,0.1,0.6,0.5,0.6h0.1v0.7h-0.2c-0.7,0-1.4-0.3-1.4-1.3c0-0.3,0-0.5,0.1-0.7
				c0-0.2,0.1-0.5,0.1-0.7c0-0.2-0.1-0.5-0.6-0.5V70.2z"/>
		</g>
	</g>
</g>
<g>
	<g>
		<g>
			<path class="st2" d="M213.5,183h-2.2l0-0.1c0,0-0.2-1.2-0.8-2.1c-0.6-0.8-1-1.4-0.5-2.6c0.6-1.5,2.2-1.5,2.5-1.5
				c0.3,0,1.9,0.1,2.5,1.5c0.5,1.2,0.1,1.8-0.5,2.6c-0.7,0.9-0.8,2.1-0.8,2.1l0,0.1H213.5z M211.5,182.7h1.8
				c0.1-0.3,0.3-1.3,0.9-2.1c0.5-0.7,0.9-1.3,0.5-2.3c-0.5-1.3-2-1.4-2.2-1.4c-0.3,0-1.7,0.1-2.2,1.4c-0.4,1-0.1,1.6,0.5,2.3
				C211.3,181.4,211.5,182.3,211.5,182.7z"/>
		</g>
	</g>
	<g>
		<g>
			<path class="st2" d="M213.3,183.4h-1.7c-0.2,0-0.4-0.1-0.4-0.3c0-0.2,0.2-0.3,0.4-0.3h1.7c0.2,0,0.4,0.1,0.4,0.3
				C213.7,183.3,213.5,183.4,213.3,183.4z M211.5,183.1C211.5,183.1,211.5,183.1,211.5,183.1l1.8,0c0.1,0,0.1,0,0.1,0c0,0,0,0-0.1,0
				L211.5,183.1C211.5,183.1,211.5,183.1,211.5,183.1C211.5,183.1,211.5,183.1,211.5,183.1z"/>
		</g>
	</g>
	<g>
		<g>
			<path class="st2" d="M213.2,183.8h-1.4c-0.2,0-0.3-0.1-0.3-0.3c0-0.2,0.1-0.3,0.3-0.3h1.4c0.2,0,0.3,0.1,0.3,0.3
				C213.5,183.7,213.3,183.8,213.2,183.8z M211.7,183.5C211.7,183.5,211.7,183.5,211.7,183.5C211.7,183.5,211.7,183.6,211.7,183.5
				l1.4,0.1c0,0,0,0,0,0c0,0,0,0,0,0H211.7z"/>
		</g>
	</g>
	<g>
		<g>
			<path class="st2" d="M213,184.3h-1.1c-0.2,0-0.3-0.1-0.3-0.3c0-0.2,0.1-0.3,0.3-0.3h1.1c0.2,0,0.3,0.1,0.3,0.3
				C213.3,184.1,213.2,184.3,213,184.3z M213,183.9h-1.1l0,0.1L213,183.9L213,183.9z"/>
		</g>
	</g>
	<g>
		<g>
			<path class="st2" d="M212.9,184.6H212c-0.1,0-0.3-0.1-0.3-0.3c0-0.2,0.1-0.3,0.3-0.3h0.8c0.1,0,0.3,0.1,0.3,0.3
				C213.1,184.5,213,184.6,212.9,184.6z"/>
		</g>
	</g>
</g>
<g>
	<g>
		<g>
			<path class="st2" d="M16.8,168.8c-0.1,0-0.1,0-0.2,0c-0.1,0-0.2,0-0.2-0.1c-0.1-0.1-0.1-0.1-0.1-0.2l0-0.1c0,0-0.1,0-0.1,0l0,0.1
				c0,0.1-0.2,0.3-0.4,0.2c-0.2,0-0.3-0.1-0.4-0.1c-0.1,0-0.1-0.1-0.2-0.2c0-0.1,0-0.1,0-0.2l0-0.1c0,0-0.1,0-0.1,0l-0.1,0.1
				c-0.1,0.1-0.3,0.2-0.4,0.1c-0.1-0.1-0.2-0.2-0.4-0.3c-0.1-0.1-0.1-0.1-0.1-0.2c0-0.1,0-0.2,0.1-0.2l0.1-0.1c0,0,0,0-0.1-0.1
				l-0.1,0.1c-0.1,0.1-0.3,0.1-0.4-0.1c-0.1-0.1-0.2-0.2-0.2-0.4c0-0.1-0.1-0.2,0-0.2c0-0.1,0.1-0.1,0.1-0.2l0.1,0c0,0,0-0.1,0-0.1
				l-0.1,0c-0.1,0.1-0.3,0-0.4-0.2c0-0.2-0.1-0.3-0.1-0.4c0-0.1,0-0.2,0.1-0.2c0-0.1,0.1-0.1,0.2-0.1l0.1,0c0,0,0-0.1,0-0.1l-0.1,0
				l0,0c-0.2,0-0.3-0.1-0.3-0.3c0-0.1,0-0.3,0-0.4c0-0.1,0.1-0.3,0.3-0.3l0,0l0.1,0c0,0,0-0.1,0-0.1l-0.1,0c-0.1,0-0.1-0.1-0.2-0.1
				c0-0.1,0-0.2,0-0.2c0-0.1,0.1-0.3,0.2-0.4c0.1-0.1,0.3-0.2,0.4-0.1l0.1,0.1c0,0,0,0,0-0.1l-0.1-0.1c-0.1,0-0.1-0.1-0.1-0.2
				c0-0.1,0-0.2,0.1-0.2c0.1-0.1,0.2-0.2,0.3-0.3c0.1-0.1,0.3-0.1,0.4,0l0.1,0.1c0,0,0,0,0.1-0.1l-0.1-0.1c0-0.1-0.1-0.1,0-0.2
				c0-0.1,0.1-0.2,0.1-0.2c0.1-0.1,0.2-0.1,0.4-0.2c0.1-0.1,0.3,0,0.4,0.1l0,0.1c0,0,0.1,0,0.1,0l0-0.1c0-0.1,0-0.2,0-0.2
				c0-0.1,0.1-0.1,0.2-0.1c0.1,0,0.3-0.1,0.4-0.1l0,0c0.2,0,0.3,0.1,0.3,0.3l0,0.1c0,0,0.1,0,0.1,0l0-0.1c0-0.2,0.1-0.3,0.3-0.3
				c0.2,0,0.3,0,0.5,0.1c0.1,0,0.2,0.1,0.2,0.1c0,0.1,0.1,0.1,0,0.2l0,0.1c0,0,0.1,0,0.1,0l0-0.1c0.1-0.1,0.2-0.2,0.4-0.2
				c0.1,0.1,0.3,0.1,0.4,0.2c0.1,0,0.1,0.1,0.1,0.2c0,0.1,0,0.2,0,0.2l-0.1,0.1c0,0,0,0,0.1,0.1l0.1-0.1c0.1-0.1,0.3-0.1,0.4,0
				c0.1,0.1,0.2,0.2,0.3,0.3c0.1,0.1,0.1,0.1,0.1,0.2c0,0.1,0,0.1-0.1,0.2l-0.1,0.1c0,0,0,0,0.1,0.1l0.1-0.1c0.1-0.1,0.3,0,0.4,0.1
				c0.1,0.1,0.1,0.3,0.2,0.4c0,0.1,0,0.2,0,0.2c0,0.1-0.1,0.1-0.2,0.1l-0.1,0c0,0,0,0.1,0,0.1l0.2,0c0.1,0,0.3,0.1,0.3,0.2
				c0,0.2,0,0.3,0,0.4c0,0.1,0,0.2-0.1,0.2c0,0.1-0.1,0.1-0.2,0.1h-0.1c0,0,0,0.1,0,0.1l0.1,0c0.1,0,0.1,0.1,0.2,0.1
				c0,0.1,0.1,0.1,0.1,0.2c0,0.2-0.1,0.3-0.1,0.4c0,0.2-0.2,0.2-0.4,0.2l-0.1,0c0,0,0,0.1,0,0.1l0.1,0c0.1,0,0.1,0.1,0.1,0.2
				c0,0.1,0,0.2,0,0.2c-0.1,0.1-0.2,0.3-0.2,0.4c-0.1,0.1-0.3,0.2-0.4,0.1l-0.1-0.1c0,0,0,0-0.1,0.1l0.1,0.1c0.1,0,0.1,0.1,0.1,0.2
				c0,0.1,0,0.2-0.1,0.2c-0.1,0.1-0.2,0.2-0.3,0.3c-0.1,0.1-0.3,0.1-0.4-0.1l-0.1-0.1c0,0-0.1,0-0.1,0l0,0.1c0,0.1,0,0.1,0,0.2
				c0,0.1-0.1,0.1-0.2,0.2c-0.1,0.1-0.3,0.1-0.4,0.2c-0.2,0-0.3,0-0.4-0.2l0-0.1c0,0-0.1,0-0.1,0l0,0.1c0,0.1,0,0.1-0.1,0.2
				c-0.1,0.1-0.1,0.1-0.2,0.1C17,168.8,16.9,168.8,16.8,168.8z M16.1,168l0.1,0c0.1,0,0.2,0,0.3,0.1l0.1,0l0,0.4c0.2,0,0.3,0,0.4,0
				l0-0.4l0.1,0c0.1,0,0.2,0,0.3-0.1l0.1,0l0.1,0.4c0.2,0,0.3-0.1,0.4-0.1l-0.2-0.4l0.1-0.1c0.1,0,0.2-0.1,0.3-0.2l0.1-0.1l0.2,0.3
				c0.1-0.1,0.2-0.2,0.3-0.3l-0.3-0.3l0.1-0.1c0.1-0.1,0.2-0.2,0.2-0.3l0.1-0.1l0.3,0.2c0.1-0.1,0.2-0.2,0.2-0.4l-0.3-0.2l0.1-0.1
				c0-0.1,0.1-0.2,0.1-0.3c-0.4,1.1-1.5,1.9-2.8,1.9c-1.6,0-2.9-1.3-2.9-2.9c0-1.6,1.3-2.9,2.9-2.9s2.9,1.3,2.9,2.9
				c0,0.1,0,0.2,0,0.3c0-0.1,0-0.2,0-0.3l0-0.1h0.4c0-0.1,0-0.3,0-0.4l-0.4,0.1l0-0.1c0-0.1,0-0.2-0.1-0.3l0-0.1L20,164
				c0-0.1-0.1-0.3-0.2-0.4l-0.3,0.2l-0.1-0.1c-0.1-0.1-0.1-0.2-0.2-0.3l-0.1-0.1l0.3-0.2c-0.1-0.1-0.2-0.2-0.3-0.3l-0.3,0.3
				l-0.1-0.1c-0.1-0.1-0.2-0.1-0.3-0.2l-0.1-0.1l0.2-0.3c-0.1-0.1-0.3-0.1-0.4-0.2l-0.2,0.4l-0.1,0c-0.1,0-0.2-0.1-0.3-0.1l-0.1,0
				l0.1-0.4c-0.1,0-0.3-0.1-0.4-0.1l0,0.4l-0.1,0c-0.1,0-0.1,0-0.1,0c-0.1,0-0.2,0-0.2,0l-0.1,0l0-0.4c-0.2,0-0.3,0-0.4,0.1l0.1,0.4
				l-0.1,0c-0.1,0-0.2,0.1-0.3,0.1l-0.1,0.1l-0.2-0.4c-0.1,0.1-0.3,0.1-0.4,0.2l0.2,0.3l-0.1,0.1c-0.1,0.1-0.2,0.1-0.3,0.2l-0.1,0.1
				l-0.3-0.3c-0.1,0.1-0.2,0.2-0.3,0.3l0.3,0.2l-0.1,0.1c-0.1,0.1-0.1,0.2-0.2,0.3l-0.1,0.1l-0.3-0.2c-0.1,0.1-0.1,0.3-0.2,0.4
				l0.4,0.1l0,0.1c0,0.1-0.1,0.2-0.1,0.3l0,0.1l-0.4-0.1c0,0.2,0,0.3,0,0.4l0.2,0l0.1,0l0,0.1c0,0.1,0,0.2,0,0.3l0,0.1l-0.4,0.1
				c0,0.1,0.1,0.3,0.1,0.4l0.4-0.1l0,0.1c0,0.1,0.1,0.2,0.1,0.3l0.1,0.1l-0.3,0.2c0.1,0.1,0.2,0.2,0.2,0.4l0.3-0.2l0.1,0.1
				c0.1,0.1,0.1,0.2,0.2,0.2l0.1,0.1l-0.3,0.3c0.1,0.1,0.2,0.2,0.3,0.3l0.2-0.3l0.1,0.1c0.1,0.1,0.2,0.1,0.3,0.2l0.1,0.1l-0.2,0.3
				c0.1,0.1,0.3,0.1,0.4,0.1L16.1,168z M16.8,162.5c-1.5,0-2.7,1.2-2.7,2.7c0,1.5,1.2,2.7,2.7,2.7c1.5,0,2.7-1.2,2.7-2.7
				C19.5,163.7,18.3,162.5,16.8,162.5z M19.7,166l0.4,0.1c0-0.1,0.1-0.3,0.1-0.4l-0.4-0.1l0-0.1C19.7,165.7,19.7,165.9,19.7,166
				L19.7,166z"/>
		</g>
	</g>
	<g>
		<g>
			<path class="st2" d="M19.5,169.5c0,0-0.1,0-0.1,0c-0.1,0-0.1,0-0.2-0.1c0,0,0-0.1-0.1-0.1c0,0.1-0.1,0.1-0.2,0.1l-0.1,0
				c-0.1,0-0.2-0.1-0.3-0.1c-0.1,0-0.1-0.1-0.1-0.1c0,0,0-0.1,0-0.1c-0.1,0.1-0.2,0.1-0.3,0c-0.1-0.1-0.2-0.1-0.3-0.2
				c-0.1,0-0.1-0.1-0.1-0.2c0,0,0-0.1,0-0.1c-0.1,0-0.2,0-0.3-0.1c-0.1-0.1-0.1-0.2-0.2-0.3c0-0.1,0-0.1,0-0.2c0,0,0-0.1,0.1-0.1h0
				c-0.1,0-0.2-0.1-0.2-0.2c0-0.1-0.1-0.2-0.1-0.3c0-0.1,0-0.1,0-0.2c0,0,0.1-0.1,0.1-0.1c-0.1,0-0.2-0.1-0.2-0.2c0-0.1,0-0.2,0-0.3
				c0-0.1,0.1-0.2,0.2-0.2c0,0-0.1-0.1-0.1-0.1c0-0.1,0-0.1,0-0.2c0-0.1,0.1-0.2,0.1-0.3c0-0.1,0.2-0.2,0.3-0.1c0,0,0-0.1,0-0.1
				c0-0.1,0-0.1,0.1-0.2c0.1-0.1,0.1-0.2,0.2-0.2c0.1-0.1,0.2-0.1,0.3,0c0,0,0-0.1,0-0.1c0-0.1,0.1-0.1,0.1-0.2
				c0.1-0.1,0.2-0.1,0.3-0.2c0.1,0,0.2,0,0.3,0.1c0,0,0-0.1,0-0.1c0-0.1,0.1-0.1,0.2-0.1c0.1,0,0.2,0,0.3-0.1c0.1,0,0.2,0.1,0.3,0.1
				c0-0.1,0.1-0.2,0.2-0.2c0.1,0,0.2,0,0.3,0c0.1,0,0.1,0.1,0.2,0.1c0,0,0,0.1,0,0.1c0.1-0.1,0.2-0.1,0.3-0.1c0.1,0,0.2,0.1,0.3,0.1
				c0.1,0,0.1,0.1,0.1,0.2c0,0,0,0.1,0,0.1c0.1,0,0.2,0,0.3,0c0.1,0.1,0.1,0.1,0.2,0.2c0,0.1,0.1,0.1,0.1,0.2c0,0,0,0.1,0,0.1
				c0.1,0,0.2,0,0.3,0.1c0.1,0.1,0.1,0.2,0.1,0.3c0,0.1,0,0.1,0,0.2c0,0,0,0.1-0.1,0.1c0.1,0,0.2,0.1,0.2,0.2c0,0.1,0,0.2,0,0.3
				c0,0.1,0,0.1-0.1,0.2c0,0-0.1,0-0.1,0.1c0,0,0.1,0,0.1,0.1c0,0.1,0.1,0.1,0.1,0.2c0,0.1,0,0.2-0.1,0.3c0,0.1-0.1,0.2-0.2,0.2
				c0,0,0,0.1,0.1,0.1c0,0.1,0,0.1,0,0.2c0,0.1-0.1,0.2-0.2,0.3c-0.1,0.1-0.2,0.1-0.3,0.1c0,0,0,0.1,0,0.1c0,0.1,0,0.1-0.1,0.2
				c-0.1,0.1-0.2,0.1-0.2,0.2c-0.1,0.1-0.2,0.1-0.3,0c0,0,0,0.1,0,0.1c0,0.1-0.1,0.1-0.1,0.2c-0.1,0-0.2,0.1-0.3,0.1l-0.1,0
				c-0.1,0-0.2,0-0.2-0.1c0,0,0,0.1,0,0.1c0,0.1-0.1,0.1-0.2,0.1C19.6,169.5,19.5,169.5,19.5,169.5z M19.4,169.2c0.1,0,0.1,0,0.2,0
				l0-0.2c-0.1,0-0.1,0-0.2,0L19.4,169.2z M18.7,169.1c0.1,0,0.1,0,0.2,0.1l0-0.2c-0.1,0-0.1,0-0.2-0.1L18.7,169.1z M20.1,168.9
				l0,0.2c0.1,0,0.1,0,0.2-0.1l-0.1-0.2C20.2,168.9,20.2,168.9,20.1,168.9z M18,168.7c0.1,0,0.1,0.1,0.2,0.1l0.1-0.2
				c0,0-0.1-0.1-0.1-0.1L18,168.7z M20.7,168.6l0.1,0.2c0.1,0,0.1-0.1,0.2-0.1l-0.1-0.1C20.8,168.5,20.8,168.6,20.7,168.6z
				 M19.5,165.2c-1,0-1.8,0.8-1.8,1.8c0,1,0.8,1.8,1.8,1.8c1,0,1.8-0.8,1.8-1.8C21.3,166,20.5,165.2,19.5,165.2z M17.6,168.1
				c0,0.1,0.1,0.1,0.1,0.2l0.2-0.1c0,0-0.1-0.1-0.1-0.2L17.6,168.1z M21.2,168.1l0.2,0.1c0-0.1,0.1-0.1,0.1-0.2l-0.2-0.1
				C21.2,168,21.2,168.1,21.2,168.1z M17.3,167.4c0,0.1,0,0.1,0.1,0.2l0.2-0.1c0-0.1,0-0.1,0-0.2L17.3,167.4z M21.5,167.5l0.2,0.1
				c0-0.1,0-0.1,0.1-0.2l-0.2,0C21.5,167.4,21.5,167.5,21.5,167.5z M17.2,166.7c0,0.1,0,0.1,0,0.2l0.2,0c0-0.1,0-0.1,0-0.2
				L17.2,166.7z M21.5,166.8h0.2c0-0.1,0-0.1,0-0.2l-0.2,0C21.5,166.7,21.5,166.8,21.5,166.8z M17.4,166.2l0.2,0.1
				c0-0.1,0-0.1,0.1-0.2l-0.2-0.1C17.4,166,17.4,166.1,17.4,166.2z M21.3,166c0,0.1,0.1,0.1,0.1,0.2l0.2-0.1c0-0.1-0.1-0.1-0.1-0.2
				L21.3,166z M17.7,165.5l0.2,0.1c0,0,0.1-0.1,0.1-0.1l-0.1-0.2C17.8,165.4,17.8,165.5,17.7,165.5z M20.9,165.5
				c0,0,0.1,0.1,0.1,0.1l0.2-0.1c0-0.1-0.1-0.1-0.2-0.2L20.9,165.5z M18.3,165l0.1,0.2c0,0,0.1-0.1,0.2-0.1l-0.1-0.2
				C18.4,165,18.3,165,18.3,165z M20.4,165.1c0.1,0,0.1,0.1,0.2,0.1l0.1-0.2c-0.1,0-0.1-0.1-0.2-0.1L20.4,165.1z M19,164.8L19,165
				c0.1,0,0.1,0,0.2,0l0-0.2C19.1,164.7,19,164.7,19,164.8z M19.7,164.9c0.1,0,0.1,0,0.2,0l0.1-0.2c-0.1,0-0.1,0-0.2,0L19.7,164.9z"
				/>
		</g>
	</g>
</g>
<g>
	<g>
		<g>
			<path class="st2" d="M52.5,50.9c-0.3,0-0.6-0.3-0.6-0.6c0-0.4,0.3-0.6,0.6-0.6c0.4,0,0.6,0.3,0.6,0.6
				C53.1,50.7,52.8,50.9,52.5,50.9z M52.5,49.9c-0.2,0-0.3,0.1-0.3,0.4c0,0.2,0.1,0.4,0.3,0.4c0.2,0,0.3-0.1,0.3-0.4
				C52.8,50.1,52.7,49.9,52.5,49.9z M53,49.3H52l0-0.3c-0.1-0.5,0.1-1,0.5-1.5c0.3-0.4,0.5-0.7,0.5-1c0-0.4-0.3-0.5-0.6-0.5
				c-0.3,0-0.5,0.1-0.7,0.2l-0.2,0.1l-0.3-0.8l0.1-0.1c0.3-0.2,0.8-0.3,1.2-0.3c1,0,1.5,0.7,1.5,1.3c0,0.6-0.3,1-0.7,1.5
				c-0.3,0.4-0.4,0.7-0.4,1.1L53,49.3z M52.3,49h0.3l0,0c0-0.5,0.1-0.9,0.5-1.3c0.4-0.5,0.7-0.8,0.7-1.3c0-0.5-0.3-1-1.2-1
				c-0.3,0-0.7,0.1-1,0.2l0.1,0.2c0.2-0.1,0.5-0.2,0.7-0.2c0.6,0,0.9,0.3,0.9,0.8c0,0.4-0.2,0.7-0.6,1.2
				C52.4,48.1,52.3,48.5,52.3,49L52.3,49z"/>
		</g>
	</g>
</g>
<g>
	<g>
		<g>
			<path class="st2" d="M42.8,27.5c-0.3,0-0.6-0.3-0.6-0.6c0-0.4,0.3-0.6,0.6-0.6c0.3,0,0.6,0.3,0.6,0.6
				C43.5,27.3,43.2,27.5,42.8,27.5z M42.9,26.6c-0.2,0-0.3,0.1-0.3,0.4c0,0.2,0.1,0.4,0.3,0.4c0.2,0,0.3-0.1,0.3-0.4
				C43.2,26.7,43.1,26.6,42.9,26.6z M43.3,25.9h-0.8l-0.1-4.1h1.1L43.3,25.9z M42.7,25.6H43l0.1-3.6h-0.5L42.7,25.6z"/>
		</g>
	</g>
</g>
<g>
	<g>
		<g>
			<path class="st2" d="M91.2,37.9v-1.4c-1-0.5-1.6-1.4-1.6-2.3c0-1.5,1.5-2.7,3.3-2.7c0.9,0,1.8,0.3,2.4,0.9l0.2,0.2l-0.3,0.1
				c-1.1,0.4-1.8,1.2-1.8,2.2c0,0.6,0.3,1.2,0.8,1.6l0.2,0.2l-0.3,0.1c-0.7,0.2-1.5,0.3-2.2,0.1L91.2,37.9z M92.9,31.8
				c-1.7,0-3,1.1-3,2.4c0,0.8,0.6,1.6,1.5,2.1l0.1,0v0.6l0.4-0.5l0.1,0c0.6,0.2,1.3,0.1,1.9,0c-0.4-0.5-0.7-1-0.7-1.6
				c0-1,0.7-1.9,1.7-2.4C94.3,32,93.6,31.8,92.9,31.8z"/>
		</g>
	</g>
	<g>
		<g>
			<path class="st2" d="M98.2,38.5l-0.8-1.1c-0.3,0.1-0.6,0.1-0.9,0.1c-1.8,0-3.3-1.2-3.3-2.7c0-1.5,1.5-2.7,3.3-2.7
				c1.8,0,3.3,1.2,3.3,2.7c0,1-0.6,1.8-1.6,2.3V38.5z M97.5,37l0.4,0.5v-0.6l0.1,0c0.9-0.4,1.5-1.2,1.5-2.1c0-1.3-1.4-2.4-3-2.4
				c-1.7,0-3,1.1-3,2.4c0,1.3,1.4,2.4,3,2.4c0.3,0,0.6,0,0.9-0.1L97.5,37z"/>
		</g>
	</g>
</g>
<g class="st7">
	<g>
		<defs>
			<path id="SVGID_1_" d="M217.2,291.7c0,6.2-39.5,11.2-88.2,11.2c-48.7,0-88.2-5-88.2-11.2c0-6.2,39.5-11.2,88.2-11.2
				C177.7,280.5,217.2,285.6,217.2,291.7z"/>
		</defs>
		<clipPath id="SVGID_2_">
			<use xlink:href="#SVGID_1_"  style="overflow:visible;"/>
		</clipPath>
		<rect x="40.7" y="280.5" class="st8" width="176.5" height="22.4"/>
		<path class="st8" d="M192.6,291.7c0,5.6-1.8,11-5,15.9v-3.7H70.4v3.7c-3.2-4.9-5-10.2-5-15.9s1.8-11,5-15.9v3.7h117.2v-3.7
			C190.8,280.7,192.6,286.1,192.6,291.7z"/>
		<path class="st9" d="M189.4,291.7c0,5.3-1.7,10.4-4.7,15.1v-2.9H73.3v2.9c-3.1-4.6-4.7-9.7-4.7-15.1c0-5.3,1.7-10.4,4.7-15.1v2.9
			h111.3v-2.9C187.7,281.3,189.4,286.4,189.4,291.7z"/>
		<path class="st10" d="M186.2,291.7c0,5.1-1.6,9.9-4.5,14.3v-2.1H76.3v2.1c-2.9-4.4-4.5-9.2-4.5-14.3s1.6-9.9,4.5-14.3v2.1h105.4
			v-2.1C184.6,281.9,186.2,286.7,186.2,291.7z"/>
		<path class="st11" d="M183,291.7c0,4.8-1.5,9.3-4.2,13.5v-1.3H79.2v1.3c-2.7-4.1-4.2-8.7-4.2-13.5c0-4.8,1.5-9.3,4.2-13.5v1.3
			h99.5v-1.3C181.4,282.4,183,287,183,291.7z"/>
		<path class="st12" d="M179.7,291.7c0,4.5-1.4,8.8-4,12.7v-0.5H82.2v0.5c-2.6-3.9-4-8.2-4-12.7c0-4.5,1.4-8.8,4-12.7v0.5h93.6v-0.5
			C178.3,283,179.7,287.2,179.7,291.7z"/>
		<path class="st13" d="M176.5,291.7c0,4.2-1.3,8.2-3.7,11.9c-1.2,1.8-2.7,3.6-4.4,5.2v-4.9H89.5v4.9c-1.7-1.6-3.2-3.4-4.4-5.2
			c-2.4-3.6-3.7-7.7-3.7-11.9c0-4.2,1.3-8.2,3.7-11.9c1.2-1.8,2.7-3.6,4.4-5.2v4.9h78.9v-4.9c1.7,1.6,3.2,3.4,4.4,5.2
			C175.2,283.5,176.5,287.5,176.5,291.7z"/>
		<path class="st14" d="M173.3,291.7c0,3.9-1.2,7.7-3.5,11.1c-1.1,1.7-2.5,3.3-4.1,4.8v-3.7H92.2v3.7c-1.6-1.5-3-3.1-4.1-4.8
			c-2.2-3.4-3.5-7.1-3.5-11.1c0-3.9,1.2-7.7,3.5-11.1c1.1-1.7,2.5-3.3,4.1-4.8v3.7h73.6v-3.7c1.6,1.5,3,3.1,4.1,4.8
			C172.1,284.1,173.3,287.8,173.3,291.7z"/>
		<path class="st15" d="M170.1,291.7c0,7.3-4.6,13.9-12.1,18.6v-6.5H99.9v6.5c-7.4-4.8-12.1-11.4-12.1-18.6
			c0-7.3,4.6-13.9,12.1-18.6v6.5h58.2v-6.5C165.5,277.9,170.1,284.4,170.1,291.7z"/>
		<path class="st16" d="M166.9,291.7c0,6.7-4.2,12.8-11.1,17.2v-5h-53.7v5c-6.9-4.4-11.1-10.5-11.1-17.2c0-6.7,4.2-12.8,11.1-17.2v5
			h53.7v-5C162.7,278.9,166.9,285,166.9,291.7z"/>
		<path class="st17" d="M163.7,291.7c0,6.1-3.9,11.7-10.2,15.7v-3.6h-49.1v3.6c-6.3-4-10.2-9.6-10.2-15.7c0-6.1,3.9-11.7,10.2-15.7
			v3.6h49.1V276C159.8,280,163.7,285.6,163.7,291.7z"/>
		<path class="st18" d="M160.5,291.7c0,5.6-3.5,10.6-9.2,14.3v-2.1h-44.6v2.1c-5.7-3.7-9.2-8.7-9.2-14.3c0-5.6,3.5-10.6,9.2-14.3
			v2.1h44.6v-2.1C157,281.1,160.5,286.2,160.5,291.7z"/>
		<ellipse class="st19" cx="129" cy="291.7" rx="28.3" ry="18.2"/>
		<ellipse class="st19" cx="129" cy="291.7" rx="25.1" ry="16.1"/>
		<ellipse class="st20" cx="129" cy="291.7" rx="23.2" ry="14.9"/>
		<ellipse class="st21" cx="129" cy="291.7" rx="21.3" ry="13.6"/>
		<ellipse class="st22" cx="129" cy="291.7" rx="19.3" ry="12.4"/>
		<ellipse class="st23" cx="129" cy="291.7" rx="17.4" ry="11.1"/>
		<ellipse class="st24" cx="129" cy="291.7" rx="15.5" ry="9.9"/>
		<ellipse class="st25" cx="129" cy="291.7" rx="13.5" ry="8.7"/>
		<path class="st25" d="M140.6,291.7c0,4.1-5.2,7.4-11.6,7.4c-6.4,0-11.6-3.3-11.6-7.4c0-4.1,5.2-7.4,11.6-7.4
			C135.4,284.3,140.6,287.6,140.6,291.7z"/>
		<ellipse class="st26" cx="129" cy="291.7" rx="9.7" ry="6.2"/>
		<ellipse class="st26" cx="129" cy="291.7" rx="7.7" ry="5"/>
		<ellipse class="st26" cx="129" cy="291.7" rx="5.8" ry="3.7"/>
		<ellipse class="st26" cx="129" cy="291.7" rx="3.9" ry="2.5"/>
		<ellipse class="st26" cx="129" cy="291.7" rx="1.9" ry="1.2"/>
	</g>
</g>
<g>
	<path class="st2" d="M165.1,167.1"/>
</g>
<g>
	<g>
		<circle class="st6" cx="226.4" cy="67.8" r="18.3"/>
	</g>
	<g>
		<g>
			<path class="st2" d="M210,63.7h1.2v4.1c0,1.7-0.8,2-1.7,2c-0.2,0-0.5,0-0.6-0.1l0.1-1c0.1,0,0.2,0,0.4,0c0.3,0,0.6-0.1,0.6-0.9
				V63.7z"/>
		</g>
		<g>
			<path class="st2" d="M212.9,68.3l-0.3,1.4h-1.1l1.3-6h1.4l1.2,6h-1.1l-0.3-1.4H212.9z M213.8,67.4l-0.2-1.3
				c-0.1-0.4-0.1-1-0.2-1.4h0c-0.1,0.4-0.2,1-0.2,1.4l-0.2,1.3H213.8z"/>
		</g>
		<g>
			<path class="st2" d="M216.4,69.7l-1.3-6h1.3l0.4,2.6c0.1,0.6,0.2,1.4,0.3,2.1h0c0.1-0.7,0.2-1.4,0.3-2.1l0.4-2.6h1.3l-1.4,6
				H216.4z"/>
		</g>
		<g>
			<path class="st2" d="M220.1,68.3l-0.3,1.4h-1.1l1.3-6h1.4l1.2,6h-1.1l-0.3-1.4H220.1z M221.1,67.4l-0.2-1.3
				c-0.1-0.4-0.1-1-0.2-1.4h0c-0.1,0.4-0.1,1-0.2,1.4l-0.2,1.3H221.1z"/>
		</g>
		<g>
			<path class="st2" d="M224.1,68.5c0.2,0.1,0.7,0.2,1,0.2c0.5,0,0.8-0.3,0.8-0.7c0-0.4-0.3-0.6-0.8-1c-0.8-0.5-1.1-1.1-1.1-1.7
				c0-1,0.6-1.8,1.9-1.8c0.4,0,0.8,0.1,0.9,0.2l-0.2,1c-0.2-0.1-0.4-0.2-0.8-0.2c-0.5,0-0.7,0.3-0.7,0.6c0,0.4,0.2,0.5,0.8,0.9
				c0.8,0.5,1.1,1.1,1.1,1.7c0,1.1-0.8,1.8-2,1.8c-0.5,0-0.9-0.1-1.1-0.2L224.1,68.5z"/>
		</g>
		<g>
			<path class="st2" d="M230.4,69.6c-0.2,0.1-0.5,0.1-0.9,0.1c-1.5,0-2.3-1.3-2.3-3c0-2.3,1.2-3.1,2.4-3.1c0.4,0,0.7,0.1,0.8,0.2
				l-0.2,1c-0.1-0.1-0.3-0.1-0.5-0.1c-0.7,0-1.2,0.6-1.2,2c0,1.4,0.5,2,1.2,2c0.2,0,0.4,0,0.6-0.1L230.4,69.6z"/>
		</g>
		<g>
			<path class="st2" d="M230.8,63.8c0.4-0.1,0.8-0.1,1.3-0.1c0.6,0,1.2,0.1,1.6,0.4c0.4,0.3,0.5,0.7,0.5,1.2c0,0.6-0.3,1.2-0.9,1.5
				v0c0.4,0.2,0.6,0.5,0.7,1.2c0.1,0.7,0.3,1.4,0.4,1.6h-1.2c-0.1-0.2-0.2-0.8-0.3-1.4c-0.1-0.7-0.3-0.9-0.7-0.9h-0.2v2.4h-1.2V63.8
				z M231.9,66.4h0.2c0.5,0,0.8-0.4,0.8-0.9c0-0.5-0.2-0.9-0.7-0.9c-0.1,0-0.2,0-0.3,0V66.4z"/>
		</g>
		<g>
			<path class="st2" d="M235.9,63.7v6h-1.2v-6H235.9z"/>
		</g>
		<g>
			<path class="st2" d="M236.7,63.8c0.3-0.1,0.8-0.1,1.2-0.1c0.7,0,1.2,0.1,1.6,0.5c0.4,0.3,0.5,0.8,0.5,1.3c0,0.6-0.2,1.1-0.5,1.4
				c-0.4,0.4-1,0.6-1.5,0.6c-0.1,0-0.1,0-0.2,0v2.2h-1.2V63.8z M237.9,66.5c0.1,0,0.1,0,0.2,0c0.6,0,0.8-0.4,0.8-1
				c0-0.5-0.2-0.9-0.8-0.9c-0.1,0-0.2,0-0.3,0V66.5z"/>
		</g>
		<g>
			<path class="st2" d="M241.2,64.8h-1.1v-1.1h3.3v1.1h-1.1v4.9h-1.2V64.8z"/>
		</g>
	</g>
</g>
<g>
	<g>
		<ellipse class="st3" cx="209.5" cy="110.1" rx="8.7" ry="8.7"/>
	</g>
	<g>
		<g>
			<path class="st2" d="M215.9,112.4c0,0,0.1,0,0.1,0c0,0,0.1-0.1,0-0.1c0-0.1,0-0.3,0-0.4c0-0.1-0.1-0.2-0.2-0.1l-0.2,0
				c0-0.1-0.1-0.2-0.1-0.3l0.2-0.1c0,0,0.1,0,0.1-0.1c0,0,0-0.1,0-0.1c0-0.1-0.1-0.3-0.2-0.4c0-0.1-0.2-0.1-0.2-0.1l-0.2,0.1
				c-0.1-0.1-0.1-0.2-0.2-0.3l0.2-0.2c0,0,0.1-0.1,0.1-0.1c0,0,0-0.1,0-0.1c-0.1-0.1-0.2-0.2-0.3-0.3c-0.1-0.1-0.2-0.1-0.2,0
				l-0.2,0.2c-0.1-0.1-0.2-0.1-0.3-0.2l0.1-0.2c0,0,0-0.1,0-0.1c0,0,0-0.1-0.1-0.1c-0.1-0.1-0.3-0.1-0.4-0.2c-0.1,0-0.2,0-0.2,0.1
				l-0.1,0.2c-0.1,0-0.2-0.1-0.3-0.1l0.1-0.2c0,0,0-0.1,0-0.1c0,0-0.1-0.1-0.1-0.1c-0.1,0-0.3-0.1-0.4-0.1c-0.1,0-0.2,0.1-0.2,0.2
				l0,0.2h0c-0.1,0-0.2,0-0.3,0l0-0.2c0-0.1-0.1-0.2-0.2-0.2c0,0,0,0,0,0c-0.2,0-0.3,0-0.4,0.1c0,0-0.1,0-0.1,0.1c0,0,0,0.1,0,0.1
				l0.1,0.2c-0.1,0-0.2,0.1-0.3,0.1l-0.1-0.2c0-0.1-0.1-0.1-0.2-0.1c-0.1,0.1-0.3,0.1-0.4,0.2c0,0-0.1,0.1-0.1,0.1c0,0,0,0.1,0,0.1
				l0.1,0.2c-0.1,0.1-0.2,0.1-0.3,0.2l-0.2-0.2c-0.1-0.1-0.2-0.1-0.2,0c-0.1,0.1-0.2,0.2-0.3,0.3c0,0,0,0.1,0,0.1c0,0,0,0.1,0.1,0.1
				l0.2,0.1c-0.1,0.1-0.1,0.2-0.2,0.3l-0.2-0.1c-0.1,0-0.2,0-0.2,0.1c-0.1,0.1-0.1,0.3-0.2,0.4c0,0,0,0.1,0,0.1c0,0,0.1,0.1,0.1,0.1
				l0.2,0.1c0,0.1-0.1,0.2-0.1,0.3l-0.2,0c-0.1,0-0.2,0.1-0.2,0.2c0,0.2,0,0.3,0,0.4c0,0.1,0.1,0.2,0.2,0.2l0,0l0.2,0
				c0,0.1,0,0.2,0,0.3l-0.2,0c0,0-0.1,0-0.1,0.1c0,0,0,0.1,0,0.1c0,0.1,0.1,0.3,0.1,0.4c0,0.1,0.1,0.1,0.2,0.1l0.2-0.1
				c0,0.1,0.1,0.2,0.1,0.3l-0.2,0.1c0,0-0.1,0.1-0.1,0.1c0,0,0,0.1,0,0.1c0.1,0.1,0.2,0.3,0.2,0.4c0.1,0.1,0.2,0.1,0.2,0l0.2-0.2
				c0.1,0.1,0.1,0.2,0.2,0.2l-0.2,0.2c0,0,0,0.1,0,0.1c0,0,0,0.1,0.1,0.1c0.1,0.1,0.2,0.2,0.3,0.3c0.1,0.1,0.2,0,0.2,0l0.1-0.2
				c0.1,0.1,0.2,0.1,0.3,0.2l-0.1,0.2c0,0,0,0.1,0,0.1c0,0,0.1,0.1,0.1,0.1c0.1,0.1,0.3,0.1,0.4,0.1c0.1,0,0.2,0,0.2-0.1l0.1-0.2
				c0.1,0,0.2,0,0.3,0l0,0.2c0,0,0,0.1,0,0.1c0,0,0.1,0.1,0.1,0.1c0.1,0,0.1,0,0.2,0c0.1,0,0.2,0,0.3,0c0.1,0,0.1,0,0.1-0.1
				c0,0,0-0.1,0-0.1l0-0.2c0.1,0,0.2,0,0.3-0.1l0.1,0.2c0,0.1,0.1,0.1,0.2,0.1c0.1,0,0.3-0.1,0.4-0.1c0,0,0.1-0.1,0.1-0.1
				c0,0,0-0.1,0-0.1l-0.1-0.2c0.1-0.1,0.2-0.1,0.3-0.2l0.1,0.2c0,0.1,0.2,0.1,0.2,0c0.1-0.1,0.2-0.2,0.3-0.3c0,0,0.1-0.1,0.1-0.1
				c0,0,0-0.1,0-0.1l-0.2-0.2c0.1-0.1,0.2-0.2,0.2-0.3l0.2,0.1c0.1,0.1,0.2,0,0.2,0c0.1-0.1,0.2-0.2,0.2-0.4c0,0,0-0.1,0-0.1
				c0,0,0-0.1-0.1-0.1l-0.2-0.1c0-0.1,0.1-0.2,0.1-0.3l0.2,0.1c0.1,0,0.2,0,0.2-0.1c0-0.1,0.1-0.3,0.1-0.4c0,0,0-0.1,0-0.1
				c0,0-0.1-0.1-0.1-0.1l-0.2,0c0-0.1,0-0.2,0-0.3H215.9z M215.3,112.4c0,1.6-1.3,2.9-2.9,2.9c-1.6,0-2.9-1.3-2.9-2.9
				c0-1.6,1.3-2.9,2.9-2.9C214,109.5,215.3,110.8,215.3,112.4z"/>
		</g>
		<g>
			<path class="st2" d="M213.1,109.4c0.1,0,0.1,0,0.1-0.1c0,0,0.1-0.1,0.1-0.2c0-0.2,0-0.4-0.1-0.6c0-0.1-0.1-0.2-0.3-0.2l-0.4,0.1
				c0-0.2-0.1-0.3-0.1-0.5l0.4-0.1c0.1,0,0.1-0.1,0.1-0.1c0-0.1,0-0.1,0-0.2c-0.1-0.2-0.2-0.4-0.3-0.6c0-0.1-0.1-0.1-0.2-0.1
				c0,0-0.1,0-0.1,0l-0.3,0.2c-0.1-0.1-0.2-0.3-0.3-0.4l0.3-0.2c0,0,0.1-0.1,0.1-0.1c0-0.1,0-0.1-0.1-0.2c-0.1-0.2-0.3-0.3-0.4-0.5
				c-0.1-0.1-0.2-0.1-0.3,0l-0.3,0.3c-0.1-0.1-0.3-0.2-0.4-0.3l0.2-0.3c0,0,0-0.1,0-0.2c0-0.1-0.1-0.1-0.1-0.2
				c-0.2-0.1-0.4-0.2-0.6-0.3c-0.1-0.1-0.3,0-0.3,0.1l-0.1,0.4c-0.2-0.1-0.3-0.1-0.5-0.2l0.1-0.4c0-0.1,0-0.1,0-0.2
				c0-0.1-0.1-0.1-0.2-0.1c-0.2,0-0.4-0.1-0.6-0.1c-0.1,0-0.2,0.1-0.3,0.2l0,0.4l0,0c-0.2,0-0.3,0-0.5,0l0-0.4
				c0-0.1-0.1-0.2-0.3-0.2c-0.2,0-0.4,0.1-0.6,0.1c-0.1,0-0.1,0.1-0.2,0.1c0,0.1,0,0.1,0,0.2l0.1,0.4c-0.2,0.1-0.3,0.1-0.5,0.2
				l-0.2-0.3c-0.1-0.1-0.2-0.2-0.3-0.1c-0.2,0.1-0.4,0.2-0.6,0.3c-0.1,0-0.1,0.1-0.1,0.2c0,0.1,0,0.1,0,0.2l0.2,0.3
				c-0.1,0.1-0.3,0.2-0.4,0.3l-0.3-0.3c-0.1-0.1-0.2-0.1-0.3,0c-0.1,0.1-0.3,0.3-0.4,0.5c0,0-0.1,0.1,0,0.2c0,0.1,0,0.1,0.1,0.1
				l0.3,0.2c-0.1,0.1-0.2,0.3-0.3,0.4l-0.3-0.2c-0.1-0.1-0.3,0-0.3,0.1c-0.1,0.2-0.2,0.4-0.2,0.6c0,0.1,0,0.1,0,0.2
				c0,0.1,0.1,0.1,0.1,0.1l0.4,0.1c0,0.2-0.1,0.3-0.1,0.5l-0.4-0.1c-0.1,0-0.2,0.1-0.3,0.2c0,0.2,0,0.4,0,0.6c0,0.1,0.1,0.2,0.2,0.2
				l0,0l0.4,0c0,0.2,0,0.3,0,0.5l-0.4,0.1c-0.1,0-0.1,0-0.1,0.1c0,0-0.1,0.1,0,0.2c0,0.2,0.1,0.4,0.2,0.6c0,0.1,0.2,0.2,0.3,0.2
				l0.3-0.1c0.1,0.2,0.1,0.3,0.2,0.5l-0.3,0.2c-0.1,0-0.1,0.1-0.1,0.1c0,0.1,0,0.1,0,0.2c0.1,0.2,0.2,0.4,0.4,0.5
				c0.1,0.1,0.2,0.1,0.3,0l0.3-0.2c0.1,0.1,0.2,0.3,0.4,0.4l-0.2,0.3c0,0-0.1,0.1-0.1,0.2c0,0.1,0,0.1,0.1,0.2
				c0.2,0.1,0.3,0.3,0.5,0.4c0.1,0.1,0.3,0,0.3-0.1l0.2-0.3c0.2,0.1,0.3,0.2,0.5,0.2l-0.1,0.3c0,0,0,0.1,0,0.2
				c0,0.1,0.1,0.1,0.1,0.1c0.2,0.1,0.4,0.1,0.6,0.2c0.1,0,0.3,0,0.3-0.2l0.1-0.4c0.2,0,0.3,0.1,0.5,0.1l0,0.4c0,0.1,0,0.1,0.1,0.2
				c0,0,0.1,0.1,0.2,0.1c0.1,0,0.2,0,0.2,0c0.1,0,0.3,0,0.4,0c0.1,0,0.1,0,0.2-0.1c0,0,0.1-0.1,0-0.2l0-0.4c0.2,0,0.4-0.1,0.5-0.1
				l0.1,0.4c0,0.1,0.2,0.2,0.3,0.2c0.2-0.1,0.4-0.1,0.6-0.2c0.1,0,0.1-0.1,0.1-0.1c0-0.1,0-0.1,0-0.2l-0.2-0.3
				c0.2-0.1,0.3-0.2,0.5-0.3l0.2,0.3c0.1,0.1,0.2,0.1,0.3,0c0.2-0.1,0.3-0.2,0.5-0.4c0,0,0.1-0.1,0.1-0.2c0-0.1,0-0.1-0.1-0.2
				l-0.3-0.3c0.1-0.1,0.2-0.3,0.3-0.4l0.3,0.2c0.1,0.1,0.2,0,0.3-0.1c0.1-0.2,0.2-0.4,0.3-0.5c0-0.1,0-0.1,0-0.2
				c0-0.1-0.1-0.1-0.1-0.1l-0.3-0.2c0.1-0.2,0.1-0.3,0.2-0.5l0.4,0.1c0.1,0,0.2,0,0.3-0.2c0.1-0.2,0.1-0.4,0.1-0.6
				c0-0.1,0-0.1,0-0.2c0,0-0.1-0.1-0.1-0.1l-0.4,0c0-0.2,0-0.3,0-0.5H213.1z M212.3,109.4c0,2.3-1.9,4.2-4.2,4.2
				c-2.3,0-4.2-1.9-4.2-4.2c0-2.3,1.9-4.2,4.2-4.2C210.4,105.2,212.3,107.1,212.3,109.4z"/>
		</g>
	</g>
</g>
<g>
	<g>
		<path class="st0" d="M240.4,171.5c-1-0.6-2.2-0.7-3.3-0.4c-1.1,0.3-2.1,1-2.7,2c-1.1,1.9-0.6,4.2,1,5.6l-1.8,3.1
			c-0.2,0.3-0.1,0.7,0.2,0.9c0.2,0.1,0.3,0.1,0.5,0.1c0.2,0,0.3-0.1,0.4-0.3l1.8-3.1c0.9,0.3,1.8,0.4,2.7,0.2c1.1-0.3,2.1-1,2.6-2
			C243.2,175.4,242.5,172.7,240.4,171.5z M240.9,176.8c-0.4,0.7-1.1,1.2-1.8,1.4c-0.8,0.2-1.6,0.1-2.3-0.3c-1.4-0.8-1.9-2.7-1.1-4.1
			c0.4-0.7,1.1-1.2,1.8-1.4c0.8-0.2,1.6-0.1,2.3,0.3C241.2,173.5,241.7,175.4,240.9,176.8z"/>
	</g>
	<g>
		<path class="st0" d="M237.5,172.9c-0.7,0.2-1.3,0.7-1.6,1.3c0,0.1,0,0.2,0.1,0.2c0,0,0.1,0,0.1,0c0,0,0.1,0,0.1-0.1
			c0.2-0.5,0.8-0.9,1.4-1.1c0.7-0.2,1.4-0.2,2,0.1c0.1,0,0.2,0,0.2-0.1c0-0.1,0-0.2-0.1-0.2C239,172.8,238.2,172.7,237.5,172.9z"/>
	</g>
</g>
<g>
	<g>
		<path class="st0" d="M214.2,160.6L214.2,160.6L214.2,160.6h-7.4v12h9.1v-10.7L214.2,160.6z M215.5,172.2h-8.3V161h7l-0.2,1.3
			l1.5-0.2V172.2z"/>
	</g>
	<g>
		<g>
			<rect x="208.1" y="163.6" class="st0" width="6.3" height="0.4"/>
		</g>
		<g>
			<rect x="208.1" y="165.3" class="st0" width="6.3" height="0.4"/>
		</g>
		<g>
			<rect x="208.1" y="167" class="st0" width="6.3" height="0.4"/>
		</g>
		<g>
			<rect x="208.1" y="168.6" class="st0" width="6.3" height="0.4"/>
		</g>
	</g>
</g>
<g>
	<g>
		<circle class="st3" cx="161.7" cy="59.8" r="13.1"/>
	</g>
	<g>
		<g>
			<path class="st2" d="M157.2,64.1c-0.2,0.1-0.7,0.2-1.2,0.2c-2.1,0-3-1.7-3-4c0-3,1.7-4.2,3.2-4.2c0.5,0,0.9,0.1,1.1,0.2l-0.3,1.3
				c-0.2-0.1-0.4-0.2-0.7-0.2c-0.9,0-1.7,0.8-1.7,2.8c0,1.9,0.7,2.7,1.7,2.7c0.3,0,0.6-0.1,0.8-0.1L157.2,64.1z"/>
		</g>
		<g>
			<path class="st2" d="M157.9,62.7c0.3,0.2,0.9,0.3,1.3,0.3c0.7,0,1.1-0.4,1.1-0.9c0-0.6-0.4-0.9-1-1.3c-1.1-0.7-1.5-1.5-1.5-2.2
				c0-1.3,0.9-2.4,2.5-2.4c0.5,0,1,0.1,1.3,0.3l-0.3,1.3c-0.2-0.1-0.6-0.3-1-0.3c-0.7,0-1,0.4-1,0.8c0,0.5,0.2,0.7,1.1,1.3
				c1.1,0.6,1.5,1.5,1.5,2.3c0,1.5-1.1,2.4-2.6,2.4c-0.6,0-1.3-0.2-1.5-0.3L157.9,62.7z"/>
		</g>
		<g>
			<path class="st2" d="M162.6,62.7c0.3,0.2,0.9,0.3,1.3,0.3c0.7,0,1.1-0.4,1.1-0.9c0-0.6-0.4-0.9-1-1.3c-1.1-0.7-1.5-1.5-1.5-2.2
				c0-1.3,0.9-2.4,2.5-2.4c0.5,0,1,0.1,1.3,0.3l-0.3,1.3c-0.2-0.1-0.6-0.3-1-0.3c-0.7,0-1,0.4-1,0.8c0,0.5,0.2,0.7,1.1,1.3
				c1.1,0.6,1.5,1.5,1.5,2.3c0,1.5-1.1,2.4-2.6,2.4c-0.6,0-1.3-0.2-1.5-0.3L162.6,62.7z"/>
		</g>
		<g>
			<path class="st2" d="M167.2,62.8c0.3,0.2,0.8,0.3,1.2,0.3c0.8,0,1.2-0.5,1.2-1.1c0-0.9-0.7-1.2-1.4-1.2h-0.2v-1.1h0.2
				c0.6,0,1.3-0.3,1.3-1c0-0.6-0.3-0.9-0.9-0.9c-0.4,0-0.7,0.1-1,0.3l-0.2-1.2c0.3-0.2,1-0.4,1.6-0.4c1.4,0,2.1,0.9,2.1,1.9
				c0,0.8-0.4,1.4-1.1,1.7v0c0.8,0.3,1.3,0.9,1.3,2c0,1.2-0.9,2.3-2.6,2.3c-0.6,0-1.2-0.2-1.5-0.3L167.2,62.8z"/>
		</g>
	</g>
</g>
<g>
	<g>
		<ellipse class="st4" cx="189.7" cy="27.5" rx="9.7" ry="9.7"/>
	</g>
	<g>
		<g>
			<path class="st2" d="M182.8,28.7c0-0.4,0.3-0.7,0.6-0.7c0.3,0,0.6,0.3,0.6,0.7c0,0.4-0.3,0.7-0.6,0.7
				C183.1,29.5,182.8,29.2,182.8,28.7z"/>
		</g>
		<g>
			<path class="st2" d="M186.9,29.3c-0.1,0-0.4,0.1-0.7,0.1c-1,0-1.7-0.7-1.7-2c0-1.2,0.7-2.1,1.8-2.1c0.3,0,0.5,0.1,0.6,0.1
				l-0.1,0.8c-0.1,0-0.2-0.1-0.4-0.1c-0.5,0-0.8,0.5-0.8,1.2c0,0.7,0.3,1.2,0.8,1.2c0.2,0,0.3,0,0.4-0.1L186.9,29.3z"/>
		</g>
		<g>
			<path class="st2" d="M190.3,27.4c0,1.7-0.9,2.1-1.5,2.1c-1,0-1.5-0.8-1.5-2.1c0-1.4,0.8-2.1,1.6-2.1
				C189.7,25.3,190.3,26.1,190.3,27.4z M188.3,27.4c0,0.7,0.1,1.3,0.5,1.3c0.4,0,0.4-0.7,0.4-1.3c0-0.5-0.1-1.2-0.5-1.2
				C188.3,26.1,188.3,26.8,188.3,27.4z"/>
		</g>
		<g>
			<path class="st2" d="M190.9,26.6c0-0.4,0-0.8,0-1.2h0.9l0.1,0.5h0c0.2-0.3,0.5-0.5,1-0.5c0.4,0,0.7,0.2,0.9,0.5h0
				c0.1-0.2,0.3-0.3,0.4-0.4c0.2-0.1,0.4-0.1,0.6-0.1c0.7,0,1,0.6,1,1.5v2.5h-1.1V27c0-0.5-0.1-0.8-0.4-0.8c-0.2,0-0.3,0.1-0.4,0.4
				c0,0.1,0,0.2,0,0.3v2.5h-1.1v-2.5c0-0.3,0-0.7-0.4-0.7c-0.2,0-0.3,0.1-0.4,0.4c0,0.1,0,0.2,0,0.3v2.5h-1.1V26.6z"/>
		</g>
	</g>
</g>
<g>
	<g>
		<circle class="st1" cx="193" cy="55.7" r="8.8"/>
	</g>
	<g>
		<g>
			<path class="st2" d="M187.4,56.2l3.9-1.9v0.8l-2.9,1.3v0l2.9,1.3v0.8l-3.9-1.9V56.2z"/>
		</g>
		<g>
			<path class="st2" d="M191.6,59l1.9-5.9h0.7l-1.9,5.9H191.6z"/>
		</g>
		<g>
			<path class="st2" d="M198.5,56.8l-3.9,1.8v-0.8l3.1-1.4v0l-3.1-1.4v-0.8l3.9,1.8V56.8z"/>
		</g>
	</g>
</g>
<g>
	<g>
		<path class="st0" d="M191.5,97.6l3.9-1.9v0.8l-2.9,1.3v0l2.9,1.3v0.8l-3.9-1.9V97.6z"/>
	</g>
	<g>
		<path class="st0" d="M195.7,100.3l1.9-5.9h0.7l-1.9,5.9H195.7z"/>
	</g>
	<g>
		<path class="st0" d="M202.6,98.2l-3.9,1.8v-0.8l3.1-1.4v0l-3.1-1.4v-0.8l3.9,1.8V98.2z"/>
	</g>
</g>
<g>
	<g>
		<g>
			<path class="st0" d="M241.2,24.9c-0.5,0-0.6,0.3-0.6,0.5c0,0.2,0,0.5,0.1,0.7c0,0.2,0.1,0.5,0.1,0.7c0,1-0.6,1.3-1.4,1.3h-0.2
				v-0.7h0.1c0.4,0,0.5-0.3,0.5-0.6c0-0.2,0-0.4,0-0.6c0-0.2,0-0.4,0-0.6c0-0.6,0.2-1,0.7-1.1v0c-0.5-0.1-0.7-0.5-0.7-1.1
				c0-0.2,0-0.3,0-0.5c0-0.2,0-0.4,0-0.6c0-0.3-0.1-0.6-0.5-0.6h-0.1v-0.7h0.2c0.9,0,1.4,0.4,1.4,1.3c0,0.3,0,0.5-0.1,0.7
				c0,0.2-0.1,0.5-0.1,0.7c0,0.2,0.1,0.5,0.6,0.5V24.9z"/>
		</g>
	</g>
	<g>
		<g>
			<path class="st0" d="M233.6,24.2c0.5,0,0.6-0.3,0.6-0.5c0-0.2,0-0.5-0.1-0.7c0-0.2-0.1-0.5-0.1-0.7c0-0.9,0.5-1.3,1.4-1.3h0.2
				v0.7h-0.1c-0.3,0-0.5,0.3-0.5,0.6c0,0.2,0,0.4,0,0.6c0,0.2,0,0.4,0,0.5c0,0.6-0.2,1-0.7,1.1v0c0.5,0.1,0.7,0.5,0.7,1.1
				c0,0.2,0,0.4,0,0.6c0,0.2,0,0.4,0,0.6c0,0.3,0.1,0.6,0.5,0.6h0.1v0.7h-0.2c-0.7,0-1.4-0.3-1.4-1.3c0-0.3,0-0.5,0.1-0.7
				c0-0.2,0.1-0.5,0.1-0.7c0-0.2-0.1-0.5-0.6-0.5V24.2z"/>
		</g>
	</g>
</g>
<g>
	<g>
		<g>
			<path class="st2" d="M156.4,36.5c-0.1,0-0.2,0-0.3-0.1c-0.1-0.1-0.2-0.2-0.2-0.3c0-0.1,0-0.3,0.1-0.4l1-1.7
				c-0.9-0.8-1.2-2.2-0.5-3.3c0.4-0.6,0.9-1.1,1.6-1.2c0.7-0.2,1.4-0.1,2,0.3c0.6,0.4,1.1,0.9,1.2,1.6c0.2,0.7,0.1,1.4-0.3,2
				c-0.4,0.6-0.9,1.1-1.6,1.2c-0.2,0.1-0.5,0.1-0.7,0.1l0,0c-0.3,0-0.6,0-0.9-0.1l-1,1.7c-0.1,0.1-0.2,0.2-0.3,0.2
				C156.5,36.5,156.4,36.5,156.4,36.5z M158.7,29.6c-0.2,0-0.4,0-0.6,0.1c-0.6,0.2-1.1,0.6-1.5,1.1c-0.6,1-0.3,2.3,0.6,3.1l0.1,0.1
				l-1.1,1.9c0,0.1,0,0.1,0,0.2c0,0.1,0.1,0.1,0.1,0.1c0.1,0,0.1,0,0.2,0c0.1,0,0.1-0.1,0.1-0.1l1.1-1.9l0.1,0
				c0.5,0.2,1,0.2,1.5,0.1c0.6-0.2,1.1-0.6,1.5-1.1s0.4-1.2,0.2-1.8c-0.2-0.6-0.6-1.1-1.1-1.5C159.5,29.7,159.1,29.6,158.7,29.6z
				 M158.7,33.9c-0.3,0-0.7-0.1-1-0.3c-0.4-0.3-0.8-0.7-0.9-1.2c-0.1-0.5-0.1-1,0.2-1.4c0.3-0.4,0.7-0.8,1.2-0.9
				c0.5-0.1,1-0.1,1.4,0.2c0.9,0.5,1.2,1.7,0.7,2.6c-0.3,0.4-0.7,0.8-1.2,0.9C159,33.9,158.8,33.9,158.7,33.9z M158.7,30.4
				c-0.1,0-0.3,0-0.4,0.1c-0.4,0.1-0.8,0.4-1,0.8c-0.2,0.4-0.3,0.8-0.2,1.2c0.1,0.4,0.4,0.8,0.8,1c0.4,0.2,0.8,0.3,1.2,0.2
				c0.4-0.1,0.8-0.4,1-0.8c0.4-0.8,0.2-1.8-0.6-2.2C159.3,30.5,159,30.4,158.7,30.4z"/>
		</g>
	</g>
	<g>
		<g>
			<path class="st2" d="M157.4,31.6c0,0-0.1,0-0.1,0c-0.1,0-0.1-0.1-0.1-0.1c0-0.1,0-0.1,0-0.2c0.2-0.4,0.6-0.7,1-0.8
				c0.5-0.2,1-0.1,1.4,0.1c0,0,0.1,0.1,0.1,0.1c0,0.1,0,0.1,0,0.2c-0.1,0.1-0.2,0.2-0.3,0.1c-0.3-0.2-0.7-0.2-1.1-0.1
				c-0.3,0.1-0.6,0.3-0.7,0.6C157.5,31.6,157.5,31.6,157.4,31.6L157.4,31.6z"/>
		</g>
	</g>
</g>
<g>
	<g>
		<g>
			<path class="st2" d="M235.2,203.2c-0.1,0-0.2,0-0.3-0.1c-0.1-0.1-0.2-0.2-0.2-0.3c0-0.1,0-0.3,0.1-0.4l1-1.7
				c-0.9-0.8-1.2-2.2-0.5-3.3c0.4-0.6,0.9-1.1,1.6-1.2c0.7-0.2,1.4-0.1,2,0.3c0.6,0.4,1.1,0.9,1.2,1.6c0.2,0.7,0.1,1.4-0.3,2
				c-0.4,0.6-0.9,1.1-1.6,1.2c-0.2,0.1-0.5,0.1-0.7,0.1l0,0c-0.3,0-0.6,0-0.9-0.1l-1,1.7c-0.1,0.1-0.2,0.2-0.3,0.2
				C235.3,203.2,235.2,203.2,235.2,203.2z M237.5,196.4c-0.2,0-0.4,0-0.6,0.1c-0.6,0.2-1.1,0.6-1.5,1.1c-0.6,1-0.3,2.3,0.6,3.1
				l0.1,0.1l-1.1,1.9c0,0.1,0,0.1,0,0.2c0,0.1,0.1,0.1,0.1,0.1c0.1,0,0.1,0,0.2,0c0.1,0,0.1-0.1,0.1-0.1l1.1-1.9l0.1,0
				c0.5,0.2,1,0.2,1.5,0.1c0.6-0.2,1.1-0.6,1.5-1.1s0.4-1.2,0.2-1.8c-0.2-0.6-0.6-1.1-1.1-1.5C238.3,196.5,237.9,196.4,237.5,196.4z
				 M237.5,200.7c-0.3,0-0.7-0.1-1-0.3c-0.4-0.3-0.8-0.7-0.9-1.2c-0.1-0.5-0.1-1,0.2-1.4c0.3-0.4,0.7-0.8,1.2-0.9
				c0.5-0.1,1-0.1,1.4,0.2c0.9,0.5,1.2,1.7,0.7,2.6c-0.3,0.4-0.7,0.8-1.2,0.9C237.8,200.6,237.7,200.7,237.5,200.7z M237.5,197.1
				c-0.1,0-0.3,0-0.4,0.1c-0.4,0.1-0.8,0.4-1,0.8c-0.2,0.4-0.3,0.8-0.2,1.2c0.1,0.4,0.4,0.8,0.8,1c0.4,0.2,0.8,0.3,1.2,0.2
				c0.4-0.1,0.8-0.4,1-0.8c0.4-0.8,0.2-1.8-0.6-2.2C238.1,197.2,237.8,197.1,237.5,197.1z"/>
		</g>
	</g>
	<g>
		<g>
			<path class="st2" d="M236.2,198.4c0,0-0.1,0-0.1,0c-0.1,0-0.1-0.1-0.1-0.1c0-0.1,0-0.1,0-0.2c0.2-0.4,0.6-0.7,1-0.8
				c0.5-0.2,1-0.1,1.4,0.1c0,0,0.1,0.1,0.1,0.1c0,0.1,0,0.1,0,0.2c-0.1,0.1-0.2,0.2-0.3,0.1c-0.3-0.2-0.7-0.2-1.1-0.1
				c-0.3,0.1-0.6,0.3-0.7,0.6C236.4,198.3,236.3,198.4,236.2,198.4L236.2,198.4z"/>
		</g>
	</g>
</g>
<g>
	<g>
		<g>
			<path class="st2" d="M205.5,85.5c-0.1,0-0.3-0.1-0.3-0.2l-1-1.7c-0.3,0.1-0.6,0.1-0.9,0.1l0,0c-0.2,0-0.5,0-0.7-0.1
				c-0.7-0.2-1.3-0.6-1.6-1.2c-0.4-0.6-0.5-1.3-0.3-2c0.2-0.7,0.6-1.3,1.2-1.6c0.6-0.4,1.4-0.5,2-0.3c0.7,0.2,1.3,0.6,1.6,1.2
				c0.6,1.1,0.4,2.5-0.5,3.3l1,1.7c0.1,0.1,0.1,0.3,0.1,0.4c0,0.1-0.1,0.3-0.2,0.3c-0.1,0-0.2,0.1-0.3,0.1
				C205.6,85.5,205.6,85.5,205.5,85.5z M202.1,79c-0.6,0.3-0.9,0.8-1.1,1.5c-0.2,0.6-0.1,1.3,0.2,1.8c0.3,0.6,0.8,0.9,1.5,1.1
				c0.5,0.1,1,0.1,1.5-0.1l0.1,0l1.1,1.9c0,0.1,0.1,0.1,0.1,0.1c0.1,0,0.1,0,0.2,0c0.1,0,0.1-0.1,0.1-0.1c0-0.1,0-0.1,0-0.2
				l-1.1-1.9l0.1-0.1c0.9-0.7,1.2-2,0.6-3.1c-0.3-0.6-0.8-1-1.5-1.1c-0.2-0.1-0.4-0.1-0.6-0.1C202.9,78.6,202.5,78.8,202.1,79z
				 M202.9,82.9c-0.5-0.1-0.9-0.4-1.2-0.9c-0.5-0.9-0.2-2.1,0.7-2.6c0.4-0.3,1-0.3,1.4-0.2c0.5,0.1,0.9,0.4,1.2,0.9
				c0.3,0.4,0.3,1,0.2,1.4c-0.1,0.5-0.4,0.9-0.9,1.2c-0.3,0.2-0.6,0.3-1,0.3C203.2,82.9,203,82.9,202.9,82.9z M202.5,79.6
				c-0.8,0.4-1,1.4-0.6,2.2c0.2,0.4,0.6,0.6,1,0.8c0.4,0.1,0.9,0,1.2-0.2c0.4-0.2,0.6-0.6,0.8-1c0.1-0.4,0.1-0.9-0.2-1.2
				c-0.2-0.4-0.6-0.6-1-0.8c-0.1,0-0.3-0.1-0.4-0.1C203.1,79.4,202.8,79.5,202.5,79.6z"/>
		</g>
	</g>
	<g>
		<g>
			<path class="st2" d="M204.7,80.7c0,0,0.1,0,0.1,0c0.1,0,0.1-0.1,0.1-0.1c0-0.1,0-0.1,0-0.2c-0.2-0.4-0.6-0.7-1-0.8
				c-0.5-0.2-1-0.1-1.4,0.1c0,0-0.1,0.1-0.1,0.1c0,0.1,0,0.1,0,0.2c0.1,0.1,0.2,0.2,0.3,0.1c0.3-0.2,0.7-0.2,1.1-0.1
				c0.3,0.1,0.6,0.3,0.7,0.6C204.5,80.6,204.5,80.7,204.7,80.7L204.7,80.7z"/>
		</g>
	</g>
</g>
<g>
	<g>
		<g>
			<path class="st2" d="M227.2,102.7c-0.3,0-0.6-0.3-0.6-0.6c0-0.4,0.3-0.6,0.6-0.6c0.4,0,0.6,0.3,0.6,0.6
				C227.9,102.4,227.6,102.7,227.2,102.7z M227.3,101.7c-0.2,0-0.3,0.1-0.3,0.4c0,0.2,0.1,0.4,0.3,0.4c0.2,0,0.3-0.1,0.3-0.4
				C227.6,101.8,227.5,101.7,227.3,101.7z M227.7,101.1h-0.9l0-0.3c-0.1-0.5,0.1-1,0.5-1.5c0.3-0.4,0.5-0.7,0.5-1
				c0-0.4-0.3-0.5-0.6-0.5c-0.3,0-0.5,0.1-0.7,0.2l-0.2,0.1l-0.3-0.8l0.1-0.1c0.3-0.2,0.8-0.3,1.2-0.3c1,0,1.5,0.7,1.5,1.3
				c0,0.6-0.3,1-0.7,1.5c-0.3,0.4-0.4,0.7-0.4,1.1L227.7,101.1z M227.1,100.8h0.3l0,0c0-0.5,0.1-0.9,0.5-1.3
				c0.4-0.5,0.7-0.8,0.7-1.3c0-0.5-0.3-1-1.2-1c-0.3,0-0.7,0.1-1,0.2l0.1,0.2c0.2-0.1,0.5-0.2,0.7-0.2c0.6,0,0.9,0.3,0.9,0.8
				c0,0.4-0.2,0.7-0.6,1.2C227.2,99.8,227,100.3,227.1,100.8L227.1,100.8z"/>
		</g>
	</g>
</g>
<g>
	<g>
		<g>
			<path class="st2" d="M245.5,53.6c-0.3,0-0.6-0.3-0.6-0.6c0-0.4,0.3-0.6,0.6-0.6c0.3,0,0.6,0.3,0.6,0.6
				C246.1,53.4,245.9,53.6,245.5,53.6z M245.5,52.7c-0.2,0-0.3,0.1-0.3,0.4s0.1,0.4,0.3,0.4c0.2,0,0.3-0.1,0.3-0.4
				C245.8,52.8,245.7,52.7,245.5,52.7z M245.9,52h-0.8l-0.1-4.1h1.1L245.9,52z M245.4,51.7h0.3l0.1-3.6h-0.5L245.4,51.7z"/>
		</g>
	</g>
</g>
<g>
	<g>
		<g>
			<path class="st2" d="M236.5,135.1v-1.4c-1-0.5-1.6-1.4-1.6-2.3c0-1.5,1.5-2.7,3.3-2.7c0.9,0,1.8,0.3,2.4,0.9l0.2,0.2l-0.3,0.1
				c-1.1,0.4-1.8,1.2-1.8,2.2c0,0.6,0.3,1.2,0.8,1.6l0.2,0.2l-0.3,0.1c-0.7,0.2-1.5,0.3-2.2,0.1L236.5,135.1z M238.2,128.9
				c-1.7,0-3,1.1-3,2.4c0,0.8,0.6,1.6,1.5,2.1l0.1,0v0.6l0.4-0.5l0.1,0c0.6,0.2,1.3,0.1,1.9,0c-0.4-0.5-0.7-1-0.7-1.6
				c0-1,0.7-1.9,1.7-2.4C239.6,129.2,238.9,128.9,238.2,128.9z"/>
		</g>
	</g>
	<g>
		<g>
			<path class="st2" d="M243.5,135.7l-0.8-1.1c-0.3,0.1-0.6,0.1-0.9,0.1c-1.8,0-3.3-1.2-3.3-2.7c0-1.5,1.5-2.7,3.3-2.7
				c1.8,0,3.3,1.2,3.3,2.7c0,1-0.6,1.8-1.6,2.3V135.7z M242.8,134.2l0.4,0.5V134l0.1,0c0.9-0.4,1.5-1.2,1.5-2.1c0-1.3-1.4-2.4-3-2.4
				c-1.7,0-3,1.1-3,2.4c0,1.3,1.4,2.4,3,2.4c0.3,0,0.6,0,0.9-0.1L242.8,134.2z"/>
		</g>
	</g>
</g>
<g>
	<g>
		<g>
			<path class="st27" d="M69.4,128.5c1.9-2.1,5.2-5,5.7-6.3c-0.4-0.3-0.9-0.6-1.3-0.9c-0.7-0.6-1.4-1.4-2.1-2.1
				c-1.3-1.5-2.4-3.2-3.3-4.9c0,0,0,0,0,0c-1-2.3-1.2-4.5-1.2-6.4c-0.3,0.5-0.7,0.8-1.1,0.8c-0.6-0.1-1-1.1-0.9-2.4
				c0.2-1.2,0.8-2.1,1.5-2c0.3,0,0.3,0.2,0.5,0.6c0.1-0.6,0.4-1.7,0.5-2.2c1-3.5,3.2-6.2,3.7-7.2c0.2-0.5,0.4-1,0.6-1.5
				c0.2,0.6,4.6,2.6,9.8,3.4c5.3,0.8,10,0.1,10.4-0.4c0.1,0.5,0.1,1.1,0.2,1.6c0.3,1.1,1.2,5,1.2,8.6c0,0.3,0,0.7-0.1,1.2
				c0.1-0.1,0.3-0.1,0.4-0.1c0.7,0.1,1,1.2,0.9,2.4c-0.2,1.2-0.8,2.1-1.5,2c-0.2,0-0.4-0.2-0.6-0.4c-0.5,1.7-1.4,3.5-2.9,5.2
				c0,0,0,0,0,0c-1.4,1.4-2.9,2.7-4.6,3.8c-0.8,0.5-1.7,1-2.6,1.4c-0.6,0.2-1.2,0.5-1.8,0.6c0,0.2,0,0.4,0,0.5
				c0.3,1.4,1.4,4.3,4.4,6c4.1,2.3,7.5,4.1,7.5,4.1s-0.1,5.9-14.6,3c-5.4-1.1-4.8,0.5-14.4-2.2C64,134.7,64,134.7,69.4,128.5z"/>
		</g>
		<g>
			<path class="st28" d="M79.5,82c0.5,0,1,0.1,1.5,0.2l0,0c0.5,0,1,0.1,1.4,0.1c10,0.9,18.2,13.9,14,30.6
				c-3,12.1-14.7,11.3-14.7,11.3s3.5-3.7,5.7-7.3c1.7-2.7,2.8-7.9,2.9-11.6l-4.2-0.4l0.1-4.9l-2.3,4.6l-5.1-0.4l0,0l-11.4-1.1
				c-0.6,3.6-0.4,8.9,0.7,11.9c1.5,3.9,3.9,6.9,3.9,6.9s-9.7-2.1-10.7-12.1C59.8,92.7,69.5,81,79.5,82z"/>
		</g>
		<g>
			<path class="st27" d="M65.8,106.4c-0.3,1.4,0.4,2.5,1.1,2.5c0.7,0,0.7-1.2,0.7-2.4c0-1.2-0.6-2.6-1.3-2.9
				C65.6,103.4,66,105.2,65.8,106.4z"/>
		</g>
	</g>
	<g>
		<polygon class="st29" points="98.3,181.9 81.4,200 85.8,219.7 86.2,236 79.9,247.4 77.1,269.4 78.8,273.8 88.7,253.9 95.8,239.7 
			98.4,200.9 		"/>
	</g>
	<g>
		<polygon class="st30" points="72.2,273.4 72.5,267.1 74.8,266.6 74.5,261.8 80.3,270.4 80.8,271.2 77.8,275.1 76.6,280.4 
			70.8,289 70.1,278 		"/>
	</g>
	<g>
		<polygon class="st29" points="82.9,206.3 95.6,181.3 65.9,183.7 64.4,196.5 75.7,234.1 84,271 87.6,270.8 84.8,231.9 		"/>
	</g>
	<g>
		<polygon class="st30" points="89.9,265.1 84.9,267.7 80.4,266.8 83.9,271.6 80.3,287.5 85.3,291.4 90.4,286 87.6,270.8 		"/>
	</g>
	<g>
		<polygon class="st2" points="65.2,134.3 90.1,135.5 95.2,146.3 88.5,176.7 89.3,180 72,178.8 63.4,137.5 		"/>
	</g>
	<g>
		
			<rect x="71.9" y="178.2" transform="matrix(0.9983 -5.871584e-02 5.871584e-02 0.9983 -10.4534 5.087)" class="st31" width="18.9" height="4.4"/>
	</g>
	<g>
		<polygon class="st30" points="92.8,132.8 83.1,158.1 72.8,161 65.9,165.1 96.4,171.1 99,169.6 103.1,136.9 		"/>
	</g>
	<g>
		<path class="st30" d="M77.4,159.1l-8.8-17.2l-1.4-10.1l-12.3,2l0.9,35.3l2.4,2.5l8-1.9l-6.8,21.6l20.2-3.2l1.2-21.4l8.5-1.9
			l0.1-7.9L77.4,159.1z M63.5,161.6L61,149.8l3.5,11.6L63.5,161.6z"/>
	</g>
	<g>
		<polygon class="st31" points="77.4,159.1 79.6,158.7 72.7,142.7 67.9,127.7 59.7,132 67.3,136 62.2,139.2 		"/>
	</g>
	<g>
		<polygon class="st31" points="97.1,133.6 85.7,130.1 88.2,144.4 82.3,158.3 84.9,157.9 97.8,141.3 92,135.6 		"/>
	</g>
	<g>
		<polygon class="st27" points="89.4,157 93.3,157.9 91.7,162 89.4,163.3 		"/>
	</g>
	<g>
		<polygon class="st31" points="87.3,156.6 88.3,163.6 90.4,163.3 89.4,155.9 		"/>
	</g>
	<g>
		<polygon class="st32" points="93.3,157.9 92.8,157.8 93,157.2 		"/>
	</g>
	<g>
		<polygon class="st33" points="91.7,162 93.3,157.9 93,157.2 95.9,149.1 92.6,161.5 		"/>
	</g>
	<g>
		<g>
			<polygon class="st30" points="102,190.6 83.5,188.8 81.6,167.5 81.5,166.7 91.3,163.7 			"/>
		</g>
		<g>
			<path class="st34" d="M88.3,163.6l-15.1,5.1c-1.6,0.5-6.9,1-6.9,1L88.3,163.6z"/>
		</g>
		<g>
			<polygon class="st30" points="92.3,160.7 92.4,160.6 94.1,157.3 93,160.6 			"/>
		</g>
	</g>
	<g>
		<polygon class="st35" points="92.2,161.6 92.8,161.5 94.3,158.4 		"/>
	</g>
	<g>
		<polygon class="st34" points="78.1,167.2 87.4,169.9 96.4,171.1 87.6,169.1 		"/>
	</g>
	<g>
		<path class="st36" d="M89.4,108.4c-3.5-1.9-6.9,0.8-10.2,1.5c-3.3-1-6.3-4-10-2.5c-0.7,3.3,3.5,7.7,7.3,6c1.4-0.6,1.9-2,2.6-2.3
			c0.7,0.4,1,1.8,2.4,2.5C85.2,115.8,89.8,111.8,89.4,108.4z M70.2,108.8c1.1-2.3,7.3-0.1,7.9,1.9C77.4,115.9,68.4,112.6,70.2,108.8
			z M80.2,110.8c0.8-1.9,7.2-3.5,8-1.1C89.7,113.6,80.4,116.1,80.2,110.8z"/>
	</g>
	<g>
		<polygon class="st34" points="60.6,148.2 63.3,161.9 64.7,161.9 		"/>
	</g>
	<g>
		<polygon class="st27" points="64.7,158 63.5,161.6 71.9,160.1 		"/>
	</g>
	<g>
		<polygon class="st34" points="63.3,161.6 87.2,157.4 67.5,161.6 		"/>
	</g>
	<g>
		<polygon class="st37" points="77.5,266.2 74.5,261.8 77.8,263.4 		"/>
	</g>
	<g>
		<polygon class="st37" points="89.8,265.1 87.2,264.5 87.3,266.6 		"/>
	</g>
	<g>
		<polygon class="st37" points="82.8,264.9 83.3,267.4 80.4,266.8 		"/>
	</g>
	<g class="st38">
		<polygon class="st39" points="86.4,253.6 86.3,251.9 85.1,235.9 84.9,233.6 82.9,206.7 84.4,232.7 83.8,234.4 84.6,236.3 
			85.8,251.4 84.8,251.6 86,253.7 87.1,265.9 		"/>
	</g>
	<g class="st38">
		<polygon class="st39" points="82.9,206.3 80.8,202.7 81.8,193.1 		"/>
	</g>
	<g class="st38">
		<polygon class="st39" points="83.3,266.8 77.8,239.5 76.7,234.1 70.2,214 64.8,197.6 75.8,234.6 		"/>
	</g>
	<g class="st38">
		<polygon class="st39" points="96.3,225.1 95.9,230 95.2,238.5 93,238.4 93.8,241.1 87.3,256.7 95.2,240.8 95.8,239.7 96.5,229.5 
			96.5,226.6 98,207.2 		"/>
	</g>
	<g class="st38">
		<polygon class="st39" points="87.1,219.2 83.4,208.9 85.8,219.7 86.2,236 		"/>
	</g>
	<g class="st38">
		<polygon class="st39" points="77.5,266.2 78.7,256.3 79.3,252 79.5,256.7 		"/>
	</g>
	<g>
		<polygon class="st27" points="63.6,161.2 63.1,162.8 66,161.1 		"/>
	</g>
	<g>
		<line class="st40" x1="95.1" y1="241" x2="95.8" y2="239.7"/>
	</g>
	<g>
		<path class="st40" d="M85.1,236.3"/>
	</g>
</g>
<g>
	<g>
		<path class="st27" d="M171,86.3c4.4-0.3,8.5-1.7,11.5,1c0.3,2.6,1.3,9.9,1.5,10.3c0.4-1.3,3.7-3.4,3.1,0.4c-0.4,2.5-1.7,5.8-2.5,5
			c-0.1-0.1-0.2-0.2-0.3-0.4c0,0.2-0.1,0.3-0.2,0.5l-1.9,7.4l-4.2,2.2c0.1,1.6,0.2,5.9,0.2,5.9s18.1,6.1,16.7,5.7
			c-2-0.5-13.5,7-30.7,7.8c0,0,1.9-8.9,2.3-10.6c0.2-0.8,1.3-4.2,0.8-6.8l-5.7-1.9l-2.9-8.4c-0.1,0.3-0.9-12.6-1-15.8
			C160.6,86,166.1,86.7,171,86.3z"/>
	</g>
	<g>
		<polygon class="st28" points="184.3,102.7 182.2,110.9 171.5,117 161.7,113.2 159.2,105.4 162.7,112.1 171.2,115 181.3,109.7 		
			"/>
	</g>
	<g>
		<g>
			<polygon class="st28" points="180.3,279.2 185.3,279.1 188.4,289.3 187.9,290.7 182.7,292.9 177.6,291.3 176.9,289.6 			"/>
		</g>
		<g>
			<polygon class="st41" points="188.4,289.3 187.5,291.7 182.8,293.7 177.9,292 176.9,289.6 182.7,292.3 			"/>
		</g>
	</g>
	<g>
		<g>
			<polygon class="st28" points="165.4,280.3 170.5,280.2 172.5,290.4 171.8,291.8 166.4,293.9 161.4,292.2 160.8,290.5 			"/>
		</g>
		<g>
			<polygon class="st41" points="172.5,290.4 171.3,292.7 166.3,294.7 161.6,292.8 160.8,290.5 166.4,293.3 			"/>
		</g>
	</g>
	<g>
		<polygon class="st42" points="181.1,118.2 193.9,118.5 192.5,162.9 192.9,180.6 157.4,177.8 160.2,156.8 154.3,126 164.7,119.3 
			173.1,124 		"/>
	</g>
	<g>
		<polygon class="st31" points="157.4,177.8 156.8,181.7 192.8,184.4 193,180.2 		"/>
	</g>
	<g>
		<polygon class="st43" points="192.9,183.3 188.2,236.4 188.1,281.5 176.9,281.8 174.3,193.5 169.2,230.3 173.5,282.1 163.1,283.3 
			155.1,226.7 156.8,181.6 		"/>
	</g>
	<g>
		<polygon class="st28" points="182.2,96.3 184,97.7 183.8,98.5 181.7,97.2 		"/>
	</g>
	<g>
		<g>
			<polygon class="st27" points="199.2,168.5 195.2,176.4 191.6,177.9 185.2,175.7 192.8,171.9 192.7,168.8 194.1,169.2 
				198.5,160.4 202.1,162.2 			"/>
		</g>
		<g>
			<polygon class="st42" points="193.9,118.5 211.6,140 199.3,170.2 194.1,166.6 201.6,142.1 193.3,133 			"/>
		</g>
		<g class="st44">
			<polygon class="st42" points="196.4,121.5 210.4,140.3 198.3,167.1 207.9,140.9 			"/>
		</g>
	</g>
	<g>
		<polygon class="st27" points="152.9,169.6 156.6,177 160,178.4 166,176.3 158.9,172.7 159,169.9 157.7,170.2 153.6,162 
			150.2,163.7 		"/>
	</g>
	<g>
		<polygon class="st42" points="154.3,126 142.4,144 153.9,172.3 158.8,168.9 151.8,146 158.6,137.5 		"/>
	</g>
	<g class="st44">
		<polygon class="st42" points="155.1,126.9 143.5,144.3 154.8,169.4 145.8,144.9 		"/>
	</g>
	<g class="st44">
		<polygon class="st45" points="190.3,187.6 188.2,236.4 186.5,280.2 185.2,234.7 		"/>
	</g>
	<g class="st44">
		<polygon class="st45" points="156.3,208.4 155.4,226.6 158.6,245.1 157.1,226.5 		"/>
	</g>
	<g>
		<path class="st28" d="M181.3,78.9C179.2,77,172,75,172,75s1.6,1.6,1.8,2.2c0.3,0.6-0.9-0.1-0.9-0.1s-2-0.7-3.5-1.4
			c-1.5-0.6-2.2-0.3-1.6,0.2c0.7,0.5,0.5,0.9,0.5,0.9s-2.5,0.4-4.4,0.7c-1.8,0.4-5.1,1.8-6.6,3.5c-1.5,1.7-2.7,4.8-2.7,7.1
			c-0.2,4.8,3.4,10.1,3.6,10.4c0.2,0.3,0.3,4,0.3,4s0.6-0.2,0.8-0.3c0.4-0.6,0.1-2.4,0-3c-0.1-0.6,0.4-2.6,0-4
			c-0.4-1.4-0.1-3.3,1-4.2c1.1-0.9,4.6-2.9,7.2-3.7c2.6-0.7,7.4-1.5,8.5-1.1c1.1,0.4,4.6,1.5,5.2,2.4c0.7,0.9,1.4,3.9,1.3,4.9
			c-0.1,1-0.1,5.9-0.1,5.9s0.2,0.5,0.5-0.1c0.3-0.5,0.7-1.4,1-2.3C184.3,96.1,187.7,84.4,181.3,78.9z"/>
	</g>
	<g>
		<path class="st28" d="M182.2,94.2l-9.9,1.5l-2.2,1.4l-2.4-0.7l-10,1.5c0,0,0,0,0,0l1.2,3.1h0c0.3,0.7,0.6,1.4,0.9,2
			c0.2,0.4,0.4,0.7,0.7,1c0.3,0.3,0.6,0.6,1,0.7c0.8,0.3,1.7,0.3,2.6,0.1c0.9-0.1,1.7-0.4,2.5-0.8c0.4-0.2,0.8-0.4,1.1-0.7
			c0.2-0.1,0.3-0.3,0.5-0.4c0.2-0.1,0.3-0.3,0.4-0.5c0.2-0.4,0.3-0.8,0.4-1.2c0.1-0.4,0.2-0.8,0.3-1.2c0.1-0.4,0.2-0.8,0.3-1.2
			c0-0.1,0.1-0.2,0.1-0.3c0,0,0-0.1,0.1-0.2c0-0.1,0.1-0.1,0.1-0.2c0.2-0.1,0.4-0.2,0.7-0.2c0.2,0,0.4,0,0.6,0c0,0,0,0,0.1,0l0,0
			c0,0,0,0,0,0c0.1,0,0.1,0.1,0.1,0.1c0.1,0.1,0.1,0.1,0.2,0.2c0.2,0.3,0.4,0.6,0.5,0.9c0.3,0.6,0.6,1.2,1,1.7
			c0.2,0.3,0.4,0.5,0.6,0.8c0.1,0.1,0.2,0.2,0.4,0.3c0.1,0.1,0.3,0.1,0.5,0.2c0.6,0.2,1.3,0.4,2,0.4c0.7,0.1,1.4,0,2.1-0.1
			c0.7-0.1,1.4-0.3,1.9-0.7c0.3-0.2,0.5-0.4,0.8-0.6c0.2-0.3,0.3-0.5,0.4-0.9c0.2-0.6,0.2-1.3,0.3-2C182,98,182.3,94.2,182.2,94.2
			C182.3,94.2,182.3,94.2,182.2,94.2z M168.4,100.1c-0.1,0.5-0.2,1-0.5,1.4c-0.2,0.4-0.6,0.9-1,1.2c-0.4,0.3-0.9,0.5-1.4,0.7
			c-0.5,0.2-1,0.3-1.5,0.4c-0.5,0.1-1,0.1-1.5,0c-0.2,0-0.5-0.1-0.7-0.2c-0.1,0-0.1-0.1-0.2-0.1c0,0-0.1-0.1-0.1-0.1
			c-0.1-0.1-0.2-0.2-0.2-0.3c-0.3-0.4-0.5-0.8-0.7-1.3c-0.2-0.5-0.3-0.9-0.4-1.4c-0.1-0.5-0.1-1,0.1-1.4c0.1-0.2,0.2-0.4,0.4-0.5
			c0.2-0.1,0.4-0.2,0.7-0.3c0.5-0.1,1-0.2,1.5-0.3c0.5-0.1,1-0.2,1.5-0.3c0.5-0.1,1-0.1,1.6-0.1c0.5,0,1,0,1.5,0.2
			c0.2,0.1,0.5,0.2,0.6,0.4c0.2,0.2,0.3,0.4,0.3,0.7C168.6,99.1,168.5,99.6,168.4,100.1z M181.1,98.7c0,0.5-0.1,1-0.3,1.4
			c0,0.1-0.1,0.2-0.1,0.3c0,0.1-0.1,0.1-0.1,0.1c0,0.1-0.1,0.1-0.1,0.1c-0.2,0.2-0.4,0.3-0.6,0.4c-0.4,0.2-1,0.4-1.5,0.5
			c-0.5,0.1-1,0.1-1.6,0.1c-0.5,0-1-0.1-1.5-0.3c-0.5-0.2-0.9-0.5-1.3-0.8c-0.4-0.4-0.6-0.8-0.9-1.2c-0.2-0.4-0.4-0.9-0.5-1.4
			c0-0.2,0-0.5,0.1-0.7c0.1-0.2,0.3-0.4,0.5-0.6c0.4-0.3,0.9-0.5,1.4-0.6c0.5-0.1,1-0.2,1.5-0.3c0.5-0.1,1-0.1,1.6-0.2
			c0.5-0.1,1-0.1,1.6-0.1c0.3,0,0.5,0,0.7,0.1c0.2,0.1,0.4,0.2,0.6,0.4c0.3,0.4,0.4,0.9,0.5,1.3C181.1,97.8,181.1,98.2,181.1,98.7z"
			/>
	</g>
</g>
<g>
	<g>
		<polygon class="st46" points="122.6,287 117.6,287 114.9,296.3 115.4,297.6 120.6,299.5 125.6,297.9 126.3,296.3 		"/>
	</g>
	<g>
		<polygon class="st47" points="114.9,296.3 115.8,298.5 120.6,300.3 125.3,298.5 126.3,296.3 120.6,298.9 		"/>
	</g>
</g>
<g>
	<path class="st27" d="M143.4,99.3c-0.4-0.7-1.4,0.8-1.9,2.1c-0.3-0.4-1.3-6.5-1.4-9.2c-2.8-3-6.5-3.4-11-3.4
		c-5,0-10.6,0.8-13.5,3.2c-0.2,3.2-0.5,8.8-0.5,9.1c-0.5-1.2-1.4-2.6-1.8-1.8c-0.7,1.3-1.7,2.9-0.6,5.3c1.2,2.3,1.5,3.3,2.3,2.5
		c0.1-0.1,0.2-0.4,0.3-0.6l2.3,8.9l5.7,2.4c0.3,2.7,0.4,6.3,0.1,7.1c-0.6,1.7-4.7,10.5-4.7,10.5c17.6,0.5,17.7,0.1,19.7,0.8
		c1.8,0.6-4.4-9.2-5.1-10.8c-0.3-0.8-0.4-4.9-0.3-7.8l5.6-2.9l2.5-7.4c0.1-0.2,0.1-0.3,0.2-0.5c0.1,0.2,0.1,0.3,0.3,0.5
		c0.8,0.9,1.2-0.1,2.3-2.5C145.1,102.3,144.1,100.6,143.4,99.3z"/>
</g>
<g>
	<polygon class="st28" points="129,110.4 128.3,112.8 134.5,113.6 	"/>
</g>
<g>
	<polygon class="st28" points="127.5,110.4 128.2,112.8 122,113.6 	"/>
</g>
<g>
	<polygon class="st28" points="141.3,106.9 138.7,114.6 128.4,120 117.6,115.4 115.3,106.6 118.8,113.8 128.6,118.3 137.9,113.3 	
		"/>
</g>
<g>
	<path class="st28" d="M141,99.9h-10.3l-2.4,1.1l-2.4-1.1h-10.4c0,0,0,0,0,0l0.7,3.3l0,0c0.2,0.7,0.4,1.5,0.6,2.2
		c0.1,0.4,0.3,0.8,0.5,1.2c0.2,0.4,0.6,0.7,1,0.9c0.8,0.4,1.7,0.5,2.6,0.5c0.9,0,1.8-0.2,2.6-0.4c0.4-0.1,0.8-0.3,1.2-0.5
		c0.2-0.1,0.4-0.2,0.6-0.3c0.2-0.1,0.3-0.3,0.4-0.4c0.2-0.3,0.4-0.7,0.6-1.1c0.2-0.4,0.3-0.8,0.5-1.2c0.1-0.4,0.3-0.8,0.5-1.2
		c0-0.1,0.1-0.2,0.1-0.3c0,0,0.1-0.1,0.1-0.1c0,0,0.1-0.1,0.1-0.1c0.2-0.1,0.5-0.2,0.7-0.1c0.2,0,0.4,0,0.6,0.1c0,0,0,0,0.1,0l0,0
		c0,0,0,0,0,0c0.1,0,0.1,0.1,0.1,0.1c0.1,0.1,0.1,0.2,0.2,0.2c0.2,0.3,0.3,0.6,0.4,1c0.2,0.6,0.5,1.3,0.8,1.9
		c0.1,0.3,0.3,0.6,0.5,0.9c0.1,0.1,0.2,0.3,0.3,0.3c0.1,0.1,0.3,0.2,0.4,0.3c0.6,0.3,1.3,0.6,2,0.7c0.7,0.2,1.4,0.2,2.1,0.2
		c0.7,0,1.4-0.1,2.1-0.4c0.3-0.1,0.6-0.3,0.9-0.5c0.2-0.2,0.4-0.5,0.6-0.8c0.3-0.6,0.4-1.3,0.6-1.9C140.1,103.8,141,100,141,99.9
		C141,100,141,100,141,99.9z M126.1,103.9c-0.2,0.5-0.4,1-0.7,1.4c-0.3,0.4-0.7,0.8-1.2,1c-0.5,0.3-1,0.4-1.5,0.5
		c-0.5,0.1-1.1,0.2-1.6,0.2c-0.5,0-1.1-0.1-1.6-0.2c-0.2-0.1-0.5-0.2-0.7-0.4c0,0-0.1-0.1-0.1-0.1c0,0-0.1-0.1-0.1-0.1
		c-0.1-0.1-0.1-0.2-0.2-0.3c-0.2-0.4-0.4-0.9-0.5-1.4c-0.1-0.5-0.2-1-0.2-1.5c0-0.5,0-1,0.3-1.4c0.1-0.2,0.3-0.4,0.5-0.5
		c0.2-0.1,0.5-0.2,0.7-0.2c0.5-0.1,1.1-0.1,1.6-0.1c0.5,0,1.1-0.1,1.6-0.1c0.5,0,1.1,0,1.6,0.1c0.5,0.1,1.1,0.2,1.5,0.4
		c0.2,0.1,0.4,0.3,0.6,0.5c0.1,0.2,0.2,0.5,0.2,0.7C126.4,102.9,126.2,103.4,126.1,103.9z M139.1,104.4c-0.1,0.5-0.3,1-0.5,1.4
		c-0.1,0.1-0.1,0.2-0.2,0.3c0,0-0.1,0.1-0.1,0.1c0,0-0.1,0.1-0.1,0.1c-0.2,0.2-0.4,0.3-0.7,0.4c-0.5,0.2-1,0.2-1.6,0.2
		c-0.5,0-1.1-0.1-1.6-0.2c-0.5-0.1-1-0.3-1.5-0.5c-0.5-0.3-0.9-0.6-1.2-1c-0.3-0.4-0.5-0.9-0.7-1.4c-0.2-0.5-0.3-1-0.3-1.5
		c0-0.3,0-0.5,0.2-0.7c0.1-0.2,0.4-0.4,0.6-0.5c0.5-0.2,1-0.4,1.5-0.4c0.5-0.1,1.1-0.1,1.6-0.1c0.5,0,1.1,0,1.6,0.1
		c0.5,0,1.1,0,1.6,0.1c0.3,0,0.5,0.1,0.7,0.2c0.2,0.1,0.4,0.3,0.5,0.5c0.2,0.4,0.3,0.9,0.3,1.4C139.3,103.4,139.2,103.9,139.1,104.4
		z"/>
</g>
<g>
	<path class="st28" d="M141.1,102.1c0,0,2.8-12,2.4-14.9c-0.4-3-1.5-6.3-12.6-7.8c-11.1-1.4-17.6,0.8-17.6,0.8l5.3,2.8l-9.2,0.6
		l3.7,6.1c0,0,0.9,3.8,1.3,7.7c0.4,3.9,1,5.6,1,5.6l1.2-12.1l15.9,1.8l-0.9-1.8l4.2,1.6l0.4-1.6l3.6,0.4L141.1,102.1z"/>
</g>
<g class="st48">
	<polygon class="st49" points="107,152.8 108.7,156.4 98.7,164.3 	"/>
</g>
<g>
	<path class="st50" d="M164.6,168.7l3.3-2.1l-14.1-37.3l-20.4-4.5c0,0-3.4,4.4-5,4.4c-1.7,0-5-4.4-5-4.4l-18.4,4.5l-16.3,31v6.4
		l6.1,1.1l10.9-6.7l-2.8-5.7l-4.2,1.5l10.3-13l1.5,41l35.8,0l1.1-16.9l11.6,0.9L164.6,168.7z M147.8,160.7l-0.4,7.2l-0.5-25
		l10.4,19.1L147.8,160.7z"/>
</g>
<g>
	<path class="st51" d="M103.8,155.5c0.4-0.2,0.8-0.4,1.3-0.7c0.3-0.2,0.6-0.6,0.9-0.9c0.7-0.9,1.6-2.1,2.1-3c0.4-0.7,0.3-3,1.7-2.9
		c1.5,0.1,0.5,2.3,0.4,2.9c0.3-0.1,2.4-1.3,4.2-2.2c0.9-0.5,1.7-0.9,2.4-1l-0.2,2c-0.4,0.2-0.9,0.4-1.2,0.6c-1,0.5-4.9,2.5-3.8,2.1
		c0.7-0.3,2.2-1.1,2.9-1.4c0.6-0.3,1.2-0.7,1.6,0c0.4,0.7-0.1,1-0.9,1.5c-0.9,0.5-2.4,1.3-2.7,1.4c0,0,0,0-0.1,0c0,0,0,0,0.1,0
		c0.6-0.2,1.9-0.8,2.8-1.3c0.4-0.2,0.7-0.2,1-0.1l-0.1,1.2l0,0.3c-0.2,0.1-0.3,0.2-0.5,0.3c-0.6,0.3-2.9,1.4-2.5,1.3
		c0.4-0.1,1.7-0.8,2.4-1.2c0.1-0.1,0.3-0.1,0.5-0.2l-0.3,2.1c-1.7,1-4.5,2.8-6.4,3c-1,0.1-2,0.7-2.6,0.9c-0.7,0.2-0.3,0-0.7,0.2
		L103.8,155.5z"/>
</g>
<g>
	<g>
		<polygon class="st46" points="133.3,287 138.3,287 141,296.3 140.5,297.6 135.3,299.5 130.3,297.9 129.6,296.3 		"/>
	</g>
	<g>
		<polygon class="st47" points="141,296.3 140.1,298.5 135.3,300.3 130.6,298.5 129.6,296.3 135.3,298.9 		"/>
	</g>
</g>
<g>
	<polygon class="st52" points="146.3,183.8 110.6,183.8 109.3,194.4 110.2,216.8 114.2,289.2 124.7,289.2 127.8,196.2 131.2,289.2 
		141.8,289.2 145.8,217 147.1,194.2 	"/>
</g>
<g>
	<polygon class="st28" points="146.3,183.8 110.6,183.8 110.2,187.2 146.6,187.2 	"/>
</g>
<g>
	<polygon class="st28" points="127.4,115.3 128.3,117.7 129.2,115.3 	"/>
</g>
<g class="st53">
	<polygon class="st54" points="112.6,187.2 110.2,187.2 109.3,194.4 116,286.3 	"/>
</g>
<g class="st53">
	<polygon class="st54" points="145.9,215.3 142.3,231.9 143.7,254.6 	"/>
</g>
<g>
	<polygon class="st55" points="146.4,146.4 143.5,167.3 115.8,167.5 112.7,146.5 	"/>
</g>
<g class="st56">
	<polygon class="st41" points="146.4,146.4 115.8,167.5 143.5,167.5 	"/>
</g>
<g>
	<ellipse class="st2" cx="130" cy="164.4" rx="1.7" ry="1.6"/>
</g>
<g>
	<path class="st57" d="M144.8,158.5c-1-1.1-3.7-2.5-5.1-3.2c-1.4-0.7-2.7-1.6-3-1.7c0,0-0.7-0.2-1.1,0.5c-0.8,1.2,3.7,3.3,3.7,3.3
		s-6.4,1.4-9.3,2.4c-0.2,0.1-0.6,0.3-0.8,0.5c-0.3,0.6,0.7,1.2,1.2,1c0.1,0,5.5-1.1,5.5-1.1s-1.6,0.6-2.9,0.9
		c-0.4,0.1-3.5,0.8-3.7,1.1c-0.3,0.6,0,1.3,1.1,1c0.2,0,6.5-0.9,6.5-0.9s-6.4,1.1-6.6,1.4c-0.3,0.6-0.1,1.3,1.2,1.2
		c0.2,0,6.9-0.7,6.9-0.7s-5.5,0.8-5.7,1.1c-0.3,0.6,0.3,1,0.7,1.1c0.1,0,10.4-0.6,10.8-0.5c0.1,0,1.2,0.7,3.2,2l0.4-5.8
		C147.2,161.4,145.8,159.6,144.8,158.5z"/>
</g>
<g class="st44">
	<polygon class="st50" points="115.3,128.4 105.9,130.1 94.1,151.9 106.6,132.1 	"/>
</g>
<g class="st44">
	<polygon class="st50" points="147.9,129.4 152.9,130.9 160,149.1 	"/>
</g>
<g>
	
		<rect x="104" y="154.8" transform="matrix(0.8612 -0.5083 0.5083 0.8612 -65.7617 75.1388)" class="st58" width="1.3" height="6.3"/>
</g>
<g>
	
		<rect x="144.6" y="163.7" transform="matrix(6.913816e-02 -0.9976 0.9976 6.913816e-02 -25.9388 300.7775)" class="st58" width="7.2" height="1.3"/>
</g>
<g class="st44">
	<polygon class="st42" points="182.3,118.8 184,120.6 174.1,124.8 	"/>
</g>
</svg>
