<svg width="588" height="449" fill="none" xmlns="http://www.w3.org/2000/svg"><path d="M49.32 404.035H.43v.314h48.89v-.314ZM188.43 400.626h-38.95v.315h38.95v-.315ZM123.57 411.458H55.8v.314h67.77v-.314ZM587.05 413.609h-31.88v.314h31.88v-.314ZM548 413.609h-47.19v.314H548v-.314ZM413.52 408.3h-81.36v.314h81.36v-.314Z" fill="#EBEBEB"/><path d="M50.29 191.521h482.12V13.275H50.29v178.246Z" fill="#E6E6E6"/><path d="M43.65 191.521h485.87V13.275H43.65v178.246Z" fill="#F5F5F5"/><path d="M517.59 181.244V23.553H55.56v157.691h462.03Z" fill="#FAFAFA"/><path d="m252.02 181.244-52.7-157.678h-36.77l52.7 157.678h36.77ZM204.81 181.244 152.13 23.566h-25.32l52.69 157.678h25.31ZM473.22 181.244 420.54 23.566h-36.78l52.7 157.678h36.76ZM426.04 181.244l-52.7-157.678h-25.31l52.68 157.678h25.33Z" fill="#fff"/><path d="M157.7 181.244V23.553h-14.23v157.691h14.23ZM439.22 181.256V23.566h-14.23v157.69h14.23Z" fill="#E6E6E6"/><path d="M155.13 187.773V15.917h-17.98v171.856h17.98ZM436.66 187.773V15.917h-17.97v171.856h17.97Z" fill="#F5F5F5"/><path d="M56.83 181.256V23.566h-1.27v157.69h1.27ZM38.63.066h506.74c.39 0 .77.133 1.04.369.28.236.44.556.44.889 0 .334-.16.654-.44.89-.27.236-.65.368-1.04.368H38.63c-.39 0-.77-.132-1.04-.368-.28-.236-.44-.556-.44-.89 0-.333.16-.653.44-.889.27-.236.65-.369 1.04-.369Z" fill="#E6E6E6"/><path d="M532.4 8.709c.55 0 1.07-.185 1.46-.515.39-.33.61-.778.62-1.246V3.174c0-.471-.22-.922-.61-1.255a2.28 2.28 0 0 0-1.47-.519 2.3 2.3 0 0 0-1.47.524c-.38.332-.6.781-.6 1.25v3.774c0 .467.22.915.6 1.245.39.33.92.516 1.47.516ZM61.82 8.709c.55 0 1.07-.185 1.46-.515.39-.33.62-.778.62-1.246V3.174c0-.471-.22-.922-.61-1.255a2.28 2.28 0 0 0-1.47-.519c-.55.003-1.08.192-1.46.524-.39.332-.61.781-.61 1.25v3.774c0 .467.22.915.61 1.245.38.33.91.516 1.46.516Z" fill="#E6E6E6"/><path opacity=".6" d="M39.12 45.958h485.66V1.375H39.12v44.583Z" fill="#E0E0E0"/><path d="M210.47 328.279c5.24-1.51 9.03-5.812 5.71-10.228-5.51-7.296 8.26-8.806 4.43-21.046-5.45-17.235-22.38-2.302-26.57-18.87-3.06-12.039-26.78-19.927-27.71-4.076-1.02 17.348-11.21 6.013-13.49 25.311-1.56 13.335 20.67 15.272 14.07 19.448-4.86 3.045-7.74 8.354-.96 11.989 9.24 4.944.52 8.806 6.8 12.253 6.29 3.447 7.3-2.05 17.04.629 8.71 2.39 16.09-4.944 14.36-9.536-1.67-4.239 1.06-4.352 6.32-5.874Z" fill="#E6E6E6"/><path d="M160.12 336.204s.71 55.855 28.18 55.855c27.46 0 28.17-55.855 28.17-55.855h-56.35Z" fill="#F0F0F0"/><path d="M133.98 328.279c5.22-1.51 9.03-5.812 5.7-10.228-5.51-7.296 8.28-8.806 4.42-21.046-5.46-17.235-22.39-2.302-26.56-18.87-3.06-12.039-26.78-19.927-27.71-4.076-1.02 17.348-11.22 6.013-13.49 25.311-1.56 13.335 20.67 15.272 14.07 19.448-4.86 3.045-7.74 8.354-.95 11.989 9.23 4.944.52 8.806 6.79 12.253 6.28 3.447 7.29-2.05 17.04.629 8.72 2.39 16.1-4.944 14.36-9.536-1.67-4.239 1.06-4.352 6.33-5.874Z" fill="#E6E6E6"/><path d="M83.62 336.204s.72 55.855 28.18 55.855c27.45 0 28.17-55.855 28.17-55.855H83.62ZM374.14 274.411c3.96-37.325 6.72-97.91 4.58-118.176a2.341 2.341 0 0 0-.34-.979 2.744 2.744 0 0 0-.77-.783 3.065 3.065 0 0 0-1.48-.494 3.135 3.135 0 0 0-1.55.285c-.47.223-.86.56-1.11.969-.25.408-.35.871-.29 1.329.38 10.064.81 35.136-1.48 78.436-1.16 21.549-2.84 36.306-1.69 39.413h4.13Z" fill="#F0F0F0"/><path d="M386.33 197.12c9.48-10.064 28.81-17.311 48.52-17.273 7.73 0-23.54 11.762-36.55 24.732-10.09 10.064-21.49 27.022-25.36 36.42 2.5-19.789 3.93-33.765 13.39-43.879Z" fill="#F0F0F0"/><path d="M366.54 197.019c-9.36-11.121-31-19.675-54.39-20.644-9.2-.377 25.77 13.574 38.8 27.877 10.14 11.109 20.53 29.526 23.38 39.615.69-20.883 1.58-35.727-7.79-46.848ZM386.33 213.36c9.48-10.064 28.81-17.31 48.52-17.272 7.73 0-23.54 11.762-36.55 24.732-10.09 10.064-21.49 27.022-25.36 36.482 2.5-19.851 3.93-33.827 13.39-43.942Z" fill="#F0F0F0"/><path d="M366.54 214.178c-9.36-11.121-31-19.675-54.39-20.644-9.2-.377 25.77 13.574 38.8 27.878 10.14 11.12 20.53 29.525 23.38 39.614.69-20.958 1.58-35.74-7.79-46.848ZM384.63 158.914c6.2-7.548 19.47-13.385 33.33-14.178 5.45-.314-16.01 9.259-24.57 18.87-6.66 7.548-13.91 19.902-16.24 26.683.9-13.977 1.27-23.915 7.48-31.375Z" fill="#F0F0F0"/><path d="M372.29 162.084c-6.59-7.837-21.84-13.838-38.37-14.542-6.48-.264 18.15 9.573 27.35 19.65 7.14 7.824 14.46 20.807 16.47 27.915.53-14.757 1.17-25.185-5.45-33.023Z" fill="#F0F0F0"/><path d="M386.76 168.664c8.01-8.567 24.38-14.656 41.08-14.631 6.55 0-19.93 9.963-31 20.946-8.56 8.529-18.2 22.883-21.49 30.846 2.26-16.807 3.39-28.607 11.41-37.161Z" fill="#F0F0F0"/><path d="M370.48 173.218c-7.94-9.36-26.26-16.656-46.01-17.474-7.78-.327 21.82 11.498 32.86 23.6 8.47 9.41 17.33 24.996 19.75 33.576.53-17.763 1.32-30.28-6.6-39.702Z" fill="#F0F0F0"/><path d="M387.29 180.539c8.65-9.234 26.32-15.813 44.28-15.775 7.07 0-21.49 10.743-33.37 22.644-9.23 9.208-19.63 24.682-23.18 33.274 2.32-18.128 3.62-30.909 12.27-40.143Z" fill="#F0F0F0"/><path d="M369.22 185.596c-8.85-10.454-29.13-18.492-51.14-19.398-8.63-.365 24.22 12.756 36.49 26.204 9.53 10.454 19.3 27.764 21.99 37.249.63-19.7 1.48-33.588-7.34-44.055Z" fill="#F0F0F0"/><path d="m347.51 268.108 1.48 10.48c.08 1.132.66 2.196 1.63 2.975.97.778 2.25 1.213 3.58 1.214h36.69c1.33-.001 2.61-.436 3.58-1.214.97-.779 1.55-1.843 1.63-2.975l1.48-10.48a3.894 3.894 0 0 0-.31-1.776 4.335 4.335 0 0 0-1.11-1.528 5.348 5.348 0 0 0-1.73-1.027 5.955 5.955 0 0 0-2.06-.361h-39.65a5.955 5.955 0 0 0-2.06.361c-.65.238-1.24.588-1.73 1.027-.49.44-.87.96-1.11 1.528a3.894 3.894 0 0 0-.31 1.776Z" fill="#E6E6E6"/><path d="M345.33 270.323h54.42c.38-.001.75-.122 1.04-.339.29-.218.48-.518.52-.844l1.3-9.989c.02-.186 0-.375-.07-.554a1.406 1.406 0 0 0-.32-.483c-.15-.14-.33-.252-.53-.329-.2-.077-.42-.117-.64-.118h-57.02c-.22.001-.44.041-.64.118-.2.077-.38.189-.53.329-.15.139-.26.304-.33.483a1.31 1.31 0 0 0-.07.554l1.3 9.989c.05.326.23.626.52.844.29.217.66.338 1.05.339Z" fill="#F5F5F5"/><path d="M263.87 392.059h23.64V282.777h-23.64v109.282Z" fill="#E6E6E6"/><path d="M270.95 392.059h-7.08v-20.92h14.51l-7.43 20.92Z" fill="#F0F0F0"/><path d="M558.43 392.059h23.65V282.777h-23.65v109.282Z" fill="#E6E6E6"/><path d="M263.87 379.228h300.76v-96.451H263.87v96.451Z" fill="#F0F0F0"/><path d="M557.53 392.059h7.09v-20.92h-14.51l7.42 20.92Z" fill="#F0F0F0"/><path d="M269.36 328.165h289.77V289.57H269.36v38.595Z" fill="#E6E6E6"/><path d="M311.82 301.559h200.1c6.91 0 13.52-4.768 18.29-13.172H293.55c4.75 8.404 11.36 13.172 18.27 13.172Z" fill="#F0F0F0"/><path d="M269.36 372.988h289.77v-38.596H269.36v38.596Z" fill="#E6E6E6"/><path d="M311.82 346.381h200.1c6.91 0 13.52-4.755 18.29-13.158H293.55c4.75 8.403 11.36 13.158 18.27 13.158Z" fill="#F0F0F0"/><path d="M560.99 257.164s-1.3 25.613-50.87 25.613c-49.56 0-50.84-25.613-50.84-25.613h101.71Z" fill="#F5F5F5"/><path d="M560.99 243.867s-1.3 25.663-50.87 25.663c-49.56 0-50.84-25.613-50.84-25.613l101.71-.05ZM292 448.871c158.05 0 286.18-6.376 286.18-14.241 0-7.865-128.13-14.241-286.18-14.241S5.82 426.765 5.82 434.63c0 7.865 128.13 14.241 286.18 14.241Z" fill="#F5F5F5"/><path d="M466.02 81.295c-8.86 4.127-11.81 16.354-7.66 21.676-15.35 3.925-7.38 26.418 17.71 27.676 25.09 1.258 44.19-6.554 31.87-23.235 12.19-14.002 6.58-29.639-4.1-27.915-11.47-19.588-49.88-19.009-37.82 1.798Z" fill="#2A363D"/><path d="M492.74 132.156c-3.87-.01-7.67-.914-10.99-2.616a.435.435 0 0 1-.14-.077.336.336 0 0 1-.09-.12.666.666 0 0 1-.02-.142.355.355 0 0 1 .06-.135.253.253 0 0 1 .11-.104c.05-.027.1-.045.15-.053a.474.474 0 0 1 .17.009.37.37 0 0 1 .15.068c4.27 2.182 9.33 2.983 14.24 2.258 4.91-.725 9.35-2.928 12.52-6.208 4.03-4.252 5.9-11.07-1.14-17.436a.422.422 0 0 1-.08-.106.502.502 0 0 1-.02-.123c0-.042.01-.083.03-.122a.298.298 0 0 1 .09-.102.289.289 0 0 1 .12-.066c.05-.015.1-.022.15-.021.04.001.09.01.14.028.04.017.08.041.12.072 7.29 6.667 5.39 13.838 1.16 18.279-2.04 2.094-4.6 3.78-7.49 4.941-2.89 1.161-6.05 1.767-9.24 1.776ZM455.59 107.147a.395.395 0 0 1-.21-.061.306.306 0 0 1-.13-.152c-3.93-9.586 1.32-22.456 10.61-25.978a.462.462 0 0 1 .28.004c.09.03.16.087.21.159.01.038.03.079.03.121 0 .041-.01.082-.03.121a.262.262 0 0 1-.08.103.293.293 0 0 1-.12.07c-8.97 3.397-14.03 15.876-10.21 25.161.02.039.02.081.02.123 0 .042-.02.083-.04.12a.27.27 0 0 1-.09.098.389.389 0 0 1-.13.061l-.11.05Z" fill="#2A363D"/><path d="M453.18 93.297h-.13a.375.375 0 0 1-.21-.165.327.327 0 0 1-.02-.238c2.66-6 7.68-10.567 13.08-11.926.1-.023.2-.014.28.027.09.04.15.107.18.187s.02.166-.03.24a.382.382 0 0 1-.22.15c-5.18 1.258-10.01 5.724-12.59 11.549a.333.333 0 0 1-.14.13.426.426 0 0 1-.2.046Z" fill="#2A363D"/><path d="m473.84 427.925-8.53.012-1.43-27.311 14.36.302-4.4 26.997Z" fill="#FFB573"/><path d="M459.01 192.251s-.75 75.795-2.63 108.792c-.07.98-.07 1.963 0 2.944 2.81 33.072 7.46 96.639 7.46 96.639l14.45.315s12.59-50.761 4.79-96.741c12.53-52.005 19.28-98.413 7.93-111.962l-32 .013Z" fill="#407BFF"/><path opacity=".2" d="M483.22 222.355c-4.43 12.655-.12 53.339 2.17 72.109 3.11-13.562 5.77-26.607 7.73-38.634l-9.9-33.475Z" fill="#000"/><path d="M464.35 424.402h11.09c.23-.007.46.062.63.193.18.131.29.314.31.512l1.12 7.736c.01.24-.04.478-.14.701-.11.222-.26.425-.46.596-.2.171-.43.307-.69.4-.26.092-.54.14-.82.14-4.88 0-7.21-.302-13.37-.289-3.79 0-6.08.327-11.32.327s-5.24-4.277-3.04-4.667c9.87-1.749 11.14-2.718 14.58-5.032a3.86 3.86 0 0 1 2.11-.617Z" fill="#2A363D"/><path d="M468 136.471c-.55 2.604-1.17 5.032-1.83 7.548-.67 2.516-1.35 5.032-2.13 7.548-1.55 5.032-3.16 9.964-5.28 14.945a65.67 65.67 0 0 1-3.72 7.548 29.504 29.504 0 0 1-2.7 3.913c-.3.339-.56.666-.95 1.044-.36.4-.77.771-1.22 1.107-1.13.911-2.5 1.587-3.99 1.975-1.56.402-3.21.459-4.81.164a12.746 12.746 0 0 1-3.54-1.258 16.983 16.983 0 0 1-4.34-3.347c-2.09-2.22-3.76-4.708-4.95-7.372a2.312 2.312 0 0 1-.06-1.77c.22-.579.67-1.076 1.26-1.407.6-.331 1.32-.476 2.03-.41.7.065 1.37.337 1.87.769l.17.164a52.275 52.275 0 0 0 5.91 4.579c.82.534 1.73.958 2.7 1.258.35.076.6.076.63 0 .03-.075-.2-.126-.41-.113-.21.012-.34.075-.28 0 .07-.11.15-.215.24-.315.14-.152.27-.316.38-.49.62-.867 1.16-1.771 1.62-2.705a63.368 63.368 0 0 0 2.84-6.592 181.98 181.98 0 0 0 4.54-14.215c1.33-4.818 2.65-9.737 3.83-14.543.36-1.328 1.31-2.485 2.66-3.226 1.34-.742 2.97-1.011 4.54-.75 1.57.261 2.96 1.03 3.88 2.147.92 1.117 1.3 2.494 1.05 3.842l.06-.038Z" fill="#FFB573"/><path d="M454.58 181.961c0 3.094 56.59 3.698 56.59-.39l-28.91-6.29-27.68 6.68Z" fill="#2A363D"/><path d="M464.97 128.357a150.98 150.98 0 0 1 45.04.378c.87.117 1.7.386 2.45.789.74.403 1.38.932 1.88 1.555.5.622.84 1.325 1 2.064.17.739.16 1.499-.04 2.234-8 30.532-7.54 40.797-6.77 56.874h-49.51c-2.48-26.821-3.79-42.13-4.11-50.823-.27-6.63 2.4-12.102 10.06-13.071Z" fill="#FFB573"/><path opacity=".2" d="M509.86 137.226c-.31 4.261.35 8.534 1.95 12.58.63-2.906 1.37-6.026 2.21-9.435l-4.16-3.145Z" fill="#000"/><path d="M493.75 106.065c-1.47 6.102-2.81 17.311 2.2 21.386 0 0-1.96 6.202-15.27 6.202-14.66 0-7.01-6.202-7.01-6.202 8-1.635 7.79-6.692 6.4-11.435l13.68-9.951Z" fill="#FFB573"/><path opacity=".2" d="m488.18 110.129-8.11 5.925c.35 1.105.58 2.233.7 3.371 3.05-.377 7.24-3.233 7.57-5.962.18-1.111.12-2.24-.16-3.334Z" fill="#000"/><path d="M501.49 95.473c-2.75 9.951-3.65 14.216-10.64 18.505-10.51 6.466-24.27 1.434-25.1-9.02-.73-9.397 3.86-24.103 16.24-26.418 2.72-.522 5.55-.444 8.23.227 2.67.672 5.1 1.915 7.05 3.611 1.96 1.696 3.37 3.789 4.11 6.081.73 2.292.77 4.706.11 7.014Z" fill="#FFB573"/><path d="M497.03 80.503c-12.37 1.17-8.6 20.82.69 22.719 10.9-4.541 17.61-21.788-.69-22.719Z" fill="#2A363D"/><path d="m557.58 409.935-8.55 2.214-12.47-22.266 13.15-3.057 7.87 23.109Z" fill="#FFB573"/><path d="m546.57 409.923 10.98-3.623c.19-.064.4-.067.6-.009.19.058.35.172.46.323l4.91 7.07c.12.176.19.372.22.574.02.202-.01.406-.09.597-.08.191-.21.365-.38.511-.16.145-.36.258-.59.331-3.85 1.258-5.71 1.899-10.54 3.497-2.95.981-7.58 4.252-11.69 5.598-4.1 1.346-5.9-1.849-4.42-2.956 4-2.975 7.15-6.688 9.21-10.857.12-.244.3-.463.53-.645.23-.182.5-.322.8-.411Z" fill="#2A363D"/><path d="M472.6 192.251s18.2 79.342 25.1 110.704c7.12 32.708 38.89 86.878 38.89 86.878l13.18-3.07s-18.05-57.943-26.47-86.664c-1.65-52.005.3-94.35-14.76-107.898l-35.94.05Z" fill="#407BFF"/><path d="M482.12 95.41c-.16.818-.79 1.409-1.47 1.258-.68-.151-1.01-.83-.84-1.648.16-.817.81-1.409 1.47-1.321.67.088 1.02.894.84 1.711ZM471.27 93.838c-.16.817-.81 1.409-1.47 1.258-.67-.151-1-.818-.84-1.648.16-.831.81-1.409 1.47-1.258.67.151 1.01.83.84 1.648Z" fill="#2A363D"/><path d="m470.7 92.278-2.2-.906s.89 1.711 2.2.906Z" fill="#2A363D"/><path d="M474.32 95.8a23.518 23.518 0 0 1-4.43 4.73c.43.367.95.65 1.52.831.57.18 1.18.253 1.78.213l1.13-5.774Z" fill="#ED893E"/><path d="M477.77 105.537c-.5 0-.99-.037-1.48-.113a.353.353 0 0 1-.1-.032.252.252 0 0 1-.08-.064.17.17 0 0 1-.05-.086.154.154 0 0 1 0-.095.23.23 0 0 1 .11-.155.343.343 0 0 1 .21-.046c1.19.193 2.42.146 3.59-.138 1.16-.284 2.24-.797 3.13-1.498a.277.277 0 0 1 .2-.077c.04 0 .08.007.12.02.03.014.06.033.09.057.05.047.08.107.08.17 0 .063-.03.124-.08.17-1.54 1.252-3.61 1.93-5.74 1.887Z" fill="#2A363D"/><path d="M503.17 104.053c-1.17 1.703-3.09 2.945-5.33 3.459-2.95.642-4.42-1.635-3.51-4 .78-2.126 3.29-5.032 6.26-4.642.64.1 1.25.335 1.76.684.51.349.91.8 1.17 1.314.25.514.36 1.074.3 1.63-.06.555-.29 1.09-.65 1.555Z" fill="#FFB573"/><path d="M486.83 94.152a.634.634 0 0 1-.33-.095.551.551 0 0 1-.2-.244c-.78-2.152-4.01-3.083-4.04-3.083a.554.554 0 0 1-.34-.24.324.324 0 0 1-.06-.186.316.316 0 0 1 .03-.19c.02-.062.06-.12.1-.169a.621.621 0 0 1 .4-.171c.07-.005.15.004.22.026.15 0 3.82 1.094 4.78 3.774.03.061.03.127.03.191a.428.428 0 0 1-.07.185.43.43 0 0 1-.14.149.67.67 0 0 1-.2.091l-.18-.038ZM468.85 89.082a.697.697 0 0 1-.28-.065.561.561 0 0 1-.2-.174.384.384 0 0 1-.05-.372.51.51 0 0 1 .27-.294 6.405 6.405 0 0 1 2.56-.69c.91-.053 1.82.08 2.65.388a.54.54 0 0 1 .28.283c.05.122.04.256-.03.371a.57.57 0 0 1-.33.241c-.15.04-.3.03-.44-.027a5.277 5.277 0 0 0-2.1-.281c-.72.048-1.41.239-2.03.558a.6.6 0 0 1-.3.062Z" fill="#2A363D"/><path d="M514.05 130.483a177.2 177.2 0 0 1 11.66 14.442c1.8 2.516 3.57 5.032 5.2 7.712a47.385 47.385 0 0 1 4.35 8.692c.16.403.28.868.41 1.258l.11.365.13.529c.06.329.1.661.12.993.06 1.092-.03 2.187-.28 3.259a22.142 22.142 0 0 1-1.88 4.944 55.039 55.039 0 0 1-5.13 8.076c-3.74 4.94-7.94 9.615-12.57 13.976-.5.484-1.2.789-1.96.859a3.488 3.488 0 0 1-2.13-.484c-.61-.38-1.04-.942-1.2-1.576-.16-.634-.03-1.295.35-1.856v-.063c3.26-4.843 6.49-9.824 9.28-14.756a56.931 56.931 0 0 0 3.56-7.334c.43-1.065.73-2.165.89-3.283.05-.33.05-.665 0-.994V165.015c-.11-.251-.18-.478-.31-.742a48.937 48.937 0 0 0-4.05-6.831c-1.62-2.327-3.35-4.654-5.12-6.982-3.6-4.604-7.38-9.233-11.22-13.712-.92-1.124-1.29-2.508-1.03-3.86.26-1.353 1.12-2.566 2.41-3.384 1.29-.818 2.91-1.176 4.5-.998 1.59.179 3.04.879 4.04 1.952l-.13.025Z" fill="#FFB573"/><path d="m481.56 93.85-2.2-.905s.87 1.723 2.2.905ZM456.29 138.421a62.909 62.909 0 0 1 3.52-9.322c2.26-.576 4.58-.997 6.92-1.258 4.77 3.606 8.7 7.952 11.57 12.807 6.33-5.46 18.45-10.982 25.83-12.995 2.5-.134 5 .134 7.38.792-5.03 13.536-10.17 27.148-1.06 30.645-.16 6.429.26 14.404.65 22.468-8.61-.805-42.73-2.201-56.59.39-.71-8.177-.96-15.096-.92-21.071-6.45-7.008.02-16.543 2.7-22.456Z" fill="#2A363D"/><path opacity=".2" d="M469.86 163.594a.454.454 0 0 0-.21.073.356.356 0 0 0-.15.153 9.695 9.695 0 0 0 .09 7.724c-1.02-.729-2.02-1.446-2.95-2.176.83-1.515 1.15-3.197.93-4.858-.23-1.661-.99-3.237-2.2-4.552a.504.504 0 0 0-.4-.151.42.42 0 0 0-.21.07.335.335 0 0 0-.14.157c-1.08 2.572-1.01 5.393.19 7.925a99.629 99.629 0 0 1-3.76-3.057c.87-1.522 1.22-3.224 1.01-4.908-.21-1.685-.98-3.284-2.21-4.615a.504.504 0 0 0-.4-.151.42.42 0 0 0-.21.069.342.342 0 0 0-.14.158c-1.08 2.577-1.01 5.4.19 7.938-2.02-1.799-3.7-3.435-4.96-4.793-.45-1.522-1.35-2.921-2.6-4.067-1.26-1.146-2.84-2.002-4.59-2.488a.533.533 0 0 0-.4.105.366.366 0 0 0-.11.154c-.02.058-.03.121-.02.182 1.33 5.573 6.14 6.541 7.12 6.68.69.742 1.47 1.56 2.42 2.44a14.51 14.51 0 0 0-7.38-.755.398.398 0 0 0-.2.095.27.27 0 0 0-.11.17.256.256 0 0 0-.01.192c.01.063.05.123.09.172 1.27 1.234 2.92 2.14 4.76 2.618 1.84.478 3.8.508 5.67.087.82.73 1.71 1.472 2.64 2.239-3.13-.761-6.47-.593-9.46.478a.441.441 0 0 0-.18.139.345.345 0 0 0 0 .389c.05.059.1.107.18.139 1.68.894 3.61 1.396 5.6 1.456 1.98.06 3.95-.325 5.7-1.116 1.24.994 2.56 1.987 3.91 2.981-3.02-1.163-6.44-1.333-9.61-.478a.441.441 0 0 0-.28.302c0 .066.01.132.04.193a.34.34 0 0 0 .13.159c1.55 1.073 3.42 1.758 5.4 1.98 1.99.222 4-.027 5.83-.722l.12-.063a.41.41 0 0 0 .09-.151l1.66 1.158c.06.059.13.103.21.126.89.603 1.79 1.195 2.7 1.773a.506.506 0 0 0 .58 0 .36.36 0 0 0 .07-.134.369.369 0 0 0-.18-.394 79.461 79.461 0 0 1-2.49-1.648 7.852 7.852 0 0 0 .8-4.767c-.25-1.622-1-3.157-2.19-4.441a.395.395 0 0 0-.16-.139.5.5 0 0 0-.22-.05ZM455.3 144.107a.507.507 0 0 0 .22-.072c.06-.04.11-.093.14-.154 1.05-2.502 1.01-5.24-.09-7.724 1.02.729 2.02 1.447 2.95 2.176-.83 1.515-1.15 3.197-.93 4.858.23 1.662.99 3.237 2.2 4.552a.506.506 0 0 0 .62.082c.06-.04.11-.095.13-.157a9.578 9.578 0 0 0-.19-7.926c1.33 1.032 2.6 2.063 3.77 3.057-.88 1.523-1.23 3.224-1.01 4.908.21 1.685.97 3.284 2.2 4.615a.493.493 0 0 0 .4.151.494.494 0 0 0 .22-.069c.06-.04.11-.095.13-.157 1.08-2.578 1.01-5.401-.19-7.938 2.02 1.799 3.71 3.434 4.96 4.793.45 1.521 1.35 2.92 2.61 4.066 1.25 1.146 2.83 2.002 4.58 2.488a.533.533 0 0 0 .4-.105.366.366 0 0 0 .11-.154c.03-.058.03-.12.02-.181-1.33-5.573-6.14-6.542-7.11-6.68-.7-.743-1.48-1.56-2.42-2.441 2.31.887 4.89 1.146 7.38.742.07-.011.14-.04.2-.085a.385.385 0 0 0 .11-.166.417.417 0 0 0 .01-.192.41.41 0 0 0-.1-.173c-1.27-1.233-2.92-2.14-4.76-2.618-1.84-.478-3.8-.508-5.66-.087-.83-.729-1.71-1.472-2.64-2.239 3.12.762 6.46.593 9.46-.478a.41.41 0 0 0 .17-.139.345.345 0 0 0 0-.389.41.41 0 0 0-.17-.139 12.844 12.844 0 0 0-5.6-1.456 13.01 13.01 0 0 0-5.71 1.116 111.97 111.97 0 0 0-3.91-2.981c3.02 1.163 6.45 1.333 9.61.478a.487.487 0 0 0 .18-.122.434.434 0 0 0 .1-.18.325.325 0 0 0-.03-.193.528.528 0 0 0-.13-.159c-1.56-1.073-3.43-1.758-5.41-1.98-1.98-.222-4 .028-5.83.722l-.11.063a.25.25 0 0 0-.09.151l-1.67-1.158a.39.39 0 0 0-.21-.125 79.629 79.629 0 0 0-2.7-1.774.484.484 0 0 0-.29-.091c-.1 0-.2.032-.28.091a.325.325 0 0 0-.08.279c.01.098.07.187.16.249.86.541 1.7 1.082 2.51 1.648-.76 1.499-1.04 3.146-.79 4.768.24 1.621.99 3.156 2.18 4.441.04.057.1.105.16.138.07.033.15.05.22.05ZM500.81 172.777a.502.502 0 0 0-.21.07.393.393 0 0 0-.14.144 9.737 9.737 0 0 0 .08 7.724 77.293 77.293 0 0 1-2.95-2.176c.83-1.513 1.16-3.193.93-4.852-.22-1.66-.98-3.233-2.2-4.545a.38.38 0 0 0-.17-.119.524.524 0 0 0-.22-.03.46.46 0 0 0-.21.066.342.342 0 0 0-.15.146c-1.07 2.577-1 5.4.19 7.937-1.33-1.044-2.6-2.063-3.76-3.056.87-1.52 1.23-3.22 1.01-4.903-.21-1.683-.97-3.281-2.21-4.608a.38.38 0 0 0-.17-.124c-.07-.027-.15-.036-.23-.027a.492.492 0 0 0-.2.069.345.345 0 0 0-.15.145 9.683 9.683 0 0 0 .19 7.938c-2.02-1.786-3.7-3.434-4.96-4.793-.45-1.519-1.35-2.916-2.61-4.061-1.25-1.146-2.83-2.003-4.58-2.493a.481.481 0 0 0-.39.1.335.335 0 0 0-.12.163.41.41 0 0 0-.02.19c1.33 5.56 6.16 6.529 7.12 6.667.69.742 1.47 1.573 2.42 2.453a14.499 14.499 0 0 0-7.38-.755.492.492 0 0 0-.2.097.397.397 0 0 0-.11.168.296.296 0 0 0-.01.186.31.31 0 0 0 .1.166c1.26 1.242 2.91 2.154 4.75 2.633 1.84.478 3.81.503 5.67.071.82.73 1.71 1.485 2.64 2.252-3.13-.769-6.47-.6-9.46.478a.453.453 0 0 0-.17.139.435.435 0 0 0-.07.188c0 .067.02.133.06.19.04.058.09.105.16.138 1.69.895 3.62 1.398 5.6 1.46 1.98.062 3.95-.32 5.71-1.108 1.24.981 2.55 1.975 3.91 2.981-3.02-1.163-6.45-1.333-9.61-.478a.509.509 0 0 0-.19.12.416.416 0 0 0-.09.182c-.01.065 0 .131.04.191.03.059.08.111.14.149 1.55 1.072 3.42 1.758 5.41 1.98 1.98.222 3.99-.028 5.82-.722l.1-.076a.492.492 0 0 0 .11-.138l1.67 1.157c.04.059.11.103.19.126.88.604 1.78 1.195 2.7 1.786.08.059.18.091.29.091.1 0 .2-.032.28-.091.07-.08.1-.18.09-.279a.395.395 0 0 0-.17-.249 91.57 91.57 0 0 1-2.51-1.648c.77-1.497 1.05-3.144.8-4.766-.24-1.622-.99-3.157-2.18-4.442a.354.354 0 0 0-.16-.144.485.485 0 0 0-.22-.058ZM529.19 181.47a.455.455 0 0 0-.21.069.34.34 0 0 0-.14.157 9.656 9.656 0 0 0 .07 7.725c-1.02-.73-2-1.46-2.95-2.177a7.83 7.83 0 0 0 .94-4.856c-.22-1.662-.98-3.238-2.19-4.554a.442.442 0 0 0-.19-.121.519.519 0 0 0-.23-.03.53.53 0 0 0-.21.075.399.399 0 0 0-.14.152 9.652 9.652 0 0 0 .19 7.925 107.7 107.7 0 0 1-3.75-3.057c.87-1.522 1.22-3.223 1.01-4.908-.21-1.684-.97-3.284-2.2-4.615a.49.49 0 0 0-.18-.118.527.527 0 0 0-.22-.033.469.469 0 0 0-.22.07.398.398 0 0 0-.14.157c-1.08 2.576-1.01 5.401.2 7.938-2.03-1.799-3.72-3.435-4.96-4.793-.46-1.521-1.35-2.92-2.61-4.066-1.25-1.147-2.83-2.003-4.58-2.488a.527.527 0 0 0-.22.005.468.468 0 0 0-.19.092.372.372 0 0 0-.11.158.293.293 0 0 0-.01.185c1.32 5.573 6.14 6.541 7.11 6.68.68.742 1.48 1.56 2.42 2.44-2.31-.881-4.89-1.144-7.38-.754a.467.467 0 0 0-.19.099.318.318 0 0 0-.12.358.4.4 0 0 0 .1.172c1.27 1.231 2.92 2.136 4.76 2.614 1.83.478 3.79.509 5.65.09.84.73 1.71 1.472 2.64 2.24-3.12-.762-6.45-.594-9.44.478a.376.376 0 0 0-.18.134.338.338 0 0 0-.06.193c0 .066.02.132.05.192.04.059.09.11.16.147 1.69.891 3.62 1.391 5.6 1.45 1.99.06 3.96-.323 5.72-1.11 1.24.99 2.54 1.983 3.89 2.981-3.02-1.163-6.44-1.333-9.6-.478a.42.42 0 0 0-.19.118.331.331 0 0 0-.08.184c-.01.066 0 .132.03.193s.07.116.13.16c1.56 1.071 3.43 1.755 5.41 1.977 1.98.222 4-.027 5.82-.719.04.005.07.005.11 0a.252.252 0 0 0 .1-.151l1.67 1.157c.05.056.11.099.19.126.89.604 1.79 1.195 2.7 1.774.08.058.18.09.29.09a.49.49 0 0 0 .29-.09.588.588 0 0 0 .08-.133.37.37 0 0 0 .01-.148.37.37 0 0 0-.18-.248l-2.51-1.648a7.853 7.853 0 0 0 .81-4.766c-.24-1.622-1-3.157-2.18-4.442a.384.384 0 0 0-.15-.173.522.522 0 0 0-.24-.079ZM464.29 182.892a.487.487 0 0 0-.21.065.389.389 0 0 0-.14.148 9.656 9.656 0 0 0 .07 7.725c-1.02-.718-2-1.447-2.95-2.177a7.83 7.83 0 0 0 .94-4.856c-.22-1.662-.98-3.238-2.19-4.554a.442.442 0 0 0-.19-.115.521.521 0 0 0-.22-.027.476.476 0 0 0-.21.07.351.351 0 0 0-.15.148 9.683 9.683 0 0 0 .19 7.938 125.097 125.097 0 0 1-3.75-3.057c.87-1.523 1.22-3.224 1.01-4.908-.21-1.685-.97-3.284-2.2-4.615a.453.453 0 0 0-.4-.139.486.486 0 0 0-.22.063.383.383 0 0 0-.14.151c-1.08 2.577-1.01 5.402.2 7.938a65.237 65.237 0 0 1-4.96-4.793c-.46-1.519-1.36-2.916-2.61-4.061-1.26-1.146-2.83-2.003-4.58-2.493a.556.556 0 0 0-.42.101c-.04.046-.08.1-.1.159a.366.366 0 0 0-.01.18c1.32 5.573 6.14 6.542 7.11 6.68.68.743 1.48 1.56 2.42 2.516a14.274 14.274 0 0 0-7.38-.754.443.443 0 0 0-.19.091.323.323 0 0 0-.12.16.321.321 0 0 0 0 .194c.02.064.05.123.1.171 1.26 1.242 2.91 2.155 4.75 2.634 1.84.478 3.8.503 5.66.071.84.729 1.71 1.484 2.64 2.252a16.333 16.333 0 0 0-9.44.478.38.38 0 0 0-.17.128.27.27 0 0 0-.07.186c0 .067.01.133.05.193.04.059.09.11.16.147 1.68.895 3.62 1.398 5.6 1.46 1.99.062 3.96-.32 5.72-1.108a141.5 141.5 0 0 0 3.89 2.969c-3.02-1.16-6.44-1.326-9.6-.466a.42.42 0 0 0-.19.113.386.386 0 0 0-.08.177c-.01.065 0 .132.03.194.03.061.07.116.13.158 1.56 1.071 3.43 1.756 5.41 1.978 1.98.222 4-.027 5.82-.72.04.006.07.006.11 0a.225.225 0 0 0 .1-.138l1.67 1.157c.05.056.11.099.19.126.9.604 1.79 1.195 2.7 1.786.08.059.18.091.29.091.11 0 .21-.032.29-.091a.603.603 0 0 0 .08-.132.37.37 0 0 0 .01-.148.363.363 0 0 0-.18-.248l-2.51-1.648c.77-1.5 1.05-3.149.81-4.772-.24-1.624-1-3.161-2.18-4.449a.347.347 0 0 0-.12-.225.459.459 0 0 0-.27-.102ZM499.86 129.892a.589.589 0 0 0-.21.074.406.406 0 0 0-.14.152 9.781 9.781 0 0 0 .09 7.725c-1.02-.73-2.02-1.447-2.95-2.177.83-1.515 1.15-3.196.93-4.858-.23-1.661-.99-3.237-2.2-4.552a.504.504 0 0 0-.62-.081.313.313 0 0 0-.13.157c-1.08 2.573-1.01 5.392.19 7.925a108.97 108.97 0 0 1-3.77-3.057c.87-1.522 1.23-3.223 1.01-4.908-.21-1.684-.97-3.284-2.2-4.615a.495.495 0 0 0-.4-.151.508.508 0 0 0-.22.07.313.313 0 0 0-.13.157c-1.08 2.577-1.01 5.4.19 7.938-2.03-1.799-3.71-3.435-4.96-4.793-.45-1.521-1.35-2.92-2.61-4.067-1.25-1.146-2.83-2.002-4.58-2.487a.514.514 0 0 0-.21.011.483.483 0 0 0-.19.093.366.366 0 0 0-.11.154.287.287 0 0 0-.02.182c1.33 5.573 6.15 6.541 7.11 6.68.7.742 1.48 1.56 2.42 2.44-2.31-.884-4.88-1.147-7.38-.754a.467.467 0 0 0-.19.099.547.547 0 0 0-.12.165.415.415 0 0 0-.01.192c.02.063.05.123.1.173 1.27 1.233 2.92 2.14 4.76 2.617 1.84.478 3.8.508 5.66.087.83.73 1.71 1.472 2.64 2.239a16.627 16.627 0 0 0-9.46.479.494.494 0 0 0-.16.138.338.338 0 0 0-.07.189c0 .068.02.135.05.195.04.059.1.109.17.144 1.68.895 3.61 1.397 5.6 1.456 1.98.06 3.95-.325 5.7-1.116 1.24.994 2.56 1.988 3.92 2.981-3.03-1.163-6.45-1.333-9.61-.478a.44.44 0 0 0-.19.12.338.338 0 0 0-.06.378c.03.062.08.116.14.157 1.56 1.071 3.42 1.756 5.4 1.978 1.98.222 4-.027 5.82-.72l.12-.063a.256.256 0 0 0 .09-.151l1.67 1.157c.05.057.12.1.2.126.89.604 1.79 1.195 2.7 1.774a.513.513 0 0 0 .58 0c.07-.08.1-.181.08-.28-.01-.099-.08-.189-.17-.249a80.441 80.441 0 0 1-2.51-1.648 7.853 7.853 0 0 0 .81-4.766c-.24-1.622-1-3.157-2.18-4.442a.442.442 0 0 0-.17-.134.51.51 0 0 0-.22-.055ZM485.84 153.794a.438.438 0 0 0 .21-.066.346.346 0 0 0 .15-.148 9.654 9.654 0 0 0-.08-7.724 87.99 87.99 0 0 1 2.96 2.176 7.833 7.833 0 0 0-.94 4.857c.22 1.662.98 3.238 2.19 4.553.05.051.11.091.18.116a.533.533 0 0 0 .44-.043.516.516 0 0 0 .15-.148c1.07-2.578 1-5.401-.19-7.938 1.32 1.04 2.58 2.059 3.76 3.057-.87 1.522-1.22 3.223-1.01 4.908.21 1.684.98 3.284 2.21 4.615.04.051.11.091.18.115a.521.521 0 0 0 .44-.043.389.389 0 0 0 .14-.148c1.08-2.578 1-5.403-.2-7.938a69.403 69.403 0 0 1 4.96 4.793c.45 1.521 1.35 2.92 2.61 4.065 1.26 1.146 2.84 2.002 4.59 2.489.07.013.14.01.21-.008a.468.468 0 0 0 .19-.092.403.403 0 0 0 .11-.164.302.302 0 0 0 0-.188c-1.31-5.561-6.14-6.529-7.11-6.668-.68-.742-1.48-1.56-2.42-2.516 2.31.894 4.89 1.157 7.38.755a.444.444 0 0 0 .19-.092c.06-.044.1-.099.12-.16a.318.318 0 0 0 0-.193.315.315 0 0 0-.1-.171c-1.26-1.242-2.91-2.155-4.75-2.634-1.84-.479-3.8-.503-5.66-.071-.83-.73-1.71-1.485-2.64-2.252 3.12.774 6.46.605 9.45-.478.07-.03.13-.077.17-.135a.335.335 0 0 0 .06-.192.262.262 0 0 0-.05-.189.338.338 0 0 0-.16-.138c-1.68-.895-3.61-1.399-5.6-1.46-1.99-.062-3.96.32-5.72 1.108-1.24-.982-2.54-1.975-3.89-2.969 3.02 1.154 6.44 1.32 9.61.465a.445.445 0 0 0 .18-.113.387.387 0 0 0 .08-.176.33.33 0 0 0-.02-.196.402.402 0 0 0-.14-.156c-1.55-1.076-3.42-1.763-5.41-1.985-1.98-.222-4 .03-5.82.727a.338.338 0 0 0-.11 0 .696.696 0 0 0-.1.138l-1.67-1.157a.342.342 0 0 0-.19-.126c-.89-.604-1.79-1.258-2.7-1.787a.513.513 0 0 0-.58 0 .326.326 0 0 0-.08.28c.02.099.08.189.17.249l2.51 1.648a7.872 7.872 0 0 0-.81 4.772c.25 1.624 1 3.161 2.18 4.449a.4.4 0 0 0 .13.214c.06.059.15.098.24.113Z" fill="#fff"/><path d="m492.32 164.613-98.89 8.504c-2.64.229-5.06 1.34-6.74 3.09-1.67 1.75-2.47 3.996-2.2 6.244l3.39 28.821c2.58-1.556 5.59-2.508 8.73-2.763 3.14-.255 6.31.197 9.18 1.31 2.87 1.114 5.35 2.85 7.2 5.036 1.84 2.186 2.97 4.746 3.29 7.422.32 2.677-.2 5.378-1.49 7.834-1.29 2.456-3.31 4.58-5.86 6.161-2.56 1.582-5.55 2.565-8.69 2.851-3.14.286-6.31-.134-9.2-1.219l3.41 28.821c.27 2.247 1.58 4.312 3.63 5.742 2.05 1.431 4.68 2.112 7.32 1.894l98.89-8.492c2.64-.235 5.06-1.349 6.74-3.1 1.68-1.751 2.48-3.996 2.22-6.247l-9.96-84.286c-.28-2.246-1.59-4.307-3.64-5.735-2.06-1.428-4.69-2.106-7.33-1.888Z" fill="#407BFF"/><path opacity=".3" d="m492.32 164.613-98.89 8.504c-2.64.229-5.06 1.34-6.74 3.09-1.67 1.75-2.47 3.996-2.2 6.244l3.39 28.821c2.58-1.556 5.59-2.508 8.73-2.763 3.14-.255 6.31.197 9.18 1.31 2.87 1.114 5.35 2.85 7.2 5.036 1.84 2.186 2.97 4.746 3.29 7.422.32 2.677-.2 5.378-1.49 7.834-1.29 2.456-3.31 4.58-5.86 6.161-2.56 1.582-5.55 2.565-8.69 2.851-3.14.286-6.31-.134-9.2-1.219l3.41 28.821c.27 2.247 1.58 4.312 3.63 5.742 2.05 1.431 4.68 2.112 7.32 1.894l98.89-8.492c2.64-.235 5.06-1.349 6.74-3.1 1.68-1.751 2.48-3.996 2.22-6.247l-9.96-84.286c-.28-2.246-1.59-4.307-3.64-5.735-2.06-1.428-4.69-2.106-7.33-1.888Z" fill="#000"/><path d="m519.3 190.465-4.57-1.699-10.75 2.34c-1.23.275-2.32.89-3.1 1.749l-2.27 2.516c-.48.551-.73 1.228-.69 1.916.03.688.34 1.345.88 1.858l2.57 2.415c.62.576 1.47.924 2.38.971.92.047 1.81-.211 2.51-.719l5.83-4.265s7.02-2.805 7.21-7.082ZM426.15 174.752l4.76-.515a3.16 3.16 0 0 0 1.7-.68c.47-.38.78-.879.88-1.421l.65-3.221c.09-.383.07-.779-.06-1.155a2.473 2.473 0 0 0-.65-1.012 3.027 3.027 0 0 0-1.12-.655 3.422 3.422 0 0 0-1.34-.159l-5.55.339c-.79.036-1.52.334-2.04.83-.52.495-.79 1.147-.75 1.812l.14 3.397c.01.357.11.708.29 1.031.18.323.44.609.76.84.32.231.69.401 1.09.499.41.098.83.122 1.24.07Z" fill="#FFB573"/><path d="M500.12 82.302c-11.72 5.032-32.31 2.717-32.31 2.717s11.48-16.002 32.31-2.717Z" fill="#2A363D"/><path d="M293.89 401.482 288 427.61l-14.91-3.069 5.89-26.129 14.91 3.07Z" fill="#7F3E3B"/><path d="m273.56 419.232 16.58 3.07c.26.042.49.165.64.345.16.179.23.401.2.623l-1.15 10.379c-.04.26-.14.511-.3.736-.16.225-.37.42-.62.571-.25.152-.54.257-.84.309-.3.052-.61.05-.91-.006-5.21-1.044-6.76-1.698-13.36-2.919-7.69-1.446-10.42-1.056-19.45-2.742-5.46-1.019-5.21-5.9-2.76-5.913 6.47.014 12.83-1.431 18.43-4.189a5.592 5.592 0 0 1 3.54-.264Z" fill="#2A363D"/><path opacity=".2" d="m293.9 401.494-3.04 13.461-14.92-3.07 3.04-13.473 14.92 3.082Z" fill="#000"/><path d="M319.84 300.854c17.49-43.854 31.33-95.608 31.33-95.608l-49.89-2.692s-7.38 67.152-11.18 98.124c-3.99 32.18-16.37 104.829-16.37 104.829l22.51 3.887s21.1-68.41 23.6-108.54Z" fill="#2A363D"/><path opacity=".2" d="m328.16 229.651 12.11 12.756c-3.09 9.851-6.69 20.921-10.65 32.23a189.78 189.78 0 0 1-1.46-44.986Z" fill="#2A363D"/><path d="m274.05 408.237 20.67 3.85c.41.078.84.023 1.21-.153.36-.177.64-.463.78-.804l2.27-5.673a1.235 1.235 0 0 0-.12-1.177 1.483 1.483 0 0 0-.46-.456 1.847 1.847 0 0 0-.64-.254l-22.42-4.466a2.003 2.003 0 0 0-.72-.013c-.24.039-.47.121-.66.24-.2.119-.37.272-.49.45-.13.178-.2.376-.23.581l-.52 6.29c-.04.357.07.717.31 1.009.25.293.61.498 1.02.576Z" fill="#2A363D"/><path opacity=".1" d="m274.05 408.237 20.67 3.85c.41.078.84.023 1.21-.153.36-.177.64-.463.78-.804l2.27-5.673a1.235 1.235 0 0 0-.12-1.177 1.483 1.483 0 0 0-.46-.456 1.847 1.847 0 0 0-.64-.254l-22.42-4.466a2.003 2.003 0 0 0-.72-.013c-.24.039-.47.121-.66.24-.2.119-.37.272-.49.45-.13.178-.2.376-.23.581l-.52 6.29c-.04.357.07.717.31 1.009.25.293.61.498 1.02.576Z" fill="#fff"/><path d="m375.95 400.576.93 26.959-15.12-.176-.93-26.959 15.12.176Z" fill="#7F3E3B"/><path d="m361.37 421.823 16.09.202c.26-.001.51.081.71.229.19.149.31.355.34.576l1.3 10.366a1.716 1.716 0 0 1-.6 1.442c-.21.192-.46.344-.75.447-.28.102-.59.153-.9.149-5.34-.139-7.02-.516-13.77-.604-7.88-.113-9.58.73-18.82.616-5.59-.075-6.49-4.906-4.1-5.334 6.35-1.081 12.25-3.572 17.11-7.221.96-.646 2.17-.957 3.39-.868Z" fill="#2A363D"/><path opacity=".2" d="m375.97 400.588.47 13.889-15.14-.176-.47-13.901 15.14.188Z" fill="#000"/><path d="M372.19 299.961c-4.28-46.131-.66-71.014-6.95-93.922l-45.4-2.403s14.09 67.806 21.87 98.476c7.78 30.67 16.15 105.169 16.15 105.169l22.32.239s2.73-71.568-7.99-107.559Z" fill="#2A363D"/><path d="m357.92 410.703 21.12.277c.44.004.86-.135 1.18-.387.32-.253.52-.601.55-.972l.45-5.938c.02-.196-.01-.393-.08-.579a1.425 1.425 0 0 0-.35-.504 1.65 1.65 0 0 0-.55-.346 1.971 1.971 0 0 0-.67-.131l-22.98-.604a1.92 1.92 0 0 0-.74.122c-.24.087-.45.219-.61.385-.17.165-.29.361-.35.572-.07.21-.08.431-.03.645l1.48 6.29c.08.314.27.599.56.81.28.211.64.337 1.02.36Z" fill="#2A363D"/><path opacity=".1" d="m357.92 410.703 21.12.277c.44.004.86-.135 1.18-.387.32-.253.52-.601.55-.972l.45-5.938c.02-.196-.01-.393-.08-.579a1.425 1.425 0 0 0-.35-.504 1.65 1.65 0 0 0-.55-.346 1.971 1.971 0 0 0-.67-.131l-22.98-.604a1.92 1.92 0 0 0-.74.122c-.24.087-.45.219-.61.385-.17.165-.29.361-.35.572-.07.21-.08.431-.03.645l1.48 6.29c.08.314.27.599.56.81.28.211.64.337 1.02.36Z" fill="#fff"/><path d="M318.38 132.672c-1.75 3.208-3.56 6.051-5.54 8.982-1.98 2.931-4.06 5.775-6.36 8.567a84.325 84.325 0 0 1-7.62 8.24c-3.04 2.998-6.61 5.578-10.58 7.649l-.52.251c-.88.443-1.86.721-2.88.816a8.416 8.416 0 0 1-3.02-.262c-2.88-.793-5.67-1.686-8.4-2.642-2.73-.956-5.39-2.013-8-3.12a132.86 132.86 0 0 1-7.67-3.535c-2.51-1.258-4.96-2.516-7.38-4.038-.87-.524-1.5-1.289-1.77-2.164-.28-.874-.18-1.803.26-2.626.44-.824 1.21-1.489 2.16-1.882a5.29 5.29 0 0 1 3.08-.272h.16c2.64.541 5.38 1.195 8.03 1.786l7.99 1.799c2.64.617 5.3 1.132 7.91 1.686 2.61.554 5.22.981 7.79 1.434l-6.36.818a33.274 33.274 0 0 0 5.9-5.309c2.03-2.214 3.98-4.655 5.91-7.171 1.93-2.516 3.69-5.145 5.43-7.812 1.74-2.667 3.51-5.422 5.08-7.963l.09-.138c1.17-1.67 3.04-2.901 5.24-3.448 2.19-.547 4.55-.37 6.59.496 2.05.866 3.64 2.357 4.46 4.177.81 1.82.79 3.835-.06 5.643l.08.038Z" fill="#7F3E3B"/><path d="M322.01 110.682c-17.63 1.711-31 24.972-31 24.972l18.19 16.492s8.1-8.227 16.81-18.631c9.5-11.335 9.95-24.179-4-22.833Z" fill="#407BFF"/><path d="M319.84 114.167c6.77-2.051 37.12 1.258 37.12 1.258-5.91 6.491-10.84 60.246-11.38 91.142-6.45.755-31.19-.692-36.9-1.824.74-12.127 6.67-69.014 11.16-90.576Z" fill="#fff"/><path d="M300.25 130.471c.8-5.59 3.97-10.737 8.93-14.461 4.95-3.725 11.34-5.768 17.95-5.743 12.68.087 25.31 1.275 37.71 3.548 1.93.348 3.76 1.023 5.38 1.984 1.62.961 3 2.19 4.05 3.612 1.05 1.423 1.76 3.011 2.08 4.671.32 1.66.25 3.357-.22 4.992-9.34 33.4-6.88 65.089-9.37 79.833-8.89 2.787-18.34 4.069-27.81 3.774 0 0 .22-12.718 2.3-34.192 1.66-17.072 4.62-57.214 10.73-63.882 0 0-21.9-2.516-28.67-.49-5.04 24.216-8.73 97.57-8.73 97.583-10.71-.654-15.76-5.737-15.6-7.246-2.17-29.677-1.08-56.585 1.27-73.983Z" fill="#407BFF"/><path d="M352.77 93.322c-2.05 5.032-4.43 13.951-.64 18.958.19.233.32.499.38.779s.04.568-.05.843c-.09.274-.25.528-.46.744-.22.215-.49.387-.8.502-6.09 2.998-13.14 4.291-20.15 3.699-9.52-.654-8.85-4.315-6.4-6.693.58-.549 1.38-.891 2.24-.956 8.99-.918 9.08-5.535 7.78-10.064l18.1-7.812Z" fill="#7F3E3B"/><path opacity=".2" d="m345.39 96.53-10.7 4.642c.33 1.072.53 2.174.57 3.283 3.9 0 9.42-2.226 10.05-4.78a5.61 5.61 0 0 0 .08-3.145Z" fill="#000"/><path d="M338.5 75.831c.4-4.538-2.5-8.424-6.47-8.68-3.98-.256-7.53 3.216-7.93 7.754-.4 4.537 2.5 8.423 6.47 8.679 3.98.256 7.52-3.215 7.93-7.753Z" fill="#2A363D"/><path d="M358.55 79.572c-1.97 9.926-2.55 15.826-9.02 20.442-9.72 6.932-23.38 1.07-24.85-9.158-1.34-9.196 2.11-23.902 13.89-26.871 11.78-2.969 21.96 5.649 19.98 15.587Z" fill="#7F3E3B"/><path d="M356.01 87.963c-.14 0-.32-.164-.48-.088-5.29 2.516-7-2.894-6.67-6.491.1-1.201.51-2.368 1.18-3.426a9.107 9.107 0 0 1 2.73-2.714c-5.73.554-11.28-2.591-11.37-5.522-6.33 2.377-13.96 2.516-17.4-2.516-3.44-5.032 1.48-11.611 8.03-9.863-2.66-4.051 8.57-12.152 20.34-.201.37-8.668 16.81 0 14.11 8.517 7.62 2.239 14.14 14.567 1.22 17.196-.85 11.423-11.69 5.108-11.69 5.108Z" fill="#2A363D"/><path d="M362.24 91.083c-1.79 1.869-4.34 3.092-7.14 3.421-3.54.34-4.33-2.729-2.51-5.522 1.64-2.516 5.45-5.711 8.6-4.73 3.16.981 3.36 4.44 1.05 6.831Z" fill="#7F3E3B"/><path d="M341.67 80.314c-.09.83-.67 1.447-1.3 1.397-.64-.051-1.08-.755-.99-1.585.09-.831.66-1.435 1.3-1.384.63.05 1.06.755.99 1.572ZM330.23 79.232c-.09.818-.67 1.434-1.3 1.384-.64-.05-1.06-.755-.99-1.572.07-.818.66-1.447 1.3-1.397.63.051 1.14.755.99 1.585Z" fill="#2A363D"/><path d="M334.7 79.698a29.542 29.542 0 0 1-5.33 6.642c.61.455 1.34.791 2.12.984.78.193 1.6.24 2.4.136l.81-7.762Z" fill="#630F0F"/><path d="M336.87 91.46a9.219 9.219 0 0 0 3.16-.358 8.227 8.227 0 0 0 2.74-1.391c.03-.023.05-.05.06-.08.02-.03.03-.062.02-.094 0-.032 0-.064-.02-.093-.01-.03-.04-.056-.06-.078a.297.297 0 0 0-.1-.052.29.29 0 0 0-.11-.017.387.387 0 0 0-.11.02.436.436 0 0 0-.09.055 8.099 8.099 0 0 1-3.13 1.42 8.928 8.928 0 0 1-3.56.052.31.31 0 0 0-.21.033.249.249 0 0 0-.11.155c-.01.064 0 .129.04.183.04.053.11.092.18.107.47.063.89.113 1.3.138ZM345.45 78.314c.09.018.18.018.28 0a.666.666 0 0 0 .18-.109.583.583 0 0 0 .12-.161c.02-.06.03-.124.03-.188a.406.406 0 0 0-.05-.184 5.05 5.05 0 0 0-1.58-1.844c-.68-.5-1.5-.856-2.38-1.036a.644.644 0 0 0-.42.088.513.513 0 0 0-.23.314.44.44 0 0 0 .11.359c.08.103.22.173.36.195.7.152 1.34.441 1.88.843.54.402.96.906 1.22 1.471.05.072.12.131.2.175.09.044.18.07.28.077ZM325.43 75.219a.678.678 0 0 0 .53-.1 4.842 4.842 0 0 1 1.84-.861 5.29 5.29 0 0 1 2.1-.058c.15.035.3.02.43-.041a.5.5 0 0 0 .27-.286.437.437 0 0 0-.05-.368.552.552 0 0 0-.34-.236 6.532 6.532 0 0 0-2.66.038c-.87.195-1.67.566-2.34 1.082a.521.521 0 0 0-.12.156.406.406 0 0 0-.05.184c0 .063.02.125.05.184a.53.53 0 0 0 .12.155c.06.067.13.119.22.151Z" fill="#2A363D"/><path d="M379.64 128.395c.96 1.598 1.75 2.981 2.51 4.478.77 1.497 1.48 2.944 2.25 4.429 1.47 2.968 2.76 5.988 3.97 9.045a110.362 110.362 0 0 1 5.64 18.958l.39 2.516.21 1.258v.855c0 .403.08.805.08 1.258a17.09 17.09 0 0 1-1.58 6.693 47.186 47.186 0 0 1-5.58 9.296 94.739 94.739 0 0 1-6.6 7.913 102.856 102.856 0 0 1-7.38 7.259c-.75.674-1.76 1.098-2.84 1.193-1.08.096-2.17-.144-3.06-.674-.9-.53-1.54-1.316-1.81-2.215-.27-.898-.15-1.85.33-2.682v-.101c3.05-5.422 6.29-10.907 8.86-16.253a55.907 55.907 0 0 0 1.77-3.963c.51-1.21.94-2.445 1.28-3.698.24-.78.32-1.587.25-2.39 0 0 0 .075 0 0l-.07-.252-.28-1.044-.55-2.076a135.64 135.64 0 0 0-6.24-16.606c-1.18-2.767-2.53-5.497-3.83-8.239-.64-1.359-1.34-2.718-2.03-4.064l-2.07-3.925-.12-.226c-1.03-1.852-1.17-3.979-.36-5.914.8-1.934 2.47-3.518 4.64-4.402 2.18-.884 4.67-.996 6.94-.312 2.27.684 4.13 2.109 5.17 3.96l.11-.075Z" fill="#7F3E3B"/><path d="M366.36 114.167c19.66 4.227 25.09 25.651 25.09 25.651l-24.41 14.919s-6.05-5.396-7.88-18.077c-.84-6.051 3.22-22.657 7.2-22.493Z" fill="#407BFF"/><path d="m369.39 195.308-11.37 3.623 8.71 9.938s9.82-4.34 7.96-9.158l-5.3-4.403Z" fill="#7F3E3B"/><path d="M349.56 200.34c-3.06-.439-6.2-.196-9.12.704l5.64-28.556c.44-2.23-.18-4.516-1.72-6.358-1.54-1.842-3.87-3.088-6.49-3.467l-98-14.065c-2.61-.368-5.29.16-7.45 1.468-2.15 1.308-3.62 3.291-4.07 5.514l-5.72 28.62a20.607 20.607 0 0 1 9.12-.705c2.72.39 5.3 1.306 7.54 2.678 2.24 1.373 4.08 3.166 5.38 5.24 1.3 2.074 2.03 4.376 2.12 6.726.09 2.351-.45 4.688-1.58 6.832-1.13 2.145-2.83 4.039-4.96 5.537-2.12 1.498-4.63 2.56-7.31 3.104-2.69.544-5.48.556-8.17.035-2.69-.521-5.21-1.562-7.35-3.042l-5.66 28.557c-.43 2.23.19 4.516 1.73 6.358 1.53 1.841 3.87 3.088 6.48 3.467l98.01 14.064c2.61.369 5.29-.159 7.45-1.466 2.16-1.308 3.62-3.291 4.08-5.516l5.63-28.569c2.15 1.456 4.66 2.476 7.34 2.981 2.68.504 5.46.482 8.13-.067 2.66-.549 5.15-1.61 7.26-3.101 2.12-1.491 3.8-3.374 4.94-5.505 1.13-2.131 1.67-4.454 1.59-6.791-.08-2.338-.79-4.63-2.06-6.7-1.28-2.07-3.09-3.865-5.31-5.247-2.21-1.383-4.77-2.316-7.47-2.73Z" fill="#407BFF"/><path opacity=".6" d="M349.56 200.34c-3.06-.439-6.2-.196-9.12.704l5.64-28.556c.44-2.23-.18-4.516-1.72-6.358-1.54-1.842-3.87-3.088-6.49-3.467l-98-14.065c-2.61-.368-5.29.16-7.45 1.468-2.15 1.308-3.62 3.291-4.07 5.514l-5.72 28.62a20.607 20.607 0 0 1 9.12-.705c2.72.39 5.3 1.306 7.54 2.678 2.24 1.373 4.08 3.166 5.38 5.24 1.3 2.074 2.03 4.376 2.12 6.726.09 2.351-.45 4.688-1.58 6.832-1.13 2.145-2.83 4.039-4.96 5.537-2.12 1.498-4.63 2.56-7.31 3.104-2.69.544-5.48.556-8.17.035-2.69-.521-5.21-1.562-7.35-3.042l-5.66 28.557c-.43 2.23.19 4.516 1.73 6.358 1.53 1.841 3.87 3.088 6.48 3.467l98.01 14.064c2.61.369 5.29-.159 7.45-1.466 2.16-1.308 3.62-3.291 4.08-5.516l5.63-28.569c2.15 1.456 4.66 2.476 7.34 2.981 2.68.504 5.46.482 8.13-.067 2.66-.549 5.15-1.61 7.26-3.101 2.12-1.491 3.8-3.374 4.94-5.505 1.13-2.131 1.67-4.454 1.59-6.791-.08-2.338-.79-4.63-2.06-6.7-1.28-2.07-3.09-3.865-5.31-5.247-2.21-1.383-4.77-2.316-7.47-2.73Z" fill="#fff"/><path d="m352.71 208.693 3.73 3.045c.72.589 1.66.94 2.66.991.99.051 1.98-.203 2.77-.715l4.86-3.107-8.71-9.938-5.39 4.604c-.39.337-.71.739-.92 1.181-.21.441-.31.915-.31 1.392.01.478.13.949.35 1.386.23.438.55.832.96 1.161ZM243.29 151.278l1.36-4.29c.23-.504.63-.936 1.16-1.234a3.456 3.456 0 0 1 1.79-.426c1.92-.067 3.84.185 5.66.742l7.67 2.415-.37 2.667c-.31 2.29-3.3 4.202-6.7 4.29-2.28.026-4.55-.181-6.77-.616l-.83-.151a3.695 3.695 0 0 1-1.34-.336c-.42-.193-.78-.46-1.06-.783a2.664 2.664 0 0 1-.58-1.086c-.09-.393-.09-.8.01-1.192Z" fill="#7F3E3B"/><path d="M122.39 92.064c4.92-4.869 12.31-17.511-1.59-22.342-10.26-3.573-32.03-1.749-44.53 14.844-8.55 2.516-11.07 18.719 8.66 22.128 19.74 3.41 37.46-14.63 37.46-14.63Z" fill="#2A363D"/><path d="m166.98 404.237-22.55 1.597 3.82 22.594 18.85-1.308-.12-22.883Z" fill="#FFC3BD"/><path opacity=".2" d="m166.98 404.249-22.57 1.598 2.16 12.655 20.49-1.446-.08-12.807Z" fill="#000"/><path d="M123.87 337.726c-8.86-28.934-31.79-63.378-17.26-91.217l63.19-.164s1.57 57.302 2.01 84.286c.44 28.217-2.32 81.305-2.32 81.305l-25.84 1.673s-17.71-43.439-19.78-75.883Z" fill="#407BFF"/><path d="m142.36 414.477 27.93-1.749c.24-.017.46-.107.63-.252a.762.762 0 0 0 .28-.54l.59-8.806a.74.74 0 0 0-.3-.66c-.1-.084-.23-.148-.36-.186-.14-.038-.29-.05-.43-.035l-30.99 3.51a1.07 1.07 0 0 0-.4.116.935.935 0 0 0-.3.249.73.73 0 0 0-.12.692l2.45 7.07a.91.91 0 0 0 .39.444c.19.107.41.159.63.147Z" fill="#2A363D"/><path opacity=".2" d="M106.39 273.895c-.24 6.834.08 13.674.98 20.468 3.08 9.095 7.02 18.203 10.57 27.034 4.63-25.009 4.64-54.157-11.55-47.502Z" fill="#000"/><path d="m83.5 405.646-22.64.188-.03 22.77 18.92-.126 3.75-22.832Z" fill="#FFC3BD"/><path d="M59.04 425.107a.973.973 0 0 1 .16-.357c.08-.108.19-.2.31-.271a1.229 1.229 0 0 1 .86-.127c5.68 1.925 16.46.453 20.53-.214.45-.079.92-.078 1.37.002.44.08.87.238 1.24.464a47.139 47.139 0 0 0 10.74 4.227 9.416 9.416 0 0 1 .59 5.799H56.67a55.647 55.647 0 0 0 2.37-9.523ZM145.76 425.107a.814.814 0 0 1 .15-.357c.08-.108.19-.2.32-.271.12-.072.26-.12.41-.141.15-.022.3-.017.45.014 5.68 1.925 16.45.453 20.53-.214.45-.079.91-.078 1.36.002.45.08.88.238 1.25.464 4.34 2.616 15.91 4.227 15.91 4.227a9.342 9.342 0 0 1 .58 5.799h-43.34a55.678 55.678 0 0 0 2.38-9.523Z" fill="#2A363D"/><path opacity=".2" d="m83.5 405.658-22.66.176-.01 12.756 20.57-.151 2.1-12.781Z" fill="#000"/><path d="M57.67 328.367c-3.07-29.224-12.69-68.586-1.77-82.022h73.95s-15.07 58.271-21.26 85.242c-6.42 28.041-24.88 81.883-24.88 81.883l-24.49.063s-9.28-51.804-1.55-85.166Z" fill="#407BFF"/><path opacity=".2" d="M62.11 407.558a.846.846 0 0 1-.44-.128.725.725 0 0 1-.27-.325c-1.75-5.032-1.47-62.837 2.96-78.663 0-2.088-.52-6.189-1.11-11.385-2.02-17.612-5.77-50.32-.18-68.875a.686.686 0 0 1 .35-.399.862.862 0 0 1 .57-.073c.2.042.37.148.47.295.11.148.14.324.09.491-5.54 18.354-1.8 50.937.21 68.448.6 5.284 1.09 9.448 1.12 11.561v.164c-4.25 14.97-4.67 73.215-2.96 78.084.06.158.04.329-.05.475a.735.735 0 0 1-.43.305.7.7 0 0 1-.33.025Z" fill="#fff"/><path d="M57.52 414.313h27.74c.22.006.43-.057.61-.178.17-.12.28-.289.32-.476l1.83-8.391a.824.824 0 0 0-.02-.382.85.85 0 0 0-.22-.337.944.944 0 0 0-.36-.227 1.144 1.144 0 0 0-.44-.073l-30.2 1.145a1.028 1.028 0 0 0-.67.267.701.701 0 0 0-.18.28.713.713 0 0 0-.05.321l.62 7.246c.03.218.14.422.33.57.19.149.44.233.69.235Z" fill="#2A363D"/><path d="M154.97 144.56c1.47 5.032 2.83 10.064 4.15 15.096a518.214 518.214 0 0 1 3.7 15.096l1.77 7.548 1.65 7.548c1.14 5.032 2.14 10.14 3.18 15.222l-2.41-4.592c.32.942 1.02 1.76 1.97 2.315 1.88 1.088 4.01 1.837 6.25 2.202 2.99.587 6.03.928 9.1 1.019 1.63.075 3.32.125 5.01.1h4.93l2.1.126c1.76.096 3.44.679 4.78 1.66 1.34.981 2.28 2.306 2.66 3.777.38 1.471.18 3.008-.55 4.378s-1.97 2.499-3.52 3.218c-1.19.553-2.03.969-3.03 1.409-1 .44-1.93.818-2.95 1.258-1.98.73-4 1.421-6.1 2-2.13.594-4.29 1.09-6.48 1.485-2.3.391-4.64.669-6.98.83-2.53.154-5.08.12-7.6-.101a39.084 39.084 0 0 1-8.24-1.484 37.318 37.318 0 0 1-8.43-3.548c-2.74-1.622-5.19-3.585-7.26-5.824a8.866 8.866 0 0 1-1.95-3.196l-.45-1.396c-1.63-4.957-3.29-9.901-4.83-14.882l-2.35-7.448-2.22-7.472c-1.48-5.032-2.96-9.989-4.3-14.995-1.34-5.007-2.69-10.064-3.85-15.096-.84-3.601.01-7.338 2.36-10.415 2.34-3.077 6.01-5.252 10.21-6.062 4.2-.809 8.6-.19 12.28 1.726 3.67 1.917 6.32 4.979 7.38 8.536l.02-.038Z" fill="#FFC3BD"/><path d="m193.24 207.36.31 8.126c3.85 7.888 14.89 1.9 14.89 1.9l6.68-1.044c1.16-.252 2.18-.847 2.87-1.678.7-.831 1.03-1.845.93-2.864l-.17-5.686c.04-1.174-.45-2.316-1.38-3.183-.93-.867-2.22-1.391-3.6-1.459l-5.9.101c-1.72.025-3.41.414-4.92 1.132l-9.71 4.655Z" fill="#FFC3BD"/><path d="M143.66 130.546c13.58 6.089 22.45 27.576 22.45 27.576-2.86 10.064-14.4 28.418-25.09 28.305 0 0-15.69-17.248-17.39-29.727-2.06-15.083-7.42-38.457 20.03-26.154Z" fill="#2A363D"/><path d="M131.12 126.973a334.002 334.002 0 0 0-62.96.856c-12.07 1.447-20.66 7.85-19.18 28.934 2.95 42.772-1.63 76.109 4.75 91.482 0 0 92.87 22.644 119.35.943 6.43-51.465-15.23-94.186-25.09-111.962-1.55-2.799-3.91-5.212-6.86-7.008-2.96-1.795-6.41-2.913-10.01-3.245Z" fill="#2A363D"/><path d="M124.13 131.653c-2.4-2.013-4.93-.843-6.09-3.874-.52-2.381-.05-4.839 1.33-6.957l-28.65-13.184c.56 8.982.99 16.077-3.69 19.65-1.36 6.692 13.28 13.372 32.78 13.473 12.41.063 7.79-6.214 4.32-9.108Z" fill="#FFC3BD"/><path opacity=".2" d="m118.94 121.577-22.61-4.819c5.71 7.662 16 11.851 21.53 10.002-.16-1.778.21-3.561 1.08-5.183Z" fill="#000"/><path d="M109.58 77.622c-14.97-2.83-27.9 7.762-25 19.31 2.89 11.549 5.18 19.348 14.55 23.273 18.63 7.825 27.72.277 29.24-11.787 1.37-10.869-3.6-27.94-18.79-30.796Z" fill="#FFC3BD"/><path opacity=".2" d="M106.64 98.127c-1.75-.375-3.62-.144-5.18.642 1.76.079 3.52-.139 5.18-.642ZM106.75 99.197a6.494 6.494 0 0 0-2.42.359c-.77.27-1.45.68-2.01 1.201a12.3 12.3 0 0 0 4.43-1.56Z" fill="#000"/><path d="M86.47 106.694c8.37 1.598 11.81-1.975 11.81-5.975 0-4.252-4.71-11.435-9.88-12.756 1.85-9.435 32.35 3.774 29.45-9.297 0 0-.83-2.239-8.71-3.497-7.88-1.258-28.95 2.793-27.47 16.216 1.48 13.422 4.8 15.309 4.8 15.309ZM75.81 85.233c2.05-3.503 2.63-7.499 1.64-11.322 0 0 9.18 5.17-1.64 11.322ZM114.3 110.28c.63-.04 1.25-.12 1.86-.239.05-.009.1-.026.14-.05a.405.405 0 0 0 .1-.089.455.455 0 0 0 .05-.115.178.178 0 0 0-.01-.124.178.178 0 0 0-.05-.115.382.382 0 0 0-.1-.088.446.446 0 0 0-.29-.036c-1.53.319-3.13.328-4.67.027-1.54-.302-2.97-.905-4.18-1.763a.454.454 0 0 0-.27-.096.454.454 0 0 0-.27.096.33.33 0 0 0-.1.227c0 .084.04.165.1.226 1.06.773 2.28 1.36 3.6 1.727 1.32.367 2.71.507 4.09.412Z" fill="#2A363D"/><path d="M81.17 107.248a11.796 11.796 0 0 0 3.54 2.749c1.39.708 2.92 1.176 4.52 1.377 4.29.503 5.9-2.881 4.25-6.076-1.48-2.881-5.49-6.604-9.57-5.648-4.07.956-5.07 4.843-2.74 7.598Z" fill="#FFC3BD"/><path d="M109.08 98.253c.18 1.019.94 1.774 1.73 1.673.78-.1 1.28-1.019 1.1-2.038-.17-1.018-.93-1.761-1.71-1.66-.78.101-1.22.956-1.12 2.025ZM123.15 96.643c.17 1.032.94 1.774 1.72 1.673.78-.1 1.29-1.006 1.11-2.025-.18-1.019-.93-1.774-1.71-1.673-.78.1-1.29 1.006-1.12 2.025Z" fill="#2A363D"/><path d="m117.83 97.989.68 8.63s3.32.491 5.12-1.145c-1.14-2.88-3.14-5.458-5.8-7.485Z" fill="#ED847E"/><path d="M104.44 95.926a.769.769 0 0 1-.68-.163.496.496 0 0 1-.17-.278.483.483 0 0 1 .01-.314c.28-.935.82-1.8 1.57-2.524a7.295 7.295 0 0 1 2.74-1.64.834.834 0 0 1 .54.04c.17.073.29.199.35.35a.51.51 0 0 1-.05.463.676.676 0 0 1-.41.305c-.83.289-1.57.742-2.16 1.321-.59.579-1 1.269-1.22 2.012a.575.575 0 0 1-.19.274.721.721 0 0 1-.33.154ZM127.77 92.064a.747.747 0 0 1-.34-.05.66.66 0 0 1-.27-.189 5.442 5.442 0 0 0-1.96-1.494 6.4 6.4 0 0 0-2.56-.557.817.817 0 0 1-.52-.184.574.574 0 0 1 0-.889.818.818 0 0 1 .52-.185 7.971 7.971 0 0 1 3.24.656c1 .438 1.86 1.077 2.51 1.86a.61.61 0 0 1 .11.215.62.62 0 0 1 .01.235.614.614 0 0 1-.29.393.524.524 0 0 1-.2.135.749.749 0 0 1-.25.054Z" fill="#2A363D"/><path d="M213.77 174.337c-3.09.186-6.07 1.053-8.65 2.516l-2.67-28.934c-.22-2.251-1.47-4.336-3.49-5.802-2.01-1.466-4.63-2.193-7.27-2.023l-99.08 6.655c-2.64.19-5.09 1.259-6.81 2.976-1.72 1.718-2.57 3.944-2.37 6.195l7.82 84.45c.21 2.253 1.46 4.343 3.48 5.81 2.02 1.467 4.64 2.191 7.28 2.014l99.07-6.667c2.64-.183 5.09-1.25 6.82-2.969 1.72-1.718 2.57-3.948 2.37-6.202l-2.68-28.871c2.81 1.124 5.92 1.601 9.02 1.384 4.44-.638 8.45-2.673 11.22-5.704 2.78-3.03 4.12-6.836 3.76-10.668-.35-3.832-2.38-7.411-5.68-10.032-3.3-2.621-7.63-4.094-12.14-4.128Z" fill="#407BFF"/><path d="m70.1 162.789-1.48 2.314-1.7 2.592c-1.09 1.761-2.21 3.522-3.23 5.309-2.04 3.48-3.88 7.05-5.49 10.693-.78 1.761-1.47 3.509-1.99 5.233a35.735 35.735 0 0 0-1.39 5.032 22.528 22.528 0 0 0-.31 8.303l-3.39-5.032c1.41 1.652 3.1 3.122 5 4.365a76.71 76.71 0 0 0 7.87 4.692c2.85 1.56 5.9 3.057 8.97 4.554l4.7 2.227c1.47.755 3.24 1.51 4.64 2.239l.71.365c1.57.809 2.78 2.035 3.45 3.489.67 1.454.76 3.055.26 4.556-.51 1.502-1.58 2.821-3.05 3.754-1.46.933-3.25 1.428-5.08 1.41-2.25 0-4.17-.126-6.23-.264a85.702 85.702 0 0 1-6.04-.629 113.81 113.81 0 0 1-12.09-2.214 87.858 87.858 0 0 1-12.25-3.887c-4.67-1.833-8.96-4.297-12.71-7.297-1.35-1.096-2.36-2.456-2.95-3.963l-.41-1.081c-2.31-5.975-3.18-12.288-2.54-18.556a62.9 62.9 0 0 1 3.66-16.077A94.412 94.412 0 0 1 33.7 160.6c1.28-2.265 2.6-4.504 4.07-6.68.73-1.095 1.48-2.189 2.25-3.271l1.21-1.635.63-.831.77-.968c2.37-3.058 6.05-5.208 10.25-5.991 4.2-.783 8.6-.139 12.25 1.796 3.65 1.935 6.27 5.009 7.31 8.566 1.04 3.558.4 7.32-1.77 10.486l-.57.717Z" fill="#FFC3BD"/><path d="M58.57 130.546c-24.47 11.146-33.59 36.042-33.59 36.042 4.84 7.862 34.03 16.354 45.01 14.039 0 0 10.53-16.354 12.7-30.972 2.01-13.548-9.79-25.638-24.12-19.109Z" fill="#2A363D"/><path d="m75.69 216.694.5 8.127c4.05 7.824 14.94 1.648 14.94 1.648l6.66-1.158c1.15-.271 2.16-.883 2.83-1.726.68-.843.98-1.863.86-2.878l-.3-5.674c.04-1.181-.47-2.327-1.41-3.192-.95-.866-2.25-1.381-3.64-1.437l-5.9.201c-1.73.067-3.4.5-4.88 1.258l-9.66 4.831Z" fill="#FFC3BD"/></svg>